<?xml version="1.0" standalone="no"?>
<!DOCTYPE svg PUBLIC "-//W3C//DTD SVG 1.1//EN" "http://www.w3.org/Graphics/SVG/1.1/DTD/svg11.dtd" >
<svg xmlns="http://www.w3.org/2000/svg">
<metadata></metadata>
<defs>
<font id="berthold_imagobold_italic" horiz-adv-x="1236" >
<font-face units-per-em="2048" ascent="1536" descent="-512" />
<missing-glyph horiz-adv-x="509" />
<glyph unicode="&#xfb01;" horiz-adv-x="1282" d="M-20 0l225 866h-127l41 158h127q11 46 16.5 67.5t17.5 61t21.5 61t26 53.5t34 52t42 42.5t53.5 39.5q108 63 274 63q129 0 221 -32l-51 -199q-7 1 -27 6t-34.5 7.5t-28.5 2.5q-30 0 -54 -8.5t-40.5 -28t-27.5 -37t-19.5 -49t-12.5 -49.5t-10 -53h152l-39 -158h-154 l-225 -866h-401zM635 0l264 1024h404l-265 -1024h-403zM934 1151l74 291h403l-76 -291h-401z" />
<glyph unicode="&#xfb02;" horiz-adv-x="1282" d="M-20 0l225 866h-127l41 158h127q11 46 16.5 67.5t17.5 61t21.5 61t26 53.5t34 52t42 42.5t53.5 39.5q108 63 274 63q129 0 221 -32l-51 -199q-7 1 -27 6t-34.5 7.5t-28.5 2.5q-30 0 -54 -8.5t-40.5 -28t-27.5 -37t-19.5 -49t-12.5 -49.5t-10 -53h152l-39 -158h-154 l-225 -866h-401zM637 0l373 1446h403l-373 -1446h-403z" />
<glyph horiz-adv-x="2048" />
<glyph horiz-adv-x="2048" />
<glyph unicode="&#xd;" horiz-adv-x="2048" />
<glyph unicode=" "  horiz-adv-x="509" />
<glyph unicode="&#x09;" horiz-adv-x="509" />
<glyph unicode="&#xa0;" horiz-adv-x="509" />
<glyph unicode="!" horiz-adv-x="620" d="M-10 0l90 348h416l-90 -348h-416zM127 475l197 852h436l-246 -852h-387z" />
<glyph unicode="&#x22;" horiz-adv-x="749" d="M223 891l64 631h280l-243 -631h-101zM608 891l64 631h280l-243 -631h-101z" />
<glyph unicode="#" horiz-adv-x="1366" d="M70 406l57 225h238l61 203h-238l58 227h246l116 385h232l-119 -385h211l112 385h232l-115 -385h223l-57 -227h-233l-60 -203h236l-58 -225h-245l-123 -406h-230l121 406h-207l-122 -406h-228l119 406h-227zM594 631h209l61 203h-209z" />
<glyph unicode="$" horiz-adv-x="1153" d="M-47 59l67 258q224 -112 455 -112q97 0 159 38.5t62 98.5q0 34 -21.5 63.5t-80.5 57.5l-152 72q-157 74 -227 158.5t-70 199.5q0 89 42.5 172t117.5 147q73 65 162 94t229 42l56 221h188l-57 -223q184 -16 321 -78l-59 -228q-243 93 -412 93q-95 0 -153 -33.5t-58 -89.5 q0 -46 47 -84t158 -82q192 -75 278.5 -169.5t86.5 -228.5q0 -112 -59 -208t-167 -162q-72 -44 -148 -65.5t-196 -30.5l-61 -244h-189l64 246q-194 3 -383 77z" />
<glyph unicode="%" horiz-adv-x="2045" d="M109 653q0 105 45 273q46 171 108 258q114 155 367 155q63 0 116 -11.5t98.5 -38t71 -75t25.5 -116.5q0 -72 -37 -231t-84 -251q-59 -116 -155.5 -161t-239.5 -45q-69 0 -122 10.5t-98.5 36t-70 75t-24.5 121.5zM381 618q0 -31 16.5 -50t48.5 -19q61 0 89 57 q29 54 82 262t53 262q0 34 -17 54t-51 20q-51 0 -82 -57q-35 -61 -87 -260.5t-52 -268.5zM532 0l871 1327h162l-865 -1327h-168zM1157 231q0 105 45 273q45 169 109 258q115 156 366 156q63 0 116 -12t98.5 -38t71.5 -75t26 -117q0 -72 -37 -230.5t-84 -250.5 q-60 -116 -156 -161.5t-239 -45.5q-69 0 -122 10.5t-99 36t-70.5 75t-24.5 121.5zM1430 197q0 -31 16.5 -50.5t48.5 -19.5q60 0 88 57q29 54 82 262.5t53 262.5q0 73 -67 73q-51 0 -82 -57q-35 -61 -87 -260.5t-52 -267.5z" />
<glyph unicode="&#x26;" horiz-adv-x="1622" d="M-23 373q0 185 120 292.5t397 180.5q-37 71 -51.5 120.5t-14.5 104.5q0 178 149.5 285.5t397.5 107.5q209 0 338 -82.5t129 -214.5q0 -100 -77.5 -167t-274.5 -136l-107 -37l152 -297q39 67 56 106.5t26 88.5l10 49h352l-23 -88q-44 -171 -96.5 -252t-183.5 -166 l145 -268h-526l-43 96q-94 -60 -189.5 -87t-220.5 -27q-225 0 -345 102.5t-120 288.5zM430 535q0 -133 74.5 -224.5t183.5 -91.5q43 0 96 23l-231 471q-64 -26 -93.5 -69t-29.5 -109zM887 1102q0 -53 37 -141q82 37 118.5 78.5t36.5 97.5q0 39 -24.5 63.5t-63.5 24.5 q-44 0 -74 -35.5t-30 -87.5z" />
<glyph unicode="'" horiz-adv-x="364" d="M223 891l64 631h280l-243 -631h-101z" />
<glyph unicode="(" horiz-adv-x="897" d="M86 125q0 104 29 252q102 482 245 772q79 158 223.5 227.5t409.5 69.5h121l-59 -232q-37 3 -51 3q-215 0 -302 -166q-79 -150 -153 -433q-80 -306 -80 -452q0 -106 61 -160t197 -67l-61 -230q-285 9 -432.5 109.5t-147.5 306.5z" />
<glyph unicode=")" horiz-adv-x="897" d="M-207 -291l57 230q25 -2 52 -2q213 0 299 167q80 151 153 435q78 298 78 452q0 106 -61 159.5t-197 66.5l59 229q273 0 427.5 -103t154.5 -311q0 -104 -29 -252q-97 -480 -241 -772q-77 -160 -221 -229.5t-404 -69.5h-127z" />
<glyph unicode="*" horiz-adv-x="833" d="M135 979l238 88l-187 111l154 180l156 -144l43 236q156 -4 209 -6l-78 -236l227 121l57 -188l-235 -88l186 -111l-155 -180l-158 143l-43 -233q-172 4 -211 6l78 233l-221 -120z" />
<glyph unicode="+" horiz-adv-x="1482" d="M186 530l72 283h356l101 404h393l-100 -404h356l-72 -283h-356l-102 -411h-394l103 411h-357z" />
<glyph unicode="," horiz-adv-x="555" d="M-168 -346l283 346h-191l90 348h420l-88 -338l-278 -356h-236z" />
<glyph unicode="-" horiz-adv-x="917" d="M18 375l80 309h785l-80 -309h-785z" />
<glyph unicode="." horiz-adv-x="555" d="M-76 0l90 350h418l-90 -350h-418z" />
<glyph unicode="/" horiz-adv-x="940" d="M-115 0l865 1446h389l-860 -1446h-394z" />
<glyph unicode="0" horiz-adv-x="1259" d="M43 338q0 149 68 403.5t159 372.5q179 229 535 229q73 0 137 -10.5t124 -36t102.5 -64.5t68 -101t25.5 -140q0 -105 -55 -336t-124 -368q-45 -89 -105 -149.5t-135 -94t-156 -47.5t-183 -14q-80 0 -144.5 9t-125 33.5t-101.5 63.5t-65.5 102.5t-24.5 147.5zM434 287 q0 -49 27 -81t76 -32q88 0 137 90q41 76 119.5 386t78.5 388q0 52 -26.5 83.5t-77.5 31.5q-78 0 -129 -86q-51 -90 -128 -385.5t-77 -394.5z" />
<glyph unicode="1" horiz-adv-x="1259" d="M279 999l65 246q239 20 388.5 42t363.5 73l-348 -1360h-422l254 999h-301z" />
<glyph unicode="2" horiz-adv-x="1259" d="M-37 0l62 231l516 396q115 88 177.5 146t99 118.5t36.5 122.5q0 54 -32.5 85t-88.5 31q-84 0 -131 -63.5t-74 -202.5h-409q22 84 34 119t35 80q70 136 221.5 208t368.5 72q243 0 371.5 -86t128.5 -249q0 -82 -30.5 -149.5t-96.5 -133.5q-81 -81 -196 -165t-328 -226 l-74 -49l582 10l-76 -295h-1096z" />
<glyph unicode="3" horiz-adv-x="1259" d="M-14 289q0 60 18 129h404q-15 -64 -15 -105q0 -59 33.5 -92t93.5 -33q83 0 141 72.5t58 177.5q0 79 -50 115.5t-180 36.5h-55l53 201h31q98 0 150 12q83 23 133.5 85t50.5 140q0 59 -29.5 91t-83.5 32q-140 0 -178 -203h-403q26 85 41.5 120.5t46.5 78.5q137 196 522 196 q236 0 359.5 -76.5t123.5 -224.5q0 -151 -123.5 -249.5t-322.5 -98.5q170 -3 255 -76t85 -192q0 -94 -41.5 -175t-119.5 -141t-198.5 -94t-269.5 -34q-267 0 -398.5 76t-131.5 231z" />
<glyph unicode="4" horiz-adv-x="1259" d="M-25 238l60 235q281 360 637 854h409q-365 -470 -659 -815h283l94 360l360 21l-98 -381h143l-71 -274h-144l-61 -238h-373l61 238h-641z" />
<glyph unicode="5" horiz-adv-x="1259" d="M-2 291q0 30 10 84h434q-10 -44 -10 -74q0 -60 31.5 -94.5t85.5 -34.5q107 0 170 150q49 122 49 217q0 61 -30.5 95t-86.5 34q-51 0 -86 -26.5t-71 -90.5h-385l225 776h950l-70 -272h-587l-80 -260q125 88 282 88q170 0 269.5 -86.5t99.5 -235.5q0 -103 -38.5 -206.5 t-104.5 -178.5q-173 -194 -545 -194q-512 0 -512 309z" />
<glyph unicode="6" horiz-adv-x="1259" d="M59 346q0 146 68 387q44 151 83.5 239.5t96.5 160.5q91 116 221.5 164.5t309.5 48.5q215 0 337.5 -75t122.5 -204q0 -40 -12 -94h-393q12 37 12 80q0 104 -108 104q-51 0 -91.5 -29.5t-70.5 -88.5t-51 -123t-43 -158q71 50 134 69t152 19q158 0 250 -81t92 -222 q0 -117 -46 -229.5t-124 -184.5q-159 -147 -469 -147q-243 0 -357 88t-114 276zM442 297q0 -59 29.5 -91t83.5 -32q49 0 83 26t60 83q25 53 43.5 129t18.5 125q0 120 -109 120q-64 0 -114 -60.5t-72.5 -141t-22.5 -158.5z" />
<glyph unicode="7" horiz-adv-x="1259" d="M61 0q493 673 734 1034h-629l76 293h1075l-74 -289q-261 -401 -721 -1038h-461z" />
<glyph unicode="8" horiz-adv-x="1259" d="M18 299q0 106 54.5 195.5t152.5 144.5q58 32 115 45t156 18q-150 1 -218.5 66.5t-68.5 175.5q0 179 152 290.5t421 111.5q240 0 364 -75.5t124 -221.5q0 -143 -104.5 -241.5t-305.5 -111.5q149 -7 220 -71.5t71 -190.5q0 -107 -54 -206t-143 -156q-146 -90 -419 -90 q-262 0 -389.5 78t-127.5 239zM424 301q0 -63 34 -97t97 -34q87 0 144 97.5t57 211.5q0 129 -121 129q-64 0 -114.5 -52t-73.5 -121t-23 -134zM588 895q0 -50 30 -79.5t82 -29.5q55 0 98.5 43t64 102t20.5 118q0 53 -28.5 81.5t-80.5 28.5q-58 0 -102 -43.5t-64 -102.5 t-20 -118z" />
<glyph unicode="9" horiz-adv-x="1259" d="M2 268q0 37 10 88h416q-10 -49 -10 -75q0 -51 28.5 -80t79.5 -29q91 0 144 90q25 44 44.5 105t53.5 196q-134 -84 -276 -84q-157 0 -256 86t-99 221q0 107 48.5 222.5t123.5 185.5q161 152 463 152q242 0 366 -92.5t124 -272.5q0 -134 -80 -428q-58 -211 -133 -324 q-82 -121 -228.5 -184t-349.5 -63q-229 0 -349 73.5t-120 212.5zM553 784q0 -55 28 -84.5t83 -29.5q87 0 133 90q30 61 50.5 139.5t20.5 142.5q0 53 -28.5 83t-81.5 30q-64 0 -113 -63t-70.5 -145.5t-21.5 -162.5z" />
<glyph unicode=":" horiz-adv-x="620" d="M-10 0l90 350h418l-92 -350h-416zM164 676l90 348h418l-90 -348h-418z" />
<glyph unicode=";" horiz-adv-x="620" d="M-104 -346l282 346h-190l90 348h420l-86 -338l-279 -356h-237zM162 676l92 348h416l-90 -348h-418z" />
<glyph unicode="&#x3c;" horiz-adv-x="1482" d="M209 530l86 332l1069 451l-96 -371l-656 -252l525 -262l-93 -356z" />
<glyph unicode="=" horiz-adv-x="1482" d="M119 248l78 309h1075l-78 -309h-1075zM238 725l77 307h1076l-76 -307h-1077z" />
<glyph unicode="&#x3e;" horiz-adv-x="1482" d="M188 70l97 370l655 252l-524 262l92 357l833 -459l-84 -332z" />
<glyph unicode="?" horiz-adv-x="1153" d="M109 924q43 225 181 322t417 97q503 0 503 -323q0 -175 -139 -288.5t-387 -141.5l-27 -111h-395l68 273h18q156 0 244 28q86 26 140 94.5t54 151.5q0 59 -30 92t-82 33q-64 0 -97 -47.5t-61 -179.5h-407zM133 0l90 348h418l-90 -348h-418z" />
<glyph unicode="@" horiz-adv-x="1755" d="M76 461q0 208 74.5 393t204 318.5t313.5 211.5t393 78q286 0 462.5 -157t176.5 -435q0 -134 -49 -268.5t-126.5 -236t-180.5 -165t-205 -63.5q-75 0 -122 40.5t-50 107.5q-57 -69 -129 -107.5t-144 -38.5q-123 0 -195.5 82.5t-72.5 222.5q0 148 72 293.5t191 238.5 t245 93q143 0 209 -135l28 92h199l-123 -412q-51 -168 -51 -229q0 -47 37 -47q26 0 63 29.5t74 81.5q65 90 102 194t37 203q0 217 -124.5 330.5t-348.5 113.5q-217 0 -392.5 -107.5t-273.5 -293.5t-98 -412q0 -254 155 -404.5t421 -150.5q174 0 341.5 69t342.5 222l100 -143 q-91 -72 -148.5 -109t-142.5 -82q-251 -133 -516 -133q-337 0 -543 197.5t-206 517.5zM657 479q0 -69 31 -108t86 -39q63 0 129 57t109 144.5t43 171.5q0 172 -125 172q-65 0 -129.5 -63.5t-104 -156.5t-39.5 -178z" />
<glyph unicode="A" horiz-adv-x="1452" d="M-147 0l792 1446h653q5 -1387 7 -1446h-445q4 393 4 436h-352l-225 -436h-434zM637 688h237q7 202 13 475z" />
<glyph unicode="B" horiz-adv-x="1409" d="M-31 0l373 1446h639q120 0 188 -10.5t117 -36.5q139 -74 139 -242q0 -148 -86 -244.5t-241 -140.5q123 -32 179 -97t56 -177q0 -166 -103.5 -299.5t-264.5 -171.5q-76 -17 -144.5 -22t-255.5 -5h-596zM463 215h155q116 0 190.5 79t74.5 200q0 77 -46 116t-163 39h-101z M627 854h135q102 0 167.5 67.5t65.5 170.5q0 77 -45 108t-155 31h-70z" />
<glyph unicode="C" horiz-adv-x="1449" d="M76 418q0 150 59 368.5t139 370.5q91 170 243.5 247t400.5 77q575 0 575 -389q0 -50 -12 -109h-445q19 86 19 127q0 69 -39 108t-109 39q-118 0 -189 -110t-143 -391q-67 -256 -67 -379q0 -89 43 -136.5t121 -47.5q95 0 150.5 69.5t101.5 212.5h446q-62 -258 -231 -384 t-469 -126q-287 0 -440.5 116.5t-153.5 336.5z" />
<glyph unicode="D" horiz-adv-x="1515" d="M-29 0l373 1446h487q334 0 469 -53q101 -40 158.5 -141.5t57.5 -239.5q0 -83 -18 -201.5t-46 -216.5q-75 -259 -210 -396.5t-353 -177.5q-74 -14 -132.5 -17t-242.5 -3h-543zM477 215h70q136 0 206 23.5t113 83.5q75 104 143 334.5t68 373.5q0 112 -55 156.5t-193 44.5 h-90z" />
<glyph unicode="E" horiz-adv-x="1130" d="M-31 0l375 1446h944l-69 -266h-498l-78 -297h465l-70 -267h-463l-92 -350h543l-68 -266h-989z" />
<glyph unicode="F" horiz-adv-x="1046" d="M-31 0l375 1446h916l-70 -266h-461l-90 -346h432l-70 -267h-430l-147 -567h-455z" />
<glyph unicode="G" horiz-adv-x="1515" d="M74 397q0 114 32.5 270t86.5 298q106 280 273 399t454 119q276 0 434.5 -100.5t158.5 -274.5q0 -54 -14 -125h-440q14 74 14 119q0 75 -39.5 115t-113.5 40q-123 0 -200.5 -117.5t-146.5 -381.5q-63 -246 -63 -371q0 -199 184 -199q133 0 201 84q37 46 54 96t48 185h-215 l62 229h629l-205 -782h-414l29 106q-83 -79 -161.5 -109t-197.5 -30q-212 0 -331 113.5t-119 316.5z" />
<glyph unicode="H" horiz-adv-x="1472" d="M-29 0l373 1446h455l-144 -549h334l141 549h455l-373 -1446h-454l162 629h-332l-164 -629h-453z" />
<glyph unicode="I" horiz-adv-x="684" d="M-31 0l375 1446h455l-375 -1446h-455z" />
<glyph unicode="J" horiz-adv-x="917" d="M-121 27l70 256q94 -37 162 -37q124 0 176 110q38 78 98 314l201 776h454l-209 -813q-27 -104 -51 -180t-54 -148.5t-63.5 -122.5t-76 -92.5t-94 -67t-116 -38t-143.5 -13.5q-170 0 -354 56z" />
<glyph unicode="K" horiz-adv-x="1366" d="M-31 0l375 1446h432l-143 -549l500 549h448l-532 -535l211 -911h-459l-119 567l-180 -176l-101 -391h-432z" />
<glyph unicode="L" horiz-adv-x="1130" d="M-31 0l375 1446h455l-305 -1178h534l-70 -268h-989z" />
<glyph unicode="M" horiz-adv-x="1984" d="M-33 0l387 1446h645q-4 -756 -8 -881l451 881h653l-369 -1446h-419l301 1143l-590 -1143h-340q-4 848 -4 1126l-293 -1126h-414z" />
<glyph unicode="N" horiz-adv-x="1515" d="M-31 0l379 1446h520l160 -901l209 901h393l-375 -1446h-510l-155 895l-223 -895h-398z" />
<glyph unicode="O" horiz-adv-x="1536" d="M80 455q0 156 51 356q91 360 266.5 514t503.5 154q314 0 474.5 -126t160.5 -372q0 -139 -55 -345t-127 -343q-87 -166 -245.5 -246t-406.5 -80q-302 0 -462 126t-160 362zM516 385q0 -87 47.5 -137.5t134.5 -50.5q48 0 88.5 18.5t69 47t53 71.5t40 81.5t30.5 88.5 q121 403 121 565q0 87 -46.5 134.5t-133.5 47.5q-136 0 -211 -127q-60 -102 -126.5 -359.5t-66.5 -379.5z" />
<glyph unicode="P" horiz-adv-x="1345" d="M-31 0l375 1446h475q243 0 367 -23q123 -23 193.5 -104t70.5 -199q0 -124 -47.5 -252t-122.5 -206q-88 -91 -196 -119.5t-355 -28.5h-174l-131 -514h-455zM612 729h129q112 0 189.5 97.5t77.5 248.5q0 85 -46.5 120.5t-156.5 35.5h-64z" />
<glyph unicode="Q" horiz-adv-x="1536" d="M82 449q0 133 41.5 310.5t107.5 323.5q92 204 257.5 301t420.5 97q295 0 461 -129.5t166 -358.5q0 -205 -96 -501q-46 -140 -99 -225.5t-133 -147.5q77 -35 117.5 -99.5t40.5 -150.5q0 -48 -12 -109h-379q10 48 10 80q0 50 -23.5 85.5t-78.5 64.5q-103 -23 -191 -23 q-290 0 -450 126.5t-160 355.5zM520 387q0 -87 46 -139.5t132 -52.5q43 0 78.5 14t60 35t46.5 55.5t35.5 64.5t29.5 72q47 125 99.5 331.5t52.5 303.5q0 82 -45.5 132t-126.5 50q-146 0 -234 -172q-53 -104 -113.5 -343.5t-60.5 -350.5z" />
<glyph unicode="R" horiz-adv-x="1409" d="M-31 0l375 1446h592q49 0 77 -0.5t77 -3t79.5 -8t73.5 -16t69.5 -25t57 -37.5t47 -52.5t28 -69.5t11.5 -89q0 -172 -116 -291.5t-302 -136.5q77 -19 123 -58q46 -38 68 -110.5t22 -147.5q0 -69 -3 -163t-3 -109q0 -40 9 -67.5t34 -61.5h-459q-21 21 -28.5 41t-7.5 63 l10 277q0 52 -7.5 88.5t-26.5 68t-57.5 47t-95.5 15.5h-47l-153 -600h-447zM625 811h61q50 0 78.5 1.5t70.5 13t70 34.5q44 36 68 102t24 130q0 46 -17.5 75.5t-51.5 42.5t-65.5 17t-78.5 4h-51z" />
<glyph unicode="S" horiz-adv-x="1302" d="M-18 342q0 35 8 92l416 -4q-3 -30 -3 -43q0 -199 193 -199q91 0 147 49.5t56 129.5q0 27 -7.5 50t-17.5 40.5t-32.5 36t-40 30t-54 28.5t-60 27t-71.5 29q-107 44 -174 85t-103.5 88t-49.5 95t-13 115q0 220 170.5 355t476.5 135q264 0 401.5 -83.5t137.5 -244.5 q0 -38 -10 -94h-385q2 25 2 53q0 71 -43 110.5t-121 39.5q-83 0 -135 -42t-52 -110q0 -29 12 -53t28.5 -41.5t53 -37.5t64.5 -32.5t84 -36.5q114 -48 181 -85t117 -85.5t69.5 -106.5t19.5 -140q0 -157 -88.5 -277t-244 -184t-353.5 -64q-579 0 -579 375z" />
<glyph unicode="T" horiz-adv-x="1153" d="M164 1178l67 268h1149l-69 -268h-340l-305 -1178h-455l305 1178h-352z" />
<glyph unicode="U" horiz-adv-x="1472" d="M74 348q0 80 30 197l232 901h455l-211 -817q-3 -14 -21 -75.5t-25.5 -102t-7.5 -80.5q0 -70 40 -109t110 -39q31 0 57.5 7.5t47.5 24t37.5 34.5t30.5 47t24 52t20 59t16 60t15 62t14 58l211 819h446l-235 -916q-51 -196 -100 -284q-47 -82 -114.5 -139t-150.5 -86.5 t-166 -41.5t-182 -12q-86 0 -159.5 8.5t-152.5 33.5t-134.5 65.5t-91 110.5t-35.5 163z" />
<glyph unicode="V" horiz-adv-x="1345" d="M221 0q10 1399 12 1446h449q-48 -969 -66 -1100l506 1100h447l-748 -1446h-600z" />
<glyph unicode="W" horiz-adv-x="1941" d="M104 0l129 1446h433l-125 -1061l481 1061h369l-64 -1051l426 1051h416l-623 -1446h-549l60 860l-404 -860h-549z" />
<glyph unicode="X" horiz-adv-x="1345" d="M-160 0l654 770l-236 676h461l102 -363l269 363h456l-588 -676l259 -770h-459l-127 438l-324 -438h-467z" />
<glyph unicode="Y" horiz-adv-x="1323" d="M211 1446h448l82 -567l367 567h459l-715 -965l-123 -481h-453l125 481z" />
<glyph unicode="Z" horiz-adv-x="1273" d="M-117 0l58 225l856 955h-602l69 266h1151l-61 -248l-838 -930h680l-70 -268h-1243z" />
<glyph unicode="[" horiz-adv-x="854" d="M-66 -289l449 1737h696l-55 -211h-317l-340 -1315h317l-53 -211h-697z" />
<glyph unicode="\" horiz-adv-x="1003" d="M256 1446h375l198 -1446h-376z" />
<glyph unicode="]" horiz-adv-x="854" d="M-215 -289l53 211h320l340 1315h-320l55 211h697l-451 -1737h-694z" />
<glyph unicode="^" horiz-adv-x="1482" d="M141 573l654 873h342l215 -873h-385l-80 512l-344 -512h-402z" />
<glyph unicode="_" horiz-adv-x="1024" d="M14 -479l62 235h1065l-62 -235h-1065z" />
<glyph unicode="`" horiz-adv-x="577" d="M49 1452h383l94 -315h-282z" />
<glyph unicode="a" horiz-adv-x="1173" d="M-23 209q0 83 38 163.5t100 127.5q82 63 215 91.5t366 39.5q35 135 35 164q0 37 -23.5 57t-64.5 20q-57 0 -90.5 -37t-58.5 -128h-392q26 89 55 139t76 88q70 57 181 88t245 31q213 0 335 -75t122 -206q0 -64 -20 -139l-119 -455q-16 -69 -16 -92q0 -28 10.5 -46 t38.5 -40h-365q-51 0 -71.5 16t-20.5 54q0 18 8 59q-57 -75 -141 -113.5t-178 -38.5q-121 0 -193 63t-72 169zM371 283q0 -46 26.5 -73.5t73.5 -27.5q114 0 150 154l36 147q-137 0 -211.5 -55.5t-74.5 -144.5z" />
<glyph unicode="b" d="M-45 0l375 1446h403l-141 -545q95 77 173.5 111.5t164.5 34.5q124 0 195 -79.5t71 -217.5q0 -158 -59 -344q-131 -424 -480 -424q-94 0 -155 31.5t-111 105.5l-31 -119h-405zM436 268q0 -40 29.5 -66t73.5 -26q110 0 172 160q40 103 69 224.5t29 184.5q0 51 -23.5 80 t-64.5 29q-74 0 -156 -76l-110 -405q-19 -69 -19 -105z" />
<glyph unicode="c" horiz-adv-x="1200" d="M31 322q0 135 45 274q43 138 100.5 225t142.5 140q142 92 388 92q223 0 346 -81t123 -229q0 -18 -5 -59h-383q9 65 9 78q0 58 -28 89.5t-79 31.5q-68 0 -119 -60q-58 -75 -106 -243q-55 -198 -55 -299q0 -63 30 -98.5t84 -35.5q63 0 106 45.5t75 145.5h389 q-51 -188 -193 -277.5t-391 -89.5q-479 0 -479 351z" />
<glyph unicode="d" d="M16 287q0 213 105 440q69 153 181 234t255 81q92 0 156 -30.5t110 -96.5l140 531h403l-375 -1446h-401l28 119q-86 -75 -160 -106t-165 -31q-134 0 -205.5 78.5t-71.5 226.5zM406 279q0 -47 23.5 -76t68.5 -29q38 0 69.5 18.5t51 42.5t37.5 65.5t25.5 67t18.5 68.5 l88 342q-23 36 -46 53t-60 17q-82 0 -145 -105q-45 -78 -88 -228.5t-43 -235.5z" />
<glyph unicode="e" horiz-adv-x="1216" d="M25 311q0 87 24 195q47 217 137 340q155 207 502 207q486 0 486 -355q0 -48 -7.5 -91t-29.5 -132h-705q-33 -121 -33 -194q0 -63 33 -97t94 -34q86 0 133 59q36 41 58 125h389q-28 -71 -45.5 -104t-46.5 -68q-157 -189 -522 -189q-467 0 -467 338zM477 633h303 q23 82 23 127q0 56 -31 87.5t-86 31.5q-80 0 -127 -60q-29 -37 -44 -70.5t-38 -115.5z" />
<glyph unicode="f" horiz-adv-x="684" d="M-20 0l225 866h-127l41 158h127q11 46 16.5 67.5t17.5 61t21.5 61t26 53.5t34 52t42 42.5t53.5 39.5q108 63 274 63q129 0 221 -32l-51 -199q-7 1 -27 6t-34.5 7.5t-28.5 2.5q-30 0 -54 -8.5t-40.5 -28t-27.5 -37t-19.5 -49t-12.5 -49.5t-10 -53h152l-39 -158h-154 l-225 -866h-401z" />
<glyph unicode="g" d="M-96 -180q0 38 12 94h393q-14 -55 -14 -102q0 -44 26.5 -70.5t71.5 -26.5q41 0 73 23.5t58 76.5t45.5 114.5t44.5 160.5l11 41q-89 -77 -147.5 -103t-149.5 -26q-143 0 -224 80t-81 221q0 128 47 283q70 241 192.5 348.5t304.5 107.5q176 0 258 -131l31 113h399 l-254 -987q-48 -192 -125.5 -296t-198 -145.5t-321.5 -41.5q-229 0 -340.5 65.5t-111.5 200.5zM422 289q0 -51 26.5 -80t73.5 -29q30 0 52 8t47 31t47 71t41 122l94 364q-45 74 -113 74q-81 0 -137 -100q-43 -78 -87 -234t-44 -227z" />
<glyph unicode="h" horiz-adv-x="1228" d="M-47 0l377 1446h401l-141 -541q177 137 360 137q106 0 171 -51.5t65 -154.5q0 -59 -33 -195l-166 -641h-403l161 627q25 98 25 143q0 35 -20.5 55.5t-59.5 20.5q-37 0 -65.5 -14.5t-46.5 -42.5t-29 -56t-21 -67l-172 -666h-403z" />
<glyph unicode="i" horiz-adv-x="598" d="M-47 0l264 1024h404l-265 -1024h-403zM250 1151l76 291h401l-74 -291h-403z" />
<glyph unicode="j" horiz-adv-x="598" d="M-336 -426l60 223q27 -6 55 -6q74 0 109.5 46t58.5 130l274 1057h402l-258 -995q-33 -130 -71.5 -212.5t-101 -142t-152 -85t-220.5 -25.5q-71 0 -156 10zM254 1153l76 289h399l-74 -289h-401z" />
<glyph unicode="k" horiz-adv-x="1173" d="M-45 0l375 1446h395l-207 -795l371 373h401l-372 -344l161 -680h-411l-88 389l-168 -156l-60 -233h-397z" />
<glyph unicode="l" horiz-adv-x="598" d="M-47 0l373 1446h403l-373 -1446h-403z" />
<glyph unicode="m" horiz-adv-x="1826" d="M-47 0l266 1024h402l-33 -125q173 143 344 143q194 0 231 -172q98 84 184.5 129t190.5 45q111 0 178.5 -58t67.5 -167q0 -66 -39 -213l-158 -606h-401l164 637q22 86 22 129q0 34 -21 55t-57 21q-59 0 -94.5 -49.5t-58.5 -137.5l-170 -655h-402l158 612q29 118 29 158 q0 74 -72 74q-35 0 -62 -15.5t-46 -45.5t-30.5 -61t-23.5 -75l-168 -647h-401z" />
<glyph unicode="n" horiz-adv-x="1228" d="M-47 0l266 1024h402l-31 -119q177 137 360 137q106 0 171 -51.5t65 -154.5q0 -59 -33 -195l-166 -641h-403l161 627q25 98 25 143q0 35 -20.5 55.5t-59.5 20.5q-37 0 -65.5 -14.5t-46.5 -42.5t-29 -56t-21 -67l-172 -666h-403z" />
<glyph unicode="o" d="M31 348q0 134 44 269t118 231q163 205 514 205q232 0 353.5 -97t121.5 -282q0 -97 -28.5 -209t-74.5 -201q-80 -154 -212.5 -222.5t-352.5 -68.5q-245 0 -364 92.5t-119 282.5zM420 283q0 -63 28.5 -97t81.5 -34q81 0 134 90q43 72 89 241.5t46 255.5q0 67 -28.5 102.5 t-82.5 35.5q-71 0 -123 -80q-50 -80 -97.5 -250.5t-47.5 -263.5z" />
<glyph unicode="p" d="M-156 -422l375 1446h406l-33 -121q102 80 176 109.5t164 29.5q127 0 195.5 -75t68.5 -215q0 -133 -41.5 -285.5t-107.5 -265.5q-63 -106 -161.5 -162.5t-219.5 -56.5q-186 0 -275 141l-141 -545h-406zM436 274q0 -46 27.5 -73t73.5 -27q101 0 163 148q41 99 73 227.5 t32 193.5q0 52 -22.5 80.5t-63.5 28.5q-71 0 -160 -78l-90 -346q-33 -124 -33 -154z" />
<glyph unicode="q" d="M12 276q0 122 46 279.5t110 265.5q63 106 164.5 164.5t224.5 58.5q182 0 270 -122l27 102h403l-374 -1446h-404l139 537q-82 -65 -158.5 -99t-166.5 -34q-131 0 -206 80.5t-75 213.5zM408 291q0 -46 24.5 -79.5t69.5 -33.5q37 0 68 19.5t50.5 44.5t38 68.5t26.5 70.5 t20 72l86 329q-45 68 -109 68q-36 0 -71 -21t-58 -53q-48 -64 -96.5 -230.5t-48.5 -254.5z" />
<glyph unicode="r" horiz-adv-x="854" d="M-47 0l266 1024h402l-62 -225q71 123 146 182t163 59q36 0 84 -18l-82 -307q-74 39 -137 39q-99 0 -162 -66q-32 -33 -50.5 -76.5t-45.5 -142.5l-121 -469h-401z" />
<glyph unicode="s" horiz-adv-x="1046" d="M-59 225q0 26 8 80l360 -8q-2 -10 -2 -33q0 -60 35 -91.5t96 -31.5q54 0 93.5 27.5t39.5 79.5q0 35 -26.5 62t-69 47t-94 40t-103.5 45t-94.5 57t-69 82.5t-26.5 114.5q0 78 31.5 141t82 103t118.5 66.5t136.5 37.5t139.5 11q47 0 90 -3t98 -11.5t99 -26t82.5 -43 t60 -66.5t21.5 -94q0 -12 -3 -33t-4 -26l-338 8q3 21 3 41q0 47 -32.5 68.5t-82.5 21.5t-85.5 -22.5t-35.5 -69.5q0 -33 27 -58.5t70 -43.5t95.5 -36t104.5 -42t95 -55t70 -82t27 -117q0 -135 -96 -242q-135 -150 -440 -150q-49 0 -94 3t-104 11t-105.5 26t-88.5 44.5 t-65.5 69.5t-23.5 98z" />
<glyph unicode="t" horiz-adv-x="724" d="M45 211q0 51 27 162l129 493h-123l43 158h121l47 190l422 78l-70 -268h160l-41 -158h-158l-123 -469q-18 -73 -18 -112q0 -37 25.5 -56.5t72.5 -19.5q40 0 84 10l-53 -205q-136 -32 -256 -32q-139 0 -214 59.5t-75 169.5z" />
<glyph unicode="u" horiz-adv-x="1232" d="M16 197q0 58 33 194l164 633h403l-161 -627q-23 -90 -23 -139q0 -35 20.5 -55.5t59.5 -20.5q70 0 104.5 46.5t55.5 129.5l172 666h403l-266 -1024h-401l30 119q-85 -68 -167.5 -102.5t-190.5 -34.5q-105 0 -170.5 54.5t-65.5 160.5z" />
<glyph unicode="v" horiz-adv-x="1087" d="M121 1024h395l-27 -688l322 688h385l-565 -1024h-477q-31 981 -33 1024z" />
<glyph unicode="w" horiz-adv-x="1685" d="M106 0q17 975 17 1024h397l-49 -688l330 688h334l-23 -678l293 678h385l-510 -1024h-446q8 514 10 565l-289 -565h-449z" />
<glyph unicode="x" horiz-adv-x="1067" d="M-162 0l486 537l-158 487h395l62 -236l174 236h372l-448 -492l174 -532h-397l-70 256l-201 -256h-389z" />
<glyph unicode="y" horiz-adv-x="1087" d="M-205 -416l70 256q61 -12 123 -12q95 0 139.5 46t44.5 142q0 21 -1 44t-2.5 51.5t-2.5 44.5l-43 868h395q-4 -567 -18 -723l315 723h381l-553 -1030q-97 -180 -145 -245q-87 -114 -208 -154q-93 -31 -233 -31q-136 0 -262 20z" />
<glyph unicode="z" horiz-adv-x="1019" d="M-102 0l59 229l557 537h-395l65 258h885l-63 -242l-551 -522h444l-68 -260h-933z" />
<glyph unicode="{" horiz-adv-x="800" d="M14 508l35 147q96 17 140 69t77 177l62 227q19 69 36.5 113.5t45 83t61 59.5t86.5 36.5t118.5 20.5t160.5 5h186l-37 -148q-59 -13 -90.5 -21t-64.5 -22.5t-48.5 -29t-33 -42.5t-28 -61t-24.5 -86l-47 -184q-33 -133 -92 -190.5t-180 -81.5q143 -54 143 -199 q0 -46 -14 -111l-33 -137q-16 -66 -16 -115q0 -63 34.5 -97.5t137.5 -59.5l-37 -150h-166q-203 0 -290 53.5t-87 180.5q0 51 19 137l38 166q15 59 15 114q0 58 -25.5 93.5t-81.5 52.5z" />
<glyph unicode="|" horiz-adv-x="747" d="M-47 -289l446 1737h406l-451 -1737h-401z" />
<glyph unicode="}" horiz-adv-x="800" d="M-201 -289l37 148q59 13 90.5 21t64.5 22.5t48.5 29t33 42.5t28 61t24.5 86l47 184q35 134 93.5 191.5t178.5 81.5q-143 54 -143 198q0 46 14 111l33 137q17 70 17 115q0 64 -36.5 101t-135.5 56l36 150h189q188 0 271 -54t83 -180q0 -56 -18 -137l-37 -166 q-17 -83 -17 -114q0 -112 109 -146l-37 -147q-96 -17 -140 -69t-77 -177l-61 -227q-19 -69 -36.5 -113.5t-45 -83t-61 -59.5t-86.5 -36.5t-118.5 -20.5t-160.5 -5h-187z" />
<glyph unicode="~" horiz-adv-x="1482" d="M178 739q96 107 181.5 159t172.5 52q97 0 234 -82l111 -65q62 -37 90 -48.5t57 -11.5q69 0 128.5 36t180.5 151l15 -328q-118 -112 -207.5 -161.5t-173.5 -49.5q-54 0 -105 19.5t-129 70.5l-63 41q-113 72 -193 72q-63 0 -111 -29.5t-147 -128.5l-26 -26z" />
<glyph unicode="&#xa1;" horiz-adv-x="620" d="M-88 0l246 852h387l-197 -852h-436zM176 977l90 350h416l-90 -350h-416z" />
<glyph unicode="&#xa2;" horiz-adv-x="1173" d="M25 338q0 147 51.5 299t130.5 240q79 87 180.5 126.5t257.5 47.5l55 219h191l-57 -223q329 -47 329 -304q0 -40 -10 -94h-356q14 57 14 107q0 57 -32.5 86.5t-94.5 29.5q-73 0 -120 -34t-83 -119q-31 -75 -66.5 -204t-35.5 -214q0 -145 137 -145q75 0 119 39t82 141 l12 33h369q-104 -394 -541 -394l-65 -247h-191l66 249q-131 19 -201 64q-141 90 -141 297z" />
<glyph unicode="&#xa3;" horiz-adv-x="1216" d="M-117 0l68 262q119 32 177 81.5t101 168.5h-170l54 205h190l16 41q85 212 124.5 285t105.5 141q86 91 211.5 126.5t310.5 35.5q151 0 275 -31l-74 -285q-72 45 -170 45q-121 0 -196 -66.5t-124 -195.5l-37 -96h351l-54 -205h-393q-49 -95 -113 -149.5t-167 -81.5h743 l-74 -281h-1155z" />
<glyph unicode="&#xa4;" horiz-adv-x="1464" d="M61 279l179 157q-66 126 -66 254q0 100 25 176.5t86 165.5l-154 176l213 183l150 -179q124 68 262 68q100 0 181.5 -26.5t160.5 -84.5l174 156l182 -213l-176 -151q61 -136 61 -263q0 -188 -108 -340l153 -178l-215 -182l-147 180q-82 -36 -137.5 -49.5t-122.5 -13.5 q-191 0 -340 108l-180 -151zM485 694q0 -115 79.5 -194.5t195.5 -79.5q119 0 194.5 79t75.5 197t-77.5 199.5t-190.5 81.5q-118 0 -197.5 -81.5t-79.5 -201.5z" />
<glyph unicode="&#xa5;" horiz-adv-x="1314" d="M16 346l47 174h316l-23 109h-262l49 178h176l-104 520h424l68 -534l337 534h445l-379 -520h182l-51 -178h-262l-78 -109h299l-49 -174h-346l-88 -346h-436l90 346h-355z" />
<glyph unicode="&#xa6;" horiz-adv-x="747" d="M-47 -289l192 744h404l-197 -744h-399zM211 700l192 748h404l-197 -748h-399z" />
<glyph unicode="&#xa7;" horiz-adv-x="917" d="M-59 45l59 225q153 -92 283 -92q51 0 83.5 21t32.5 53q0 25 -23 49.5t-95 75.5q-133 93 -176.5 155t-43.5 142q0 94 52 161t194 156q-35 46 -49 82t-14 80q0 140 126 227.5t328 87.5q155 0 318 -51l-49 -188q-135 53 -228 53q-48 0 -76 -19t-28 -53q0 -26 23.5 -49.5 t93.5 -68.5q115 -73 159.5 -132.5t44.5 -138.5q0 -183 -243 -327q42 -59 54.5 -88.5t12.5 -77.5q0 -147 -131 -247.5t-352 -100.5q-94 0 -173.5 14.5t-182.5 50.5zM332 819q0 -36 35 -71.5t129 -98.5l127 -84q61 53 61 97q0 36 -30 70.5t-105 84.5l-148 101 q-40 -31 -54.5 -52t-14.5 -47z" />
<glyph unicode="&#xa8;" horiz-adv-x="577" d="M-74 1155l74 281h258l-72 -281h-260zM319 1155l72 281h262l-73 -281h-261z" />
<glyph unicode="&#xa9;" horiz-adv-x="1562" d="M96 727q0 200 96.5 366.5t264 262.5t368.5 96q200 0 367.5 -96t264.5 -262.5t97 -364.5q0 -152 -56.5 -288t-153.5 -234t-232.5 -155.5t-288.5 -57.5q-150 0 -284.5 57.5t-231.5 155t-154 233.5t-57 287zM190 721q0 -175 84.5 -323t230.5 -234t318 -86q128 0 245 51 t202 136.5t135.5 204.5t50.5 249q0 180 -83.5 329t-228.5 234.5t-319 85.5q-130 0 -247.5 -51t-202.5 -137t-135 -206t-50 -253zM410 567q0 85 27 194t69 195q54 107 145.5 156t239.5 49q174 0 259 -61.5t85 -188.5q0 -36 -10 -82h-269q15 54 15 82q0 84 -84 84 q-83 0 -127 -102q-22 -52 -48 -161.5t-26 -174.5q0 -58 22.5 -85.5t69.5 -27.5q52 0 82 34.5t49 113.5h281q-58 -307 -424 -307q-175 0 -265.5 72t-90.5 210z" />
<glyph unicode="&#xaa;" horiz-adv-x="811" d="M137 891q0 75 42 135t112 90q71 30 133.5 41.5t200.5 20.5l10 34q12 40 12 74q0 47 -53 47q-38 0 -62.5 -27t-37.5 -85h-273q50 241 387 241q148 0 227.5 -48.5t79.5 -139.5q0 -52 -34 -180l-66 -248q-6 -21 -6 -37q0 -18 7.5 -29.5t27.5 -27.5l10 -9h-262q-64 0 -64 48 q0 20 2 32q-83 -96 -217 -96q-83 0 -129.5 43.5t-46.5 120.5zM412 938q0 -66 59 -66q23 0 41.5 11t30.5 26.5t23 45t17 53t15 65.5q-97 -9 -141.5 -41.5t-44.5 -93.5z" />
<glyph unicode="&#xab;" horiz-adv-x="1153" d="M37 530l332 414h336l-345 -414l140 -411h-332zM549 530l332 414h336l-345 -414l140 -411h-332z" />
<glyph unicode="&#xac;" horiz-adv-x="1482" d="M119 522l74 293h1157l-189 -760h-393l117 467h-766z" />
<glyph unicode="&#xad;" horiz-adv-x="917" d="M18 375l80 309h785l-80 -309h-785z" />
<glyph unicode="&#xae;" horiz-adv-x="1562" d="M96 727q0 200 96.5 366.5t264 262.5t368.5 96q200 0 367.5 -96t264.5 -262.5t97 -364.5q0 -152 -56.5 -288t-153.5 -234t-232.5 -155.5t-288.5 -57.5q-150 0 -284.5 57.5t-231.5 155t-154 233.5t-57 287zM190 721q0 -175 84.5 -323t230.5 -234t318 -86q128 0 245 51 t202 136.5t135.5 204.5t50.5 249q0 180 -83.5 329t-228.5 234.5t-319 85.5q-130 0 -247.5 -51t-202.5 -137t-135 -206t-50 -253zM416 307l213 846h342q134 0 199 -47t65 -152q0 -100 -55.5 -159.5t-161.5 -71.5q58 -13 84 -54.5t26 -119.5q0 -22 -2 -84.5t-2 -93.5 q0 -39 17 -64h-258q-19 22 -19 53q0 27 5 98t5 83q0 53 -18.5 73.5t-69.5 20.5h-36l-82 -328h-252zM788 791h35q84 0 120 31.5t36 99.5q0 41 -21.5 59t-70.5 18h-45z" />
<glyph unicode="&#xaf;" horiz-adv-x="577" d="M-88 1188l55 207h699l-54 -207h-700z" />
<glyph unicode="&#xb0;" horiz-adv-x="724" d="M102 1186q0 146 103.5 249t249.5 103q145 0 249.5 -103.5t104.5 -248.5q0 -148 -103 -250t-251 -102q-146 0 -249.5 103t-103.5 249zM326 1184q0 -54 37.5 -91.5t91.5 -37.5t92.5 38.5t38.5 92.5t-38.5 92.5t-92.5 38.5t-91.5 -38.5t-37.5 -94.5z" />
<glyph unicode="&#xb1;" horiz-adv-x="1482" d="M47 0l80 309h1104l-78 -309h-1106zM244 780l69 283h361l90 362h391l-90 -362h356l-71 -283h-357l-94 -372h-391l92 372h-356z" />
<glyph unicode="&#xb2;" horiz-adv-x="894" d="M51 422l43 164l352 266q124 94 166.5 148.5t42.5 111.5q0 34 -20.5 54t-56.5 20q-49 0 -83.5 -37.5t-52.5 -142.5h-284q17 96 59 165q48 79 151 123.5t244 44.5q160 0 249 -61t89 -170q0 -96 -59.5 -168t-233.5 -190l-188 -127l385 6l-53 -207h-750z" />
<glyph unicode="&#xb3;" horiz-adv-x="894" d="M57 623q0 35 15 90h278q-10 -41 -10 -68q0 -86 84 -86q62 0 95.5 46t33.5 116q0 53 -36 76.5t-114 23.5h-47l39 144h51q96 0 145.5 44t49.5 113q0 37 -19 57.5t-53 20.5q-47 0 -74 -31.5t-46 -107.5h-281q23 136 132 207t292 71q156 0 242 -55.5t86 -155.5 q0 -188 -261 -231q97 -20 143 -64.5t46 -117.5q0 -138 -120 -221.5t-318 -83.5q-353 0 -353 213z" />
<glyph unicode="&#xb4;" horiz-adv-x="577" d="M-39 1137l256 315h399l-366 -315h-289z" />
<glyph unicode="&#xb5;" d="M-162 -422l373 1446h401l-153 -600q-2 -8 -12 -43t-14.5 -57.5t-4.5 -44.5q0 -39 24 -59.5t64 -20.5q34 0 61 12t43.5 27.5t30.5 45t20.5 50.5t16.5 57l166 633h401l-266 -1024h-401l26 98q-57 -98 -145 -98q-42 0 -70.5 20.5t-31.5 61.5l-127 -504h-402z" />
<glyph unicode="&#xb6;" horiz-adv-x="1306" d="M203 -342l237 952q-221 87 -221 338q0 120 58 226t159 174q77 53 167 75.5t231 22.5h493l-45 -180h-72l-403 -1608h-191l404 1608h-221l-404 -1608h-192z" />
<glyph unicode="&#xb7;" horiz-adv-x="555" d="M16 350l90 350h418l-90 -350h-418z" />
<glyph unicode="&#xb8;" horiz-adv-x="577" d="M45 -535l41 158q58 -6 111 -6q139 0 139 76q0 35 -29.5 50t-97.5 15h-64l99 262h92l-43 -116q77 -5 121 -19q57 -17 86.5 -60.5t29.5 -107.5q0 -57 -25 -109t-69 -87q-82 -64 -256 -64q-39 0 -135 8z" />
<glyph unicode="&#xb9;" horiz-adv-x="894" d="M266 1098l45 174q154 12 258 28t260 52l-237 -930h-295l172 676h-203z" />
<glyph unicode="&#xba;" horiz-adv-x="854" d="M174 995q0 109 45 217t115 166q106 86 289 86q331 0 331 -254q0 -91 -39 -206q-49 -148 -145.5 -212.5t-265.5 -64.5q-171 0 -250.5 64.5t-79.5 203.5zM442 940q0 -86 72 -86q38 0 64.5 26t46.5 85q26 73 45.5 158.5t19.5 129.5q0 42 -16 64t-56 22q-47 0 -77 -43 q-34 -46 -66.5 -165t-32.5 -191z" />
<glyph unicode="&#xbb;" horiz-adv-x="1153" d="M-84 119l344 413l-139 412h332l131 -412l-332 -413h-336zM428 119l344 413l-137 412h330l131 -412l-332 -413h-336z" />
<glyph unicode="&#xbc;" horiz-adv-x="2045" d="M248 1098l45 174q154 12 258 28t260 52l-238 -930h-294l172 676h-203zM432 0l871 1327h161l-864 -1327h-168zM1018 162l41 164q235 302 432 579h287q-189 -248 -443 -551h178l66 234l246 14l-64 -248h99l-52 -192h-96l-43 -162h-260l41 162h-432z" />
<glyph unicode="&#xbd;" horiz-adv-x="2045" d="M207 1098l45 174q154 12 258 28t260 52l-238 -930h-294l172 676h-203zM397 0l871 1327h162l-865 -1327h-168zM1008 0l43 164l352 266q124 94 166.5 148.5t42.5 111.5q0 34 -21 54t-57 20q-49 0 -82.5 -37t-52.5 -143h-285q17 95 60 166q48 79 151 123.5t244 44.5 q159 0 248.5 -61.5t89.5 -170.5q0 -96 -59.5 -168t-233.5 -190l-189 -127l385 6l-53 -207h-749z" />
<glyph unicode="&#xbe;" horiz-adv-x="2045" d="M96 623q0 35 15 90h278q-10 -41 -10 -68q0 -86 84 -86q62 0 95.5 46t33.5 116q0 53 -36 76.5t-114 23.5h-47l39 144h51q96 0 145.5 44t49.5 113q0 37 -19 57.5t-53 20.5q-47 0 -74.5 -32t-46.5 -107h-280q23 136 132 207t292 71q156 0 241.5 -55.5t85.5 -155.5 q0 -188 -260 -231q97 -20 143 -64.5t46 -117.5q0 -138 -120 -221.5t-318 -83.5q-353 0 -353 213zM586 0l870 1327h162l-864 -1327h-168zM1102 162l41 164q235 302 432 579h287q-189 -248 -443 -551h178l66 234l246 14l-64 -248h99l-52 -192h-96l-43 -162h-260l41 162h-432z " />
<glyph unicode="&#xbf;" horiz-adv-x="1153" d="M-4 305q0 175 139 288.5t387 141.5l27 111h395l-67 -273h-19q-156 0 -244 -28q-86 -26 -140 -94.5t-54 -151.5q0 -59 30 -92t82 -33q64 0 97 47.5t61 179.5h408q-43 -225 -181 -322t-417 -97q-504 0 -504 323zM563 979l90 348h418l-90 -348h-418z" />
<glyph unicode="&#xc0;" horiz-adv-x="1452" d="M-147 0l792 1446h653q5 -1387 7 -1446h-445q4 393 4 436h-352l-225 -436h-434zM637 688h237q7 202 13 475zM684 1862h383l94 -316h-282z" />
<glyph unicode="&#xc1;" horiz-adv-x="1452" d="M-147 0l792 1446h653q5 -1387 7 -1446h-445q4 393 4 436h-352l-225 -436h-434zM637 688h237q7 202 13 475zM786 1546l256 316h400l-367 -316h-289z" />
<glyph unicode="&#xc2;" horiz-adv-x="1452" d="M-147 0l792 1446h653q5 -1387 7 -1446h-445q4 393 4 436h-352l-225 -436h-434zM637 688h237q7 202 13 475zM649 1548l262 312h310l106 -312h-240l-49 185l-153 -185h-236z" />
<glyph unicode="&#xc3;" horiz-adv-x="1452" d="M-147 0l792 1446h653q5 -1387 7 -1446h-445q4 393 4 436h-352l-225 -436h-434zM637 688h237q7 202 13 475zM637 1554l6 25q34 142 57 189q49 97 150 98q47 0 96 -21t81 -46.5t63 -46.5t47 -21q20 0 31 21t26 87l4 16h203q-33 -166 -77.5 -238.5t-133.5 -72.5 q-46 0 -94.5 21t-81.5 45.5t-65 45.5t-48 21q-23 0 -36.5 -25.5t-26.5 -97.5h-201z" />
<glyph unicode="&#xc4;" horiz-adv-x="1452" d="M-147 0l792 1446h653q5 -1387 7 -1446h-445q4 393 4 436h-352l-225 -436h-434zM637 688h237q7 202 13 475zM662 1565l73 280h258l-71 -280h-260zM1055 1565l71 280h263l-74 -280h-260z" />
<glyph unicode="&#xc5;" horiz-adv-x="1452" d="M-147 0l792 1446h653q5 -1387 7 -1446h-445q4 393 4 436h-352l-225 -436h-434zM637 688h237q7 202 13 475zM778 1714q0 89 60 149t149 60q86 0 143.5 -57.5t57.5 -143.5q0 -91 -59 -150t-148 -59q-88 0 -145.5 57.5t-57.5 143.5zM903 1718q0 -35 23 -59.5t57 -24.5 q35 0 58.5 24.5t23.5 59.5t-23 58.5t-57 23.5q-35 0 -58.5 -23.5t-23.5 -58.5z" />
<glyph unicode="&#xc6;" horiz-adv-x="1878" d="M-145 0l837 1446h1342l-70 -266h-518l-76 -297h483l-69 -267h-484l-90 -348h564l-70 -268h-987l121 469h-277l-266 -469h-440zM690 721h213l119 459h-80z" />
<glyph unicode="&#xc7;" horiz-adv-x="1449" d="M76 420q0 152 58.5 370.5t139.5 368.5q91 169 244 246.5t400 77.5q575 0 575 -389q0 -36 -12 -109h-445q19 86 19 125q0 71 -39 110.5t-109 39.5q-115 0 -187 -110.5t-145 -391.5q-69 -264 -69 -381q0 -87 44 -134.5t122 -47.5q50 0 89 19.5t69 59.5t51 87.5t43 115.5 h446q-2 -7 -7 -26t-6 -23.5t-5 -18.5t-5.5 -18t-4.5 -14.5t-5 -15.5t-5.5 -13.5t-7 -16t-7.5 -16.5q-76 -172 -239 -260t-402 -88q-58 0 -105 4l-24 -65q120 -8 178.5 -51.5t58.5 -135.5q0 -118 -86 -189t-264 -71q-44 0 -108 6l-27 3l41 157q58 -6 111 -6q139 0 139 76 q0 35 -29.5 50t-97.5 15h-64l82 222q-197 34 -301 146t-104 292z" />
<glyph unicode="&#xc8;" horiz-adv-x="1130" d="M-31 0l375 1446h944l-69 -266h-498l-78 -297h465l-70 -267h-463l-92 -350h543l-68 -266h-989zM522 1862h383l94 -316h-282z" />
<glyph unicode="&#xc9;" horiz-adv-x="1130" d="M-31 0l375 1446h944l-69 -266h-498l-78 -297h465l-70 -267h-463l-92 -350h543l-68 -266h-989zM637 1546l256 316h399l-366 -316h-289z" />
<glyph unicode="&#xca;" horiz-adv-x="1130" d="M-31 0l375 1446h944l-69 -266h-498l-78 -297h465l-70 -267h-463l-92 -350h543l-68 -266h-989zM479 1548l262 312h310l106 -312h-239l-50 185l-153 -185h-236z" />
<glyph unicode="&#xcb;" horiz-adv-x="1130" d="M-31 0l375 1446h944l-69 -266h-498l-78 -297h465l-70 -267h-463l-92 -350h543l-68 -266h-989zM500 1565l73 280h258l-71 -280h-260zM893 1565l72 280h262l-74 -280h-260z" />
<glyph unicode="&#xcc;" horiz-adv-x="684" d="M-31 0l375 1446h455l-375 -1446h-455zM299 1862h383l94 -316h-282z" />
<glyph unicode="&#xcd;" horiz-adv-x="684" d="M-31 0l375 1446h455l-375 -1446h-455zM412 1546l256 316h399l-367 -316h-288z" />
<glyph unicode="&#xce;" horiz-adv-x="684" d="M-31 0l375 1446h455l-375 -1446h-455zM256 1548l262 312h309l107 -312h-240l-49 185l-153 -185h-236z" />
<glyph unicode="&#xcf;" horiz-adv-x="684" d="M-31 0l375 1446h455l-375 -1446h-455zM274 1565l74 280h258l-71 -280h-261zM668 1565l71 280h262l-73 -280h-260z" />
<glyph unicode="&#xd0;" horiz-adv-x="1515" d="M-29 0l170 657h-108l55 222h111l145 567h487q334 0 469 -53q101 -40 158.5 -141.5t57.5 -239.5q0 -83 -18 -201.5t-46 -216.5q-32 -111 -76.5 -199.5t-93 -150t-110.5 -106.5t-121 -71t-133.5 -41.5t-139 -20.5t-145.5 -5h-662zM477 215h70q136 0 206 23.5t113 83.5 q75 104 143 336t68 372q0 112 -55 156.5t-193 44.5h-90l-90 -352h244l-57 -222h-244z" />
<glyph unicode="&#xd1;" horiz-adv-x="1515" d="M-31 0l379 1446h520l160 -901l209 901h393l-375 -1446h-510l-155 895l-223 -895h-398zM672 1554l6 25q34 142 57 189q49 97 150 98q47 0 95.5 -21t80.5 -46.5t63 -46.5t47 -21q20 0 31.5 21.5t26.5 86.5l4 16h203q-33 -166 -77.5 -238.5t-133.5 -72.5q-46 0 -94.5 21 t-81.5 45.5t-65 45.5t-48 21q-23 0 -37 -26t-27 -97h-200z" />
<glyph unicode="&#xd2;" horiz-adv-x="1536" d="M80 455q0 156 51 356q91 360 266.5 514t503.5 154q314 0 474.5 -126t160.5 -372q0 -139 -55 -345t-127 -343q-87 -166 -245.5 -246t-406.5 -80q-302 0 -462 126t-160 362zM516 385q0 -87 47.5 -137.5t134.5 -50.5q48 0 88.5 18.5t69 47t53 71.5t40 81.5t30.5 88.5 q121 403 121 565q0 87 -46.5 134.5t-133.5 47.5q-136 0 -211 -127q-60 -102 -126.5 -359.5t-66.5 -379.5zM684 1862h383l94 -316h-282z" />
<glyph unicode="&#xd3;" horiz-adv-x="1536" d="M80 455q0 156 51 356q91 360 266.5 514t503.5 154q314 0 474.5 -126t160.5 -372q0 -139 -55 -345t-127 -343q-87 -166 -245.5 -246t-406.5 -80q-302 0 -462 126t-160 362zM516 385q0 -87 47.5 -137.5t134.5 -50.5q48 0 88.5 18.5t69 47t53 71.5t40 81.5t30.5 88.5 q121 403 121 565q0 87 -46.5 134.5t-133.5 47.5q-136 0 -211 -127q-60 -102 -126.5 -359.5t-66.5 -379.5zM793 1546l256 316h399l-367 -316h-288z" />
<glyph unicode="&#xd4;" horiz-adv-x="1536" d="M80 455q0 156 51 356q91 360 266.5 514t503.5 154q314 0 474.5 -126t160.5 -372q0 -139 -55 -345t-127 -343q-87 -166 -245.5 -246t-406.5 -80q-302 0 -462 126t-160 362zM516 385q0 -87 47.5 -137.5t134.5 -50.5q48 0 88.5 18.5t69 47t53 71.5t40 81.5t30.5 88.5 q121 403 121 565q0 87 -46.5 134.5t-133.5 47.5q-136 0 -211 -127q-60 -102 -126.5 -359.5t-66.5 -379.5zM641 1548l262 312h309l107 -312h-240l-49 185l-153 -185h-236z" />
<glyph unicode="&#xd5;" horiz-adv-x="1536" d="M80 455q0 156 51 356q91 360 266.5 514t503.5 154q314 0 474.5 -126t160.5 -372q0 -139 -55 -345t-127 -343q-87 -166 -245.5 -246t-406.5 -80q-302 0 -462 126t-160 362zM516 385q0 -87 47.5 -137.5t134.5 -50.5q48 0 88.5 18.5t69 47t53 71.5t40 81.5t30.5 88.5 q121 403 121 565q0 87 -46.5 134.5t-133.5 47.5q-136 0 -211 -127q-60 -102 -126.5 -359.5t-66.5 -379.5zM657 1554l7 25q33 141 55 187q54 97 151 100q47 0 96 -21t81 -46.5t63 -46.5t47 -21q20 0 31 21t26 87l5 16h202q-33 -166 -77.5 -238.5t-133.5 -72.5q-46 0 -94.5 21 t-81 45.5t-64.5 45.5t-48 21q-23 0 -37 -26t-27 -97h-201z" />
<glyph unicode="&#xd6;" horiz-adv-x="1536" d="M80 455q0 156 51 356q91 360 266.5 514t503.5 154q314 0 474.5 -126t160.5 -372q0 -139 -55 -345t-127 -343q-87 -166 -245.5 -246t-406.5 -80q-302 0 -462 126t-160 362zM516 385q0 -87 47.5 -137.5t134.5 -50.5q48 0 88.5 18.5t69 47t53 71.5t40 81.5t30.5 88.5 q121 403 121 565q0 87 -46.5 134.5t-133.5 47.5q-136 0 -211 -127q-60 -102 -126.5 -359.5t-66.5 -379.5zM649 1565l74 280h258l-72 -280h-260zM1042 1565l72 280h262l-73 -280h-261z" />
<glyph unicode="&#xd7;" horiz-adv-x="1482" d="M207 414l307 250l-231 286l301 244l231 -287l311 250l177 -217l-310 -252l236 -291l-301 -243l-236 290l-307 -249z" />
<glyph unicode="&#xd8;" horiz-adv-x="1536" d="M-2 0l166 166q-46 67 -65 133.5t-19 157.5q0 132 42.5 316.5t104.5 326.5q164 377 666 377q144 0 248 -27t196 -90l158 162l78 -78l-150 -156q111 -120 111 -299q0 -150 -59 -381q-50 -196 -117 -321q-87 -159 -242 -238.5t-416 -79.5q-152 0 -259.5 29.5t-196.5 95.5 l-164 -170zM502 350q9 -83 57 -126.5t133 -43.5q84 0 140.5 41t97.5 133q97 211 160 564l8 45zM512 512l592 608q-12 65 -61 103.5t-119 38.5q-106 0 -181 -78q-65 -69 -129.5 -257.5t-101.5 -414.5z" />
<glyph unicode="&#xd9;" horiz-adv-x="1472" d="M74 348q0 80 30 197l232 901h455l-211 -817q-3 -14 -21 -75.5t-25.5 -102t-7.5 -80.5q0 -70 40 -109t110 -39q31 0 57.5 7.5t47.5 24t37.5 34.5t30.5 47t24 52t20 59t16 60t15 62t14 58l211 819h446l-235 -916q-51 -196 -100 -284q-47 -82 -114.5 -139t-150.5 -86.5 t-166 -41.5t-182 -12q-86 0 -159.5 8.5t-152.5 33.5t-134.5 65.5t-91 110.5t-35.5 163zM694 1862h383l94 -316h-282z" />
<glyph unicode="&#xda;" horiz-adv-x="1472" d="M74 348q0 80 30 197l232 901h455l-211 -817q-3 -14 -21 -75.5t-25.5 -102t-7.5 -80.5q0 -70 40 -109t110 -39q31 0 57.5 7.5t47.5 24t37.5 34.5t30.5 47t24 52t20 59t16 60t15 62t14 58l211 819h446l-235 -916q-51 -196 -100 -284q-47 -82 -114.5 -139t-150.5 -86.5 t-166 -41.5t-182 -12q-86 0 -159.5 8.5t-152.5 33.5t-134.5 65.5t-91 110.5t-35.5 163zM807 1546l256 316h399l-366 -316h-289z" />
<glyph unicode="&#xdb;" horiz-adv-x="1472" d="M74 348q0 80 30 197l232 901h455l-211 -817q-3 -14 -21 -75.5t-25.5 -102t-7.5 -80.5q0 -70 40 -109t110 -39q31 0 57.5 7.5t47.5 24t37.5 34.5t30.5 47t24 52t20 59t16 60t15 62t14 58l211 819h446l-235 -916q-51 -196 -100 -284q-47 -82 -114.5 -139t-150.5 -86.5 t-166 -41.5t-182 -12q-86 0 -159.5 8.5t-152.5 33.5t-134.5 65.5t-91 110.5t-35.5 163zM651 1548l262 312h310l106 -312h-239l-50 185l-153 -185h-236z" />
<glyph unicode="&#xdc;" horiz-adv-x="1472" d="M74 348q0 80 30 197l232 901h455l-211 -817q-3 -14 -21 -75.5t-25.5 -102t-7.5 -80.5q0 -70 40 -109t110 -39q31 0 57.5 7.5t47.5 24t37.5 34.5t30.5 47t24 52t20 59t16 60t15 62t14 58l211 819h446l-235 -916q-51 -196 -100 -284q-47 -82 -114.5 -139t-150.5 -86.5 t-166 -41.5t-182 -12q-86 0 -159.5 8.5t-152.5 33.5t-134.5 65.5t-91 110.5t-35.5 163zM657 1565l74 280h258l-71 -280h-261zM1051 1565l71 280h262l-73 -280h-260z" />
<glyph unicode="&#xdd;" horiz-adv-x="1323" d="M211 1446h448l82 -567l367 567h459l-715 -965l-123 -481h-453l125 481zM731 1546l256 316h399l-366 -316h-289z" />
<glyph unicode="&#xde;" horiz-adv-x="1345" d="M-31 0l375 1446h455l-62 -234h142q250 0 360 -61q72 -41 112 -111.5t40 -156.5q0 -136 -60.5 -275.5t-152.5 -214.5q-77 -63 -183 -88.5t-293 -25.5h-206l-72 -279h-455zM553 494h65q133 0 191 38q57 37 97 127t40 181q0 86 -45 120.5t-158 34.5h-63z" />
<glyph unicode="&#xdf;" horiz-adv-x="1429" d="M-45 0l207 827q43 173 83 265.5t99 154.5q95 101 244.5 159t316.5 58q230 0 353.5 -77t123.5 -222q0 -71 -47 -186q-31 4 -65 4q-97 0 -151 -29.5t-54 -83.5q0 -35 24.5 -68t86.5 -85q101 -82 142.5 -150.5t41.5 -154.5q0 -190 -132.5 -310t-365.5 -120q-368 0 -368 260 q0 44 12 96h319q-10 -36 -10 -70q0 -37 24 -60.5t62 -23.5q40 0 68 30.5t28 74.5q0 39 -26.5 71.5t-110.5 98.5q-100 78 -143 136t-43 136q0 103 68.5 175.5t203.5 107.5q31 82 31 143t-35.5 97t-97.5 36q-60 0 -97.5 -21.5t-73.5 -90t-69 -199.5l-248 -979h-401z" />
<glyph unicode="&#xe0;" horiz-adv-x="1173" d="M-23 209q0 83 38 163.5t100 127.5q82 63 215 91.5t366 39.5q35 135 35 164q0 37 -23.5 57t-64.5 20q-57 0 -90.5 -37t-58.5 -128h-392q26 89 55 139t76 88q70 57 181 88t245 31q213 0 335 -75t122 -206q0 -64 -20 -139l-119 -455q-16 -69 -16 -92q0 -28 10.5 -46 t38.5 -40h-365q-51 0 -71.5 16t-20.5 54q0 18 8 59q-57 -75 -141 -113.5t-178 -38.5q-121 0 -193 63t-72 169zM371 283q0 -46 26.5 -73.5t73.5 -27.5q114 0 150 154l36 147q-137 0 -211.5 -55.5t-74.5 -144.5zM420 1452h383l94 -315h-283z" />
<glyph unicode="&#xe1;" horiz-adv-x="1173" d="M-23 209q0 83 38 163.5t100 127.5q82 63 215 91.5t366 39.5q35 135 35 164q0 37 -23.5 57t-64.5 20q-57 0 -90.5 -37t-58.5 -128h-392q26 89 55 139t76 88q70 57 181 88t245 31q213 0 335 -75t122 -206q0 -64 -20 -139l-119 -455q-16 -69 -16 -92q0 -28 10.5 -46 t38.5 -40h-365q-51 0 -71.5 16t-20.5 54q0 18 8 59q-57 -75 -141 -113.5t-178 -38.5q-121 0 -193 63t-72 169zM371 283q0 -46 26.5 -73.5t73.5 -27.5q114 0 150 154l36 147q-137 0 -211.5 -55.5t-74.5 -144.5zM512 1137l256 315h399l-366 -315h-289z" />
<glyph unicode="&#xe2;" horiz-adv-x="1173" d="M-23 209q0 83 38 163.5t100 127.5q82 63 215 91.5t366 39.5q35 135 35 164q0 37 -23.5 57t-64.5 20q-57 0 -90.5 -37t-58.5 -128h-392q26 89 55 139t76 88q70 57 181 88t245 31q213 0 335 -75t122 -206q0 -64 -20 -139l-119 -455q-16 -69 -16 -92q0 -28 10.5 -46 t38.5 -40h-365q-51 0 -71.5 16t-20.5 54q0 18 8 59q-57 -75 -141 -113.5t-178 -38.5q-121 0 -193 63t-72 169zM371 283q0 -46 26.5 -73.5t73.5 -27.5q114 0 150 154l36 147q-137 0 -211.5 -55.5t-74.5 -144.5zM373 1139l262 311h309l109 -311h-240l-51 184l-152 -184h-237z " />
<glyph unicode="&#xe3;" horiz-adv-x="1173" d="M-23 209q0 83 38 163.5t100 127.5q82 63 215 91.5t366 39.5q35 135 35 164q0 37 -23.5 57t-64.5 20q-57 0 -90.5 -37t-58.5 -128h-392q26 89 55 139t76 88q70 57 181 88t245 31q213 0 335 -75t122 -206q0 -64 -20 -139l-119 -455q-16 -69 -16 -92q0 -28 10.5 -46 t38.5 -40h-365q-51 0 -71.5 16t-20.5 54q0 18 8 59q-57 -75 -141 -113.5t-178 -38.5q-121 0 -193 63t-72 169zM324 1143l6 24q34 142 57 189q49 97 150 98q47 0 95.5 -21t80.5 -46.5t63 -46.5t47 -21q20 0 31.5 21.5t26.5 86.5l4 17h202q-33 -166 -77 -238.5t-133 -72.5 q-46 0 -94.5 21t-81.5 45.5t-65 45.5t-48 21q-23 0 -37 -26t-27 -97h-200zM371 283q0 -46 26.5 -73.5t73.5 -27.5q114 0 150 154l36 147q-137 0 -211.5 -55.5t-74.5 -144.5z" />
<glyph unicode="&#xe4;" horiz-adv-x="1173" d="M-23 209q0 83 38 163.5t100 127.5q82 63 215 91.5t366 39.5q35 135 35 164q0 37 -23.5 57t-64.5 20q-57 0 -90.5 -37t-58.5 -128h-392q26 89 55 139t76 88q70 57 181 88t245 31q213 0 335 -75t122 -206q0 -64 -20 -139l-119 -455q-16 -69 -16 -92q0 -28 10.5 -46 t38.5 -40h-365q-51 0 -71.5 16t-20.5 54q0 18 8 59q-57 -75 -141 -113.5t-178 -38.5q-121 0 -193 63t-72 169zM371 283q0 -46 26.5 -73.5t73.5 -27.5q114 0 150 154l36 147q-137 0 -211.5 -55.5t-74.5 -144.5zM375 1155l74 281h258l-72 -281h-260zM768 1155l72 281h262 l-74 -281h-260z" />
<glyph unicode="&#xe5;" horiz-adv-x="1173" d="M-23 209q0 83 38 163.5t100 127.5q82 63 215 91.5t366 39.5q35 135 35 164q0 37 -23.5 57t-64.5 20q-57 0 -90.5 -37t-58.5 -128h-392q26 89 55 139t76 88q70 57 181 88t245 31q213 0 335 -75t122 -206q0 -64 -20 -139l-119 -455q-16 -69 -16 -92q0 -28 10.5 -46 t38.5 -40h-365q-51 0 -71.5 16t-20.5 54q0 18 8 59q-57 -75 -141 -113.5t-178 -38.5q-121 0 -193 63t-72 169zM371 283q0 -46 26.5 -73.5t73.5 -27.5q114 0 150 154l36 147q-137 0 -211.5 -55.5t-74.5 -144.5zM514 1319q0 89 60 149t149 60q86 0 143.5 -56t57.5 -141 q0 -92 -58.5 -151.5t-150.5 -59.5q-88 0 -144.5 56.5t-56.5 142.5zM637 1323q0 -37 22.5 -59.5t57.5 -22.5t59.5 24.5t24.5 61.5q0 34 -23 57t-57 23q-35 0 -59.5 -24.5t-24.5 -59.5z" />
<glyph unicode="&#xe6;" horiz-adv-x="1792" d="M-20 217q0 91 45 172.5t122 132.5q36 24 85 42t91.5 28t104.5 17.5t100.5 10t104 6t90.5 5.5l14 57q19 78 19 107q0 41 -26 62.5t-68 21.5q-70 0 -105 -41t-57 -119h-389q17 60 33.5 95t50.5 75q146 164 487 164q107 0 184.5 -20.5t145.5 -78.5q150 99 336 99 q86 0 156.5 -17.5t126.5 -55t87 -103t31 -154.5q0 -93 -43 -250h-686q-1 -6 -11 -45.5t-13 -53t-7 -42t-4 -51.5q0 -63 32.5 -98.5t94.5 -35.5q34 0 61.5 11t44.5 26t33 43.5t23.5 49t19.5 57.5h387q-23 -70 -43 -109.5t-61 -83.5q-156 -168 -508 -168q-141 0 -241 31 t-177 121q-92 -75 -182 -112.5t-199 -37.5q-125 0 -207.5 61t-82.5 181zM369 270q0 -49 30 -77.5t80 -28.5q28 0 52 9.5t41 23.5t32.5 37.5t24.5 43.5t19 51.5t14.5 51t11.5 51.5t10 45h-20q-76 0 -140 -19.5t-109.5 -68t-45.5 -119.5zM1061 631h295q26 87 26 143 q0 48 -27 77.5t-75 29.5q-32 0 -59.5 -10.5t-49 -32t-37.5 -42.5t-31 -54.5t-22.5 -55t-19.5 -55.5z" />
<glyph unicode="&#xe7;" horiz-adv-x="1200" d="M31 322q0 135 45 274q75 250 222 353.5t409 103.5q223 0 346 -81t123 -229q0 -20 -5 -59h-383q9 65 9 78q0 58 -28 89.5t-79 31.5q-68 0 -119 -60q-58 -75 -106 -243q-55 -187 -55 -299q0 -63 30 -98.5t84 -35.5q63 0 106 45.5t75 145.5h389q-51 -188 -193.5 -277.5 t-392.5 -89.5q-39 0 -66 2l-24 -69q102 0 169.5 -46t67.5 -141q0 -57 -25.5 -109.5t-68.5 -86.5q-82 -64 -256 -64q-42 0 -135 8l41 158q56 -6 111 -6q139 0 139 76q0 34 -29 49.5t-92 15.5h-70l82 226q-321 52 -321 338z" />
<glyph unicode="&#xe8;" horiz-adv-x="1216" d="M25 311q0 87 24 195q47 217 137 340q155 207 502 207q486 0 486 -355q0 -48 -7.5 -91t-29.5 -132h-705q-33 -121 -33 -194q0 -63 33 -97t94 -34q86 0 133 59q36 41 58 125h389q-28 -71 -45.5 -104t-46.5 -68q-157 -189 -522 -189q-467 0 -467 338zM442 1452h383l95 -315 h-283zM477 633h303q23 82 23 127q0 56 -31 87.5t-86 31.5q-80 0 -127 -60q-29 -37 -44 -70.5t-38 -115.5z" />
<glyph unicode="&#xe9;" horiz-adv-x="1216" d="M25 311q0 87 24 195q47 217 137 340q155 207 502 207q486 0 486 -355q0 -48 -7.5 -91t-29.5 -132h-705q-33 -121 -33 -194q0 -63 33 -97t94 -34q86 0 133 59q36 41 58 125h389q-28 -71 -45.5 -104t-46.5 -68q-157 -189 -522 -189q-467 0 -467 338zM477 633h303 q23 82 23 127q0 56 -31 87.5t-86 31.5q-80 0 -127 -60q-29 -37 -44 -70.5t-38 -115.5zM541 1137l256 315h399l-367 -315h-288z" />
<glyph unicode="&#xea;" horiz-adv-x="1216" d="M25 311q0 87 24 195q47 217 137 340q155 207 502 207q486 0 486 -355q0 -48 -7.5 -91t-29.5 -132h-705q-33 -121 -33 -194q0 -63 33 -97t94 -34q86 0 133 59q36 41 58 125h389q-28 -71 -45.5 -104t-46.5 -68q-157 -189 -522 -189q-467 0 -467 338zM397 1139l262 311h310 l108 -311h-239l-52 184l-151 -184h-238zM477 633h303q23 82 23 127q0 56 -31 87.5t-86 31.5q-80 0 -127 -60q-29 -37 -44 -70.5t-38 -115.5z" />
<glyph unicode="&#xeb;" horiz-adv-x="1216" d="M25 311q0 87 24 195q47 217 137 340q155 207 502 207q486 0 486 -355q0 -48 -7.5 -91t-29.5 -132h-705q-33 -121 -33 -194q0 -63 33 -97t94 -34q86 0 133 59q36 41 58 125h389q-28 -71 -45.5 -104t-46.5 -68q-157 -189 -522 -189q-467 0 -467 338zM414 1155l73 281h258 l-71 -281h-260zM477 633h303q23 82 23 127q0 56 -31 87.5t-86 31.5q-80 0 -127 -60q-29 -37 -44 -70.5t-38 -115.5zM807 1155l72 281h262l-74 -281h-260z" />
<glyph unicode="&#xec;" horiz-adv-x="598" d="M-47 0l264 1024h404l-265 -1024h-403zM131 1452h383l94 -315h-282z" />
<glyph unicode="&#xed;" horiz-adv-x="598" d="M-47 0l264 1024h404l-265 -1024h-403zM264 1137l256 315h400l-367 -315h-289z" />
<glyph unicode="&#xee;" horiz-adv-x="598" d="M-47 0l264 1024h404l-265 -1024h-403zM94 1139l262 311h310l108 -311h-239l-52 184l-151 -184h-238z" />
<glyph unicode="&#xef;" horiz-adv-x="598" d="M-47 0l264 1024h404l-265 -1024h-403zM125 1155l74 281h258l-72 -281h-260zM518 1155l72 281h262l-74 -281h-260z" />
<glyph unicode="&#xf0;" d="M31 360q0 148 50.5 287t139.5 236q154 168 441 168q42 0 106 -9q-16 67 -51 121h-320l-37 131h273q-54 80 -137 152h370q80 -77 129 -152h191l39 -131h-152q60 -118 85.5 -225.5t25.5 -235.5q0 -182 -61.5 -341t-164.5 -250q-160 -138 -456 -138q-471 0 -471 387z M420 283q0 -62 28.5 -96.5t79.5 -34.5q83 0 136 90q44 73 89.5 246.5t45.5 248.5q0 66 -28.5 101.5t-82.5 35.5q-77 0 -127 -81q-47 -79 -94 -249.5t-47 -260.5z" />
<glyph unicode="&#xf1;" horiz-adv-x="1228" d="M-47 0l266 1024h402l-31 -119q177 137 360 137q106 0 171 -51.5t65 -154.5q0 -59 -33 -195l-166 -641h-403l161 627q25 98 25 143q0 35 -20.5 55.5t-59.5 20.5q-37 0 -65.5 -14.5t-46.5 -42.5t-29 -56t-21 -67l-172 -666h-403zM377 1143l6 24q34 142 57 189q49 97 150 98 q47 0 96 -21t81 -46.5t63 -46.5t47 -21q20 0 31 21t26 87l4 17h203q-33 -166 -77.5 -238.5t-133.5 -72.5q-46 0 -94.5 21t-81.5 45.5t-65 45.5t-48 21q-23 0 -36.5 -25.5t-26.5 -97.5h-201z" />
<glyph unicode="&#xf2;" d="M31 348q0 134 44 269t118 231q163 205 514 205q232 0 353.5 -97t121.5 -282q0 -97 -28.5 -209t-74.5 -201q-80 -154 -212.5 -222.5t-352.5 -68.5q-245 0 -364 92.5t-119 282.5zM406 1452h382l95 -315h-283zM420 283q0 -63 28.5 -97t81.5 -34q81 0 134 90q43 72 89 241.5 t46 255.5q0 67 -28.5 102.5t-82.5 35.5q-71 0 -123 -80q-50 -80 -97.5 -250.5t-47.5 -263.5z" />
<glyph unicode="&#xf3;" d="M31 348q0 134 44 269t118 231q163 205 514 205q232 0 353.5 -97t121.5 -282q0 -97 -28.5 -209t-74.5 -201q-80 -154 -212.5 -222.5t-352.5 -68.5q-245 0 -364 92.5t-119 282.5zM420 283q0 -63 28.5 -97t81.5 -34q81 0 134 90q43 72 89 241.5t46 255.5q0 67 -28.5 102.5 t-82.5 35.5q-71 0 -123 -80q-50 -80 -97.5 -250.5t-47.5 -263.5zM584 1137l256 315h399l-367 -315h-288z" />
<glyph unicode="&#xf4;" d="M31 348q0 134 44 269t118 231q163 205 514 205q232 0 353.5 -97t121.5 -282q0 -97 -28.5 -209t-74.5 -201q-80 -154 -212.5 -222.5t-352.5 -68.5q-245 0 -364 92.5t-119 282.5zM406 1139l262 311h309l108 -311h-239l-51 184l-152 -184h-237zM420 283q0 -63 28.5 -97 t81.5 -34q81 0 134 90q43 72 89 241.5t46 255.5q0 67 -28.5 102.5t-82.5 35.5q-71 0 -123 -80q-50 -80 -97.5 -250.5t-47.5 -263.5z" />
<glyph unicode="&#xf5;" d="M31 348q0 134 44 269t118 231q163 205 514 205q232 0 353.5 -97t121.5 -282q0 -97 -28.5 -209t-74.5 -201q-80 -154 -212.5 -222.5t-352.5 -68.5q-245 0 -364 92.5t-119 282.5zM401 1143l7 24q33 141 55 187q54 97 151 100q47 0 96 -21t81 -46.5t63 -46.5t47 -21 q20 0 31 21t26 87l5 17h202q-33 -166 -77.5 -238.5t-133.5 -72.5q-59 0 -119.5 33.5t-105 66.5t-63.5 33q-23 0 -37 -26t-27 -97h-201zM420 283q0 -63 28.5 -97t81.5 -34q81 0 134 90q43 72 89 241.5t46 255.5q0 67 -28.5 102.5t-82.5 35.5q-71 0 -123 -80 q-50 -80 -97.5 -250.5t-47.5 -263.5z" />
<glyph unicode="&#xf6;" d="M31 348q0 134 44 269t118 231q163 205 514 205q232 0 353.5 -97t121.5 -282q0 -97 -28.5 -209t-74.5 -201q-80 -154 -212.5 -222.5t-352.5 -68.5q-245 0 -364 92.5t-119 282.5zM420 283q0 -63 28.5 -97t81.5 -34q81 0 134 90q43 72 89 241.5t46 255.5q0 67 -28.5 102.5 t-82.5 35.5q-71 0 -123 -80q-50 -80 -97.5 -250.5t-47.5 -263.5zM436 1155l74 281h258l-72 -281h-260zM829 1155l72 281h262l-73 -281h-261z" />
<glyph unicode="&#xf7;" horiz-adv-x="1482" d="M147 514l76 311h1157l-75 -311h-1158zM430 72l90 354h367l-88 -354h-369zM641 913l88 357h367l-88 -357h-367z" />
<glyph unicode="&#xf8;" d="M2 -39l121 127q-92 102 -92 258q0 171 66.5 332.5t172.5 247.5q157 127 435 127q92 0 155.5 -13t147.5 -49l131 133l55 -55l-121 -125q52 -46 80.5 -117.5t28.5 -156.5q0 -117 -42.5 -258.5t-101.5 -221.5q-161 -217 -536 -217q-187 0 -314 68l-129 -133zM420 276 q6 -124 108 -124q51 0 93 37.5t73.5 109t54 157.5t42.5 199zM432 401l365 375v8q0 37 -33.5 65t-73.5 28q-30 0 -57 -15.5t-47.5 -38.5t-40.5 -61.5t-33 -72t-28 -83t-23 -81t-19 -79.5z" />
<glyph unicode="&#xf9;" horiz-adv-x="1232" d="M16 197q0 58 33 194l164 633h403l-161 -627q-23 -90 -23 -139q0 -35 20.5 -55.5t59.5 -20.5q70 0 104.5 46.5t55.5 129.5l172 666h403l-266 -1024h-401l30 119q-85 -68 -167.5 -102.5t-190.5 -34.5q-105 0 -170.5 54.5t-65.5 160.5zM444 1452h383l95 -315h-283z" />
<glyph unicode="&#xfa;" horiz-adv-x="1232" d="M16 197q0 58 33 194l164 633h403l-161 -627q-23 -90 -23 -139q0 -35 20.5 -55.5t59.5 -20.5q70 0 104.5 46.5t55.5 129.5l172 666h403l-266 -1024h-401l30 119q-85 -68 -167.5 -102.5t-190.5 -34.5q-105 0 -170.5 54.5t-65.5 160.5zM567 1137l256 315h400l-367 -315h-289 z" />
<glyph unicode="&#xfb;" horiz-adv-x="1232" d="M16 197q0 58 33 194l164 633h403l-161 -627q-23 -90 -23 -139q0 -35 20.5 -55.5t59.5 -20.5q70 0 104.5 46.5t55.5 129.5l172 666h403l-266 -1024h-401l30 119q-85 -68 -167.5 -102.5t-190.5 -34.5q-105 0 -170.5 54.5t-65.5 160.5zM422 1139l262 311h309l109 -311h-240 l-51 184l-152 -184h-237z" />
<glyph unicode="&#xfc;" horiz-adv-x="1232" d="M16 197q0 58 33 194l164 633h403l-161 -627q-23 -90 -23 -139q0 -35 20.5 -55.5t59.5 -20.5q70 0 104.5 46.5t55.5 129.5l172 666h403l-266 -1024h-401l30 119q-85 -68 -167.5 -102.5t-190.5 -34.5q-105 0 -170.5 54.5t-65.5 160.5zM424 1155l74 281h258l-72 -281h-260z M817 1155l72 281h262l-74 -281h-260z" />
<glyph unicode="&#xfd;" horiz-adv-x="1087" d="M-205 -416l70 256q61 -12 123 -12q95 0 139.5 46t44.5 142q0 21 -1 44t-2.5 51.5t-2.5 44.5l-43 868h395q-4 -567 -18 -723l315 723h381l-553 -1030q-97 -180 -145 -245q-87 -114 -208 -154q-93 -31 -233 -31q-136 0 -262 20zM510 1137l256 315h399l-366 -315h-289z" />
<glyph unicode="&#xfe;" d="M-156 -422l484 1868h405l-141 -543q96 76 173 107.5t167 31.5q127 0 195.5 -75t68.5 -215q0 -187 -76 -396q-69 -190 -180.5 -282t-273.5 -92q-101 0 -165 33t-110 108l-141 -545h-406zM436 270q0 -44 28 -70t71 -26q100 0 161 137q37 86 74 221.5t37 210.5 q0 48 -21 80.5t-67 32.5q-74 0 -162 -88l-98 -379q-23 -90 -23 -119z" />
<glyph unicode="&#xff;" horiz-adv-x="1087" d="M-205 -416l70 256q61 -12 123 -12q95 0 139.5 46t44.5 142q0 21 -1 44t-2.5 51.5t-2.5 44.5l-43 868h395q-4 -567 -18 -723l315 723h381l-553 -1030q-97 -180 -145 -245q-87 -114 -208 -154q-93 -31 -233 -31q-136 0 -262 20zM395 1155l74 281h258l-72 -281h-260z M788 1155l72 281h262l-73 -281h-261z" />
<glyph unicode="&#x152;" horiz-adv-x="1984" d="M84 391q0 142 56 369.5t130 384.5q157 330 559 330q129 0 211.5 -30t151.5 -102l27 103h921l-67 -264h-508l-78 -297h475l-70 -267h-473l-92 -352h553l-70 -266h-962l20 88q-82 -66 -149 -88.5t-174 -22.5q-213 0 -337 111.5t-124 302.5zM512 387q0 -197 174 -197 q144 0 215 164q57 129 119.5 372t62.5 349q0 87 -43.5 133.5t-124.5 46.5q-151 0 -227 -168q-63 -140 -119.5 -354t-56.5 -346z" />
<glyph unicode="&#x153;" horiz-adv-x="1878" d="M29 342q0 159 59.5 313t157.5 246q158 152 454 152q229 0 359 -109q80 57 162 83t184 26q204 0 317 -89.5t113 -250.5q0 -112 -37 -236h-692q-35 -129 -35 -188q0 -70 33 -107t96 -37q72 0 110.5 40t75.5 149h394q-52 -173 -199.5 -267t-392.5 -94q-236 0 -359 117 q-71 -62 -154.5 -89.5t-201.5 -27.5q-220 0 -332 93t-112 276zM412 281q0 -60 32 -97t84 -37q76 0 126.5 70.5t97.5 243.5q57 209 57 299q0 56 -29 87.5t-80 31.5q-83 0 -139 -80q-53 -79 -101 -251t-48 -267zM1149 633h303q23 87 23 131q0 53 -29.5 83t-83.5 30 q-79 0 -129 -57.5t-84 -186.5z" />
<glyph unicode="&#x178;" horiz-adv-x="1323" d="M211 1446h448l82 -567l367 567h459l-715 -965l-123 -481h-453l125 481zM596 1565l74 280h258l-72 -280h-260zM989 1565l72 280h262l-74 -280h-260z" />
<glyph unicode="&#x2c6;" horiz-adv-x="577" d="M-51 1139l262 311h309l109 -311h-240l-51 184l-152 -184h-237z" />
<glyph unicode="&#x2dc;" horiz-adv-x="577" d="M-92 1143l6 24q34 142 57 189q49 97 150 98q47 0 96 -21t81 -46.5t63 -46.5t47 -21q20 0 31 21t26 87l4 17h203q-33 -166 -77.5 -238.5t-133.5 -72.5q-46 0 -94.5 21t-81.5 45.5t-65 45.5t-48 21q-23 0 -36.5 -25.5t-26.5 -97.5h-201z" />
<glyph unicode="&#x2000;" horiz-adv-x="961" />
<glyph unicode="&#x2001;" horiz-adv-x="1923" />
<glyph unicode="&#x2002;" horiz-adv-x="961" />
<glyph unicode="&#x2003;" horiz-adv-x="1923" />
<glyph unicode="&#x2004;" horiz-adv-x="641" />
<glyph unicode="&#x2005;" horiz-adv-x="480" />
<glyph unicode="&#x2006;" horiz-adv-x="320" />
<glyph unicode="&#x2007;" horiz-adv-x="320" />
<glyph unicode="&#x2008;" horiz-adv-x="240" />
<glyph unicode="&#x2009;" horiz-adv-x="384" />
<glyph unicode="&#x200a;" horiz-adv-x="106" />
<glyph unicode="&#x2010;" horiz-adv-x="917" d="M18 375l80 309h785l-80 -309h-785z" />
<glyph unicode="&#x2011;" horiz-adv-x="917" d="M18 375l80 309h785l-80 -309h-785z" />
<glyph unicode="&#x2012;" horiz-adv-x="917" d="M18 375l80 309h785l-80 -309h-785z" />
<glyph unicode="&#x2013;" horiz-adv-x="1259" d="M20 377l80 309h1123l-78 -309h-1125z" />
<glyph unicode="&#x2014;" horiz-adv-x="1845" d="M20 377l80 309h1708l-77 -309h-1711z" />
<glyph unicode="&#x2018;" horiz-adv-x="577" d="M145 754l86 338l279 354h238l-285 -344h192l-90 -348h-420z" />
<glyph unicode="&#x2019;" horiz-adv-x="577" d="M158 754l284 346h-192l92 346h420l-88 -336l-279 -356h-237z" />
<glyph unicode="&#x201a;" horiz-adv-x="555" d="M-168 -344l283 344h-191l90 348h420l-88 -338l-278 -354h-236z" />
<glyph unicode="&#x201c;" horiz-adv-x="1107" d="M137 754l88 338l279 354h235l-284 -344h192l-90 -348h-420zM674 754l86 338l278 354h238l-285 -344h191l-88 -348h-420z" />
<glyph unicode="&#x201d;" horiz-adv-x="1107" d="M158 756l284 344h-192l92 346h418l-86 -338l-279 -352h-237zM694 756l283 344h-191l91 346h419l-88 -338l-278 -352h-236z" />
<glyph unicode="&#x201e;" horiz-adv-x="1087" d="M-168 -344l281 344h-189l88 348h420l-86 -338l-278 -354h-236zM365 -344l284 344h-190l90 348h420l-88 -338l-279 -354h-237z" />
<glyph unicode="&#x2022;" horiz-adv-x="681" d="M57 457l125 516h514l-123 -516h-516z" />
<glyph unicode="&#x2026;" horiz-adv-x="2048" d="M66 0l65 266h270l-67 -266h-268zM750 0l65 266h270l-67 -266h-268zM1432 0l65 266h270l-67 -266h-268z" />
<glyph unicode="&#x202f;" horiz-adv-x="384" />
<glyph unicode="&#x2039;" horiz-adv-x="641" d="M39 530l330 414h336l-345 -414l140 -411h-332z" />
<glyph unicode="&#x203a;" horiz-adv-x="641" d="M-84 119l344 413l-139 412h332l131 -412l-332 -413h-336z" />
<glyph unicode="&#x205f;" horiz-adv-x="480" />
<glyph unicode="&#x20ac;" horiz-adv-x="1361" d="M70 436l45 174h129q4 41 22 109h-127l47 178h136q42 106 99 184t122 128t148.5 80t171 42t196.5 12q202 0 352 -61l-78 -293q-81 117 -280 117q-229 0 -320 -209h463l-47 -178h-471q-17 -52 -27 -109h469l-43 -174h-434q4 -115 61.5 -163t167.5 -48q169 0 334 113 l-78 -307q-167 -49 -364 -49q-143 0 -245.5 32t-162.5 93t-88 142t-30 187h-168z" />
<glyph unicode="&#x2122;" horiz-adv-x="1515" d="M201 1315l32 131h560l-33 -131h-166l-137 -549h-228l136 549h-164zM672 768l172 678h305l-6 -399l190 399h297l-164 -678h-192l125 516l-254 -516h-154l-4 504l-125 -504h-190z" />
<glyph unicode="&#xe000;" horiz-adv-x="1024" d="M0 0v1024h1024v-1024h-1024z" />
</font>
</defs>
</svg>
