<?xml version="1.0" standalone="no"?>
<!DOCTYPE svg PUBLIC "-//W3C//DTD SVG 1.1//EN" "http://www.w3.org/Graphics/SVG/1.1/DTD/svg11.dtd" >
<svg xmlns="http://www.w3.org/2000/svg">
<metadata></metadata>
<defs>
<font id="imagoitalic" horiz-adv-x="1067" >
<font-face units-per-em="2048" ascent="1638" descent="-410" />
<missing-glyph horiz-adv-x="555" />
<glyph horiz-adv-x="2048" />
<glyph horiz-adv-x="2048" />
<glyph unicode="&#xd;" horiz-adv-x="555" />
<glyph unicode=" "  horiz-adv-x="555" />
<glyph unicode="&#x09;" horiz-adv-x="555" />
<glyph unicode="&#xa0;" horiz-adv-x="555" />
<glyph unicode="!" horiz-adv-x="512" d="M154 0l47 186h202l-49 -186h-200zM268 334l228 993h200l-280 -993h-148z" />
<glyph unicode="&#x22;" horiz-adv-x="811" d="M307 1442q0 45 29 68.5t65 23.5q41 0 63.5 -24.5t22.5 -75.5l-71 -523h-39l-68 496zM692 1442q0 45 28 68.5t66 23.5q41 0 63.5 -24.5t22.5 -75.5l-73 -523h-39l-66 496z" />
<glyph unicode="#" horiz-adv-x="1366" d="M180 530v111h361l26 199h-342v116h357l65 494h129l-69 -494h204l66 494h121l-68 -494h344v-116h-358l-27 -199h344v-111h-356l-76 -530h-123l78 530h-209l-78 -530h-118l73 530h-344zM662 641h206l27 199h-205z" />
<glyph unicode="$" horiz-adv-x="937" d="M100 80l33 131q135 -61 211 -79.5t154 -18.5q139 0 209 71q57 59 57 144q0 74 -45 135q-27 37 -133 131l-60 51q-117 96 -161 156q-78 100 -78 211q0 88 47 162q57 88 164 133q39 16 91 25t124 9h24l43 162h107l-45 -176q86 -20 123.5 -35t74.5 -35l-30 -122 q-90 39 -150 57q-94 31 -168 31q-109 0 -174 -60q-57 -51 -57 -125q0 -86 88 -176q25 -25 94 -84l76 -61q74 -63 117 -111q113 -123 112 -254q0 -139 -98 -237q-129 -129 -381 -129l-49 -191h-113l51 201q-86 12 -144 31.5t-114 52.5z" />
<glyph unicode="%" horiz-adv-x="1622" d="M205 639q0 80 30.5 220t59.5 222q37 106 86 162q84 94 221 94q25 0 50.5 -4t41.5 -8q72 -20 112 -71.5t40 -135.5q0 -78 -27.5 -215t-73.5 -256q-53 -141 -133 -192q-66 -43 -168 -43q-63 0 -103 14t-69 39q-41 35 -54 79t-13 95zM332 627q0 -47 14 -76q29 -55 100 -55 q68 0 109 49t84 184q80 256 80 408q0 72 -51 100q-27 14 -62 14q-61 0 -102 -39q-27 -25 -49 -73q-35 -70 -79 -253.5t-44 -258.5zM463 0l842 1327h108l-840 -1327h-110zM1030 217q0 80 31 220.5t62.5 232.5t82.5 149q84 94 221 94q25 0 50.5 -4t42.5 -8q72 -20 111.5 -71.5 t39.5 -133.5q0 -78 -27.5 -215t-70.5 -252.5t-98 -167.5q-76 -72 -205 -71q-59 0 -98 12t-74 41q-41 35 -54.5 79t-13.5 95zM1157 205q0 -47 14 -76q29 -55 101 -55q68 0 108.5 49t83.5 186q80 254 80 406q0 72 -51 98q-27 14 -61 14q-61 0 -103 -39q-25 -25 -49 -71 q-35 -70 -79 -253t-44 -259z" />
<glyph unicode="&#x26;" horiz-adv-x="1366" d="M164 383q0 133 67.5 236.5t192.5 171.5q72 37 201 77q-39 80 -56.5 144.5t-17.5 117.5q0 145 94 236q102 98 277 98q143 0 225 -70.5t82 -197.5q0 -147 -129 -242q-78 -57 -264 -123l237 -499q31 51 50.5 107.5t52.5 197.5l20 90h164l-43 -174q-39 -135 -68 -193 q-37 -74 -116 -157l100 -203h-197l-43 90q-92 -53 -176 -80.5t-199 -27.5q-82 0 -133 10q-102 20 -178 80q-66 51 -104.5 132t-38.5 179zM348 418q0 -137 90 -225.5t250 -88.5q86 0 156 27q43 16 104 55l-282 596q-135 -49 -199 -102q-119 -98 -119 -262zM723 1169 q0 -59 20.5 -123.5t53.5 -134.5q121 41 174 82q100 78 100 203q0 74 -37 117q-43 51 -123 51q-84 0 -136 -51t-52 -144z" />
<glyph unicode="'" horiz-adv-x="425" d="M307 1442q0 45 29 68.5t65 23.5q41 0 63.5 -24.5t22.5 -75.5l-71 -523h-39l-68 496z" />
<glyph unicode="(" horiz-adv-x="768" d="M260 135q0 141 60.5 404.5t142.5 500.5q70 205 174 291q137 115 403 115l76 -2l-29 -109q-70 0 -105.5 -2t-72.5 -12q-135 -33 -213 -143q-43 -61 -86 -191q-53 -156 -116 -414q-74 -303 -74 -430q0 -178 104 -262q59 -47 170 -67l-26 -105q-193 0 -300.5 116t-107.5 310 z" />
<glyph unicode=")" horiz-adv-x="768" d="M-135 -287l29 109h28q86 0 150 14q135 33 213 144q45 61 86 190q57 168 116 412q74 303 74 432q0 178 -104 262q-59 47 -170 67l28 105q193 0 299.5 -114.5t106.5 -311.5q0 -147 -57.5 -394t-145.5 -513q-72 -205 -172 -289q-135 -115 -403 -115z" />
<glyph unicode="*" horiz-adv-x="724" d="M279 1096l227 59l-170 158l90 90l156 -166l57 221l115 -26l-58 -222l215 66l33 -121l-219 -59l164 -156l-88 -88l-154 166l-57 -223l-115 32l57 217l-217 -69z" />
<glyph unicode="+" horiz-adv-x="1366" d="M182 535v122h537v533h123v-533h534v-122h-534v-535h-123v535h-537z" />
<glyph unicode="," horiz-adv-x="425" d="M-25 -270l185 270h-99l48 180h210l-47 -180l-182 -270h-115z" />
<glyph unicode="-" horiz-adv-x="811" d="M180 461l35 135h600l-35 -135h-600z" />
<glyph unicode="." horiz-adv-x="425" d="M68 0l49 190h198l-49 -190h-198z" />
<glyph unicode="/" horiz-adv-x="768" d="M-2 0l891 1446h166l-889 -1446h-168z" />
<glyph unicode="0" horiz-adv-x="1024" d="M172 315q0 111 49 334q43 199 89 334t124 221q123 137 322 137q37 0 64.5 -3t70.5 -15q109 -29 164 -102.5t55 -194.5q0 -123 -39 -316.5t-106.5 -371.5t-149.5 -254q-109 -98 -295 -98q-78 0 -139.5 16t-112.5 59q-59 51 -82 134q-14 51 -14 120zM344 297q0 -47 3 -65.5 t15 -45.5q20 -45 64.5 -69.5t95.5 -24.5q109 0 170.5 74t126.5 280q53 166 87 341.5t34 267.5q0 104 -72 147q-47 29 -106 29q-92 0 -158 -62q-41 -39 -78 -108q-55 -109 -118.5 -381t-63.5 -383z" />
<glyph unicode="1" horiz-adv-x="1024" d="M410 0l286 1155h-260l29 111q141 16 247 33t212 44l-336 -1343h-178z" />
<glyph unicode="2" horiz-adv-x="1024" d="M43 0l37 141q55 53 186 166q121 102 209 176l115 95q150 121 211 182q141 139 141 280q0 100 -65 150q-55 41 -144 41q-94 0 -152.5 -43t-91.5 -115q-12 -31 -26 -80q-6 -20 -21 -92h-176q31 193 103 287q117 154 372 153q139 0 236 -51q147 -78 147 -260 q0 -109 -57 -205q-68 -111 -289 -293l-88 -71q-127 -98 -196 -154q-115 -92 -209 -170h671l-36 -137h-877z" />
<glyph unicode="3" horiz-adv-x="1024" d="M111 319l4 46h172v-66q4 -37 21.5 -77t51.5 -68q63 -51 166 -52q53 0 90 11q78 20 125 80q33 39 52.5 99t19.5 114q0 100 -57 155q-45 43 -123 60q-33 6 -68 8t-114 2h-33l28 114h103q98 0 147 11q90 18 144 75q35 39 54 98.5t19 112.5q0 90 -48 140.5t-142 50.5 q-123 0 -191 -86q-34 -43 -61 -135h-172q23 86 47 131q43 80 123 131q49 33 114.5 50t147.5 17q154 0 248 -63q115 -78 115 -231q0 -100 -49.5 -184.5t-139.5 -135.5q-31 -16 -68.5 -28.5t-88.5 -20.5q33 -6 58 -14.5t58 -26.5q78 -47 109 -121q23 -53 22 -121 q0 -170 -125 -289q-78 -72 -184 -100q-76 -20 -172 -20t-168 19.5t-127 62.5q-66 51 -92 133q-16 51 -16 118z" />
<glyph unicode="4" horiz-adv-x="1024" d="M113 299l26 100q74 104 189 275q102 152 215 327q129 201 205 326h200q-133 -203 -266 -405q-100 -152 -172 -254q-47 -70 -170 -234h377l125 481l174 15l-127 -496h147l-35 -135h-147l-78 -299h-172l78 299h-569z" />
<glyph unicode="5" horiz-adv-x="1024" d="M141 295q0 33 4 53h166l-2 -35q0 -125 74 -178q51 -37 127 -37q154 0 240 129q94 139 94 330q0 86 -33 139q-51 82 -170 82q-80 0 -143.5 -40t-108.5 -134h-149l209 723h694l-37 -143h-553l-109 -371q41 31 86 49q74 31 160 31q68 0 127.5 -19.5t100.5 -52.5 q66 -55 90 -141q14 -51 14 -125q0 -100 -27.5 -199.5t-83.5 -177.5q-76 -106 -190 -153q-94 -39 -217 -39q-76 0 -144.5 17t-119.5 56q-61 49 -84 121q-14 47 -15 115z" />
<glyph unicode="6" horiz-adv-x="1024" d="M176 332q0 86 22.5 198.5t75.5 305.5q25 80 50.5 147.5t62.5 124.5q78 127 180.5 180t237.5 53q143 0 235 -49q137 -74 138 -239l-4 -60h-175l5 62q0 59 -23 98q-25 35 -68 57.5t-112 22.5q-123 0 -205 -88t-170 -406q51 43 98 64q82 37 183 37q102 0 178 -39 q63 -33 98 -84q27 -39 38 -86t11 -103q0 -78 -27.5 -181t-66.5 -169q-70 -113 -188 -160q-84 -33 -195 -32q-66 0 -117 10q-82 16 -141 59q-68 49 -94.5 116t-26.5 161zM344 319q0 -53 7 -83.5t22 -53.5q27 -45 74 -67.5t104 -22.5q133 0 211 107q39 55 67.5 150t28.5 183 q0 61 -24.5 108.5t-71.5 71t-111 23.5q-143 0 -225 -117.5t-82 -298.5z" />
<glyph unicode="7" horiz-adv-x="1024" d="M190 0q154 242 267 424q131 211 209 338q55 92 256 424h-680l37 141h870l-31 -127l-721 -1200h-207z" />
<glyph unicode="8" horiz-adv-x="1024" d="M141 307q0 111 43 203t117 145q47 35 100.5 49.5t98.5 14.5q-78 23 -113 51q-70 59 -70 182q0 139 84 246q113 143 340 143q68 0 126.5 -9t121 -40.5t98 -86t35.5 -146.5q0 -80 -30 -154q-41 -102 -115 -153q-53 -37 -131 -52l-45 -6l37 -8q102 -31 143 -104 q31 -55 31 -142q0 -76 -22.5 -153.5t-65.5 -134.5q-76 -104 -205 -144q-74 -23 -174 -22q-104 0 -170 18.5t-113 52.5q-70 47 -95.5 111.5t-25.5 138.5zM317 299q0 -104 60.5 -156.5t161.5 -52.5q80 0 137 30t96 101q64 109 64 248q0 33 -5.5 55.5t-19.5 44.5 q-27 39 -75 61.5t-118 22.5q-76 0 -124 -20q-68 -29 -113 -98q-33 -49 -48.5 -118t-15.5 -118zM487 936q0 -176 191 -176q86 0 134 24.5t81 71.5q25 37 43 101.5t18 111.5q0 96 -71 141q-53 33 -125 33q-35 0 -61.5 -5t-59.5 -19q-68 -35 -109 -112t-41 -171z" />
<glyph unicode="9" horiz-adv-x="1024" d="M102 276l4 58h175l-2 -47q0 -37 6 -63.5t18 -47.5q27 -41 73 -60.5t101 -19.5q156 0 244 135q61 96 133 359q-53 -43 -100 -66q-82 -37 -185 -37q-123 0 -202 54q-41 27 -71 69.5t-40 91t-10 103.5q0 86 25.5 179t70.5 165q72 113 186 160q80 33 195 32q63 0 131 -13 t130.5 -59t90 -115t27.5 -167q0 -102 -41 -282q-20 -88 -55 -213q-78 -266 -198 -386t-327 -120q-164 0 -260 59q-119 74 -119 231zM422 795q0 -31 4 -57.5t19.5 -55.5t56.5 -55q53 -35 127 -35q49 0 92 14q59 20 102 64q61 63 92 186q23 90 23 164q0 76 -29 127 q-23 35 -57 57q-51 33 -123 33q-147 0 -227 -129t-80 -313z" />
<glyph unicode=":" horiz-adv-x="512" d="M154 0l49 190h198l-49 -190h-198zM369 836l49 188h200l-51 -188h-198z" />
<glyph unicode=";" horiz-adv-x="512" d="M61 -270l183 270h-97l48 180h208l-47 -180l-182 -270h-113zM360 836l50 188h200l-51 -188h-199z" />
<glyph unicode="&#x3c;" horiz-adv-x="1366" d="M96 653v144l1366 655v-131l-1229 -596l1229 -600v-131z" />
<glyph unicode="=" horiz-adv-x="1366" d="M96 354v119h1366v-119h-1366zM96 715v121h1366v-121h-1366z" />
<glyph unicode="&#x3e;" horiz-adv-x="1366" d="M96 -6v131l1229 600l-1229 596v131l1366 -655v-144z" />
<glyph unicode="?" horiz-adv-x="980" d="M266 0l47 186h201l-49 -186h-199zM293 956q37 174 94 250q102 135 318 135q178 0 285.5 -85t107.5 -248q0 -129 -63.5 -236.5t-184.5 -179.5q-68 -39 -160 -68q-55 -16 -133 -32l-41 -156h-149l69 268q109 0 187 21q111 29 186 104q47 49 75.5 123t28.5 149 q0 109 -56 169.5t-148 60.5q-88 0 -143.5 -50.5t-102.5 -224.5h-170z" />
<glyph unicode="@" horiz-adv-x="1835" d="M238 477q0 389 264 678q276 303 680 303q276 0 442 -157.5t166 -430.5q0 -276 -145.5 -500.5t-321.5 -224.5q-61 0 -104 33q-29 23 -40.5 45.5t-15.5 48t-4 41.5v23q-66 -92 -145.5 -140.5t-161.5 -48.5q-111 0 -182 78q-80 88 -80 248q0 229 129 405.5t299 176.5 q90 0 148.5 -49.5t95.5 -145.5l34 148h119l-65 -301q-37 -178 -48.5 -244t-11.5 -111q0 -55 19.5 -80.5t54.5 -25.5q104 0 213 186q119 203 119 434q0 248 -156 381q-141 121 -366 121q-348 0 -595 -267t-247 -622q0 -317 217 -491q188 -152 471 -152q150 0 291 47 q113 37 221 105q66 41 108 78q23 18 74 67l55 -63q-158 -156 -348 -240t-399 -84q-315 0 -533 172q-252 199 -251 559zM729 481q0 -98 45 -160.5t133 -62.5q109 0 199 111q51 66 82 166t31 176q0 115 -54.5 175t-130.5 60q-133 0 -223 -155q-82 -139 -82 -310z" />
<glyph unicode="A" horiz-adv-x="1323" d="M-43 0l926 1448h233l162 -1448h-188l-60 555h-530l-346 -555h-197zM586 690h430l-47 451l-13 143l-69 -117z" />
<glyph unicode="B" horiz-adv-x="1236" d="M113 0l372 1446h383q82 0 149.5 -10.5t127.5 -42.5q82 -47 117 -127q24 -55 24 -122v-5q0 -104 -45 -187q-37 -68 -104 -118q-35 -25 -78 -46q-31 -14 -70 -24q129 -41 189 -135q51 -80 51 -189q0 -119 -57.5 -216t-151.5 -152q-76 -43 -162 -57.5t-184 -14.5h-561z M334 133h217h151q96 4 168 35t121 98q57 78 58 180q0 111 -64 172q-43 41 -117 60q-49 10 -157 10h-93h-139zM512 819h135q106 0 171 4t131.5 38t111.5 102.5t45 156.5q0 33 -5 59.5t-24 53.5q-39 55 -105.5 69.5t-226.5 14.5h-104z" />
<glyph unicode="C" horiz-adv-x="1280" d="M203 432q0 186 73 430q90 301 236 443q100 98 231 137q87 26 201 26h8q238 0 360 -108.5t122 -300.5l-4 -66h-187l4 72q0 80 -24 139q-16 41 -45 70q-72 76 -220 76q-135 0 -227 -64q-76 -51 -139 -162q-72 -121 -132.5 -346t-60.5 -358q0 -68 11 -109q18 -76 71 -127 q35 -35 93.5 -59.5t136.5 -24.5q178 0 293 121q60 66 126 209h199q-57 -170 -145 -266q-168 -184 -467 -184q-119 0 -216.5 30.5t-160.5 85.5q-80 68 -113 166q-24 71 -24 163v7z" />
<glyph unicode="D" horiz-adv-x="1409" d="M111 0l374 1448h400q119 0 208 -12.5t162 -51.5q104 -53 161 -157.5t57 -261.5q0 -141 -45.5 -322.5t-118.5 -308.5q-123 -213 -326 -287q-129 -47 -358 -47h-514zM340 129h229q229 0 332 41q147 59 246 246q61 117 99 277.5t38 285.5q0 57 -8 98q-31 147 -158 205 q-47 20 -104.5 26.5t-165.5 6.5h-201z" />
<glyph unicode="E" d="M111 0l374 1446h797l-37 -139h-598l-125 -484h586l-37 -139h-586l-139 -545h696l-36 -139h-895z" />
<glyph unicode="F" horiz-adv-x="980" d="M111 -2l374 1448h793l-37 -139h-594l-135 -529h580l-35 -137h-582l-166 -643h-198z" />
<glyph unicode="G" horiz-adv-x="1409" d="M203 428q0 137 51 332q45 168 102 295q78 168 174 256q169 155 436 155h3q88 0 169 -15t158 -67q90 -55 127 -134t37 -181l-6 -82h-178l4 60q0 29 -3 61.5t-15 67.5q-29 84 -106 125.5t-177 41.5q-123 0 -207 -49t-156 -149q-88 -127 -153.5 -361.5t-65.5 -371.5 q0 -66 11 -107q18 -78 71 -127q33 -29 68 -45q72 -33 176 -33q113 0 201 37q119 49 178 154q37 63 88 246l12 51h-387l39 137h563l-200 -725h-175l39 119l-41 -43q-113 -96 -340 -96q-225 0 -352 98q-145 113 -145 350z" />
<glyph unicode="H" horiz-adv-x="1323" d="M111 0l374 1446h199l-162 -621h619l162 621h196l-375 -1446h-196l180 692h-619l-178 -692h-200z" />
<glyph unicode="I" horiz-adv-x="512" d="M111 0l374 1446h203l-383 -1446h-194z" />
<glyph unicode="J" horiz-adv-x="854" d="M-2 51l55 139q63 -33 121.5 -53t114.5 -20q117 0 182 80q37 45 70 141q18 51 47 164l28 106l218 840h198l-248 -956q-39 -145 -43 -156q-23 -76 -49 -127q-57 -111 -155.5 -170t-239.5 -59q-70 0 -143.5 14t-155.5 57z" />
<glyph unicode="K" horiz-adv-x="1193" d="M111 0l374 1446h193l-178 -682l778 682h238l-689 -590l406 -856h-209l-340 737l-244 -213l-137 -524h-192z" />
<glyph unicode="L" horiz-adv-x="1024" d="M111 0l374 1446h199l-338 -1305h670l-37 -141h-868z" />
<glyph unicode="M" horiz-adv-x="1748" d="M111 0l399 1448h305l68 -1059l8 -170q39 80 51 105q25 43 43 75l606 1049h334l-373 -1448h-186l264 1024l92 350l-180 -317l-614 -1057h-185l-75 1020q0 66 -7.5 170t-7.5 184l-94 -344l-278 -1030h-170z" />
<glyph unicode="N" horiz-adv-x="1366" d="M111 0l383 1446h200l299 -979q23 -76 44.5 -160t27.5 -114q23 113 37 174q6 29 37 153l237 926h166l-375 -1446h-202l-297 948q-29 96 -42.5 150.5t-31.5 134.5l-53 -234l-258 -999h-172z" />
<glyph unicode="O" horiz-adv-x="1409" d="M209 440q0 131 47 324q41 166 90 283q88 207 229 309q155 112 398 112h4q121 0 212 -27.5t159 -82.5q88 -70 120 -174q23 -70 23 -168q0 -59 -9 -131t-40 -197q-47 -193 -101 -315q-63 -147 -149 -231.5t-203 -123t-250 -38.5q-233 0 -368 98q-162 117 -162 362zM410 420 q0 -131 55 -205q41 -59 113.5 -87t156.5 -28q213 0 332 164q92 127 174 451q23 84 37 165t14 160q0 51 -7 89t-25 75q-27 47 -68 80q-86 68 -217 68q-96 0 -176 -35t-146 -113q-109 -129 -182 -407q-61 -231 -61 -377z" />
<glyph unicode="P" horiz-adv-x="1110" d="M111 0l374 1446h320q168 0 246.5 -15.5t148.5 -76.5q61 -55 86 -137q16 -55 17 -132q0 -139 -57.5 -256.5t-144.5 -179t-206 -82.5q-72 -12 -201 -12h-239l-144 -555h-200zM487 688h162h35q39 0 89 1t99 20q135 45 197 184q41 94 41 190q0 76 -27.5 127.5t-85.5 77.5 q-33 14 -82 19.5t-149 5.5h-117z" />
<glyph unicode="Q" horiz-adv-x="1409" d="M205 442q0 174 74 420q86 285 204 414q109 119 267 164q97 28 217 28h8q225 0 350 -88q102 -72 141 -194q23 -72 23 -174q0 -137 -41 -318q-49 -211 -133 -372q-41 -76 -88 -134q-31 -37 -74 -75q137 -37 197 -119q51 -70 63 -205h-190q-8 61 -21.5 91t-45.5 63.5 t-76 56.5t-89 23l-33 -13q-97 -30 -225 -30h-8q-104 0 -201.5 24.5t-165.5 77.5q-94 72 -131 192q-22 71 -22 160v8zM403 412q0 -61 11 -103q18 -72 71 -125q35 -35 80 -55q70 -31 162 -31q172 0 285 109q104 100 182 317q39 109 70.5 253t31.5 261q0 143 -73 224 q-82 88 -244 88q-190 0 -311 -129q-90 -96 -156 -283q-43 -121 -76 -266.5t-33 -259.5z" />
<glyph unicode="R" horiz-adv-x="1236" d="M111 0l374 1446h389q88 0 160 -10.5t129 -42.5q96 -55 133 -154q20 -55 21 -129q0 -119 -49 -210t-140 -150q-53 -35 -106 -52q-23 -6 -88 -16q100 -23 147 -107q39 -69 62 -237l14 -88q16 -98 23 -127q14 -68 55 -123h-205q-27 35 -38 80t-19 108l-10 76 q-10 70 -20.5 132.5t-24.5 97.5q-41 94 -115 117.5t-236 23.5h-96l-164 -635h-196zM506 770h178q115 0 160 6q90 12 146.5 50t95 111t38.5 161q0 35 -7 67.5t-23 59.5q-39 57 -98.5 72.5t-147.5 15.5l-107 2h-94z" />
<glyph unicode="S" horiz-adv-x="1110" d="M119 396.5q2 17.5 8 37.5l180 -12l-6 -72q0 -133 105 -198q84 -53 206 -54q152 0 234 92q67 75 67 176v3q0 94 -57 166q-25 29 -64.5 57.5t-119.5 77.5l-70 41q-115 72 -166 129q-94 106 -94 245q0 94 38 169t109.5 128.5t182.5 73.5q63 12 143 12q190 0 303 -77 q129 -90 129 -269l-6 -59h-176l2 53q0 133 -90 195q-66 45 -162 45q-135 0 -215 -82q-70 -70 -70 -166q0 -88 68 -158q43 -43 154 -110l67 -39q141 -86 195 -148q94 -106 94 -262q0 -166 -113 -278q-133 -133 -372 -133q-59 0 -107.5 5t-116.5 23q-106 27 -168 76 q-114 89 -114 253q0 42 2 59.5z" />
<glyph unicode="T" horiz-adv-x="980" d="M268 1305l37 141h1022l-37 -141h-389l-338 -1305h-201l338 1305h-432z" />
<glyph unicode="U" horiz-adv-x="1366" d="M213 315q0 57 10 113q0 4 29 127l229 891h201l-221 -850q-23 -90 -35 -153.5t-12 -106.5q0 -37 7 -70t28 -59q29 -43 99 -70.5t161 -27.5q57 0 103 8t91 33q98 53 154 165q37 76 90 279l221 852h176l-256 -985q-45 -154 -80 -221q-63 -121 -174 -185q-131 -75 -346 -75 h-6q-104 0 -179 15t-138 50q-88 51 -125 133q-27 59 -27 137z" />
<glyph unicode="V" horiz-adv-x="1150" d="M324 1446h198l41 -1129l2 -161l68 120l647 1170h197l-834 -1446h-246z" />
<glyph unicode="W" horiz-adv-x="1705" d="M244 0l80 1446h190l-76 -1149l-14 -178l106 211l551 1116h185l-25 -1047l-8 -280l121 258l493 1069h183l-682 -1446h-291l24 932q0 84 7.5 138t11.5 91q-37 -90 -60 -137q-4 -8 -41 -86l-464 -938h-291z" />
<glyph unicode="X" horiz-adv-x="1150" d="M-47 0l694 768l-264 678h201l200 -524l461 524h207l-608 -678l297 -768h-201l-174 463l-57 147l-113 -129l-426 -481h-217z" />
<glyph unicode="Y" d="M285 1446h202l152 -588l41 -151l113 151l438 588h203l-703 -916l-137 -530h-191l140 530z" />
<glyph unicode="Z" horiz-adv-x="1150" d="M0 0l35 133l1055 1176h-773l37 137h1010l-35 -137l-1048 -1166h880l-37 -143h-1124z" />
<glyph unicode="[" horiz-adv-x="598" d="M59 -289l451 1735h420l-27 -111h-264l-393 -1513h264l-29 -111h-422z" />
<glyph unicode="\" horiz-adv-x="854" d="M342 1446h152l305 -1446h-152z" />
<glyph unicode="]" horiz-adv-x="598" d="M-129 -289l27 111h264l395 1513h-264l26 111h422l-448 -1735h-422z" />
<glyph unicode="^" horiz-adv-x="1492" d="M416 717l368 729h129l359 -729h-158l-268 561l-275 -561h-155z" />
<glyph unicode="_" horiz-adv-x="1024" d="M-23 -154h1067v-102h-1067v102z" />
<glyph unicode="`" horiz-adv-x="555" d="M117 1421h186l133 -276h-131z" />
<glyph unicode="a" horiz-adv-x="980" d="M111 229q0 174 137 269q100 70 553 120l18 66q10 47 14.5 65.5t4.5 45.5q0 74 -45 110.5t-131 36.5q-47 0 -92.5 -13.5t-90.5 -56.5q-31 -31 -49 -71q-8 -18 -24 -74h-173q14 66 39 113q41 80 113 129q108 73 284 73h5q139 0 225 -47q113 -61 113 -190q0 -37 -3 -51.5 t-16 -67.5l-127 -496q-8 -31 -13 -55t-5 -45q0 -35 16 -51q9 -10 27 -14l-8 -25h-119q-55 0 -74.5 21.5t-19.5 84.5q-114 -124 -292 -124h-3q-61 0 -109.5 15t-87.5 53t-53 83t-14 96zM291 240q0 -63 35.5 -105.5t111.5 -42.5q59 0 119.5 27.5t92.5 59.5t48 67q10 24 35 106 l45 170q-90 0 -198.5 -20.5t-167.5 -52.5q-121 -66 -121 -209z" />
<glyph unicode="b" d="M86 0l375 1446h176l-139 -543q78 74 161.5 106.5t163.5 32.5q164 0 232 -116q45 -78 45 -201q0 -115 -35 -252q-51 -203 -154 -328q-134 -163 -338 -163h-2q-49 0 -87 6t-80 24.5t-70 44.5q-18 16 -43 47l-29 -104h-176zM328 233q0 -45 47 -90q61 -59 160 -59 q111 0 194 88q53 57 96 156q35 78 65 195.5t30 209.5q0 70 -16.5 109t-40 59.5t-51.5 28.5t-60 8q-137 0 -246 -131q-14 -18 -28.5 -39t-26.5 -41l-105 -405q-12 -55 -15 -69.5t-3 -19.5z" />
<glyph unicode="c" horiz-adv-x="980" d="M152 328q0 133 50 296.5t144 266.5q82 90 186 127q69 24 159 24h7q66 0 127.5 -13t110.5 -44q123 -82 123 -235l-6 -74h-166l6 67q0 94 -57 148q-49 45 -129 45q-86 0 -150 -43q-47 -33 -88 -92q-49 -76 -93 -218.5t-44 -256.5q0 -55 12 -97q23 -76 88 -114 q25 -14 52.5 -20.5t60.5 -6.5q104 0 170 64q53 50 94 161h176q-18 -70 -36.5 -104.5t-57.5 -79.5q-61 -70 -148.5 -108.5t-210.5 -38.5q-80 0 -150.5 19t-121.5 60q-68 55 -94 150q-14 53 -14 117z" />
<glyph unicode="d" d="M145 303q0 238 113 451q153 288 442 288h2q102 0 177 -34q41 -20 84 -60l129 498h174l-373 -1446h-176l26 96q-57 -47 -106 -71q-88 -43 -191 -43q-125 0 -204 69q-96 84 -97 252zM326 301q0 -94 42 -154.5t134 -60.5q37 0 67.5 8t65.5 27q86 45 131 121q24 43 49 133 l123 477l-23 25q-65 65 -169 65h-3q-193 0 -315 -242q-102 -201 -102 -399z" />
<glyph unicode="e" horiz-adv-x="1024" d="M147 328q0 131 56.5 303t144.5 268q76 84 187 119q73 24 160 24h7q156 0 248 -67q113 -84 113 -258q0 -43 -7 -98.5t-26 -116.5h-684q-12 -41 -19.5 -89t-7.5 -89q0 -129 76 -189q57 -45 150 -45q131 0 207 84q40 45 69 127h176q-18 -47 -36 -82q-31 -55 -68 -96 q-76 -82 -186 -117q-77 -24 -168 -24h-7q-86 0 -141 14q-80 20 -142.5 73.5t-86.5 139.5q-14 49 -15 119zM379 616h504q18 66 18 123q0 96 -55 149.5t-139 53.5q-137 0 -228 -119q-55 -72 -100 -207z" />
<glyph unicode="f" horiz-adv-x="598" d="M162 0l239 926h-161l24 98h162l39 152q35 125 82 184q82 104 237 104q59 0 107 -14q27 -8 67 -29l-28 -108q-25 10 -57.5 21.5t-57.5 11.5q-84 0 -131 -74q-29 -45 -55 -152l-25 -96h193l-25 -98h-194l-240 -926h-176z" />
<glyph unicode="g" d="M37 -113h186v-52t4 -38q18 -66 82 -96q49 -23 109 -23q129 0 207 103q43 55 75 162q16 51 29 94q4 16 25 96q-68 -55 -113 -78q-84 -41 -186 -41q-51 0 -81 6.5t-67 22.5q-72 33 -110 94q-49 78 -50 203q0 223 117 430q156 274 436 274q88 0 150.5 -24.5t114.5 -71.5 l20 78h174l-264 -1020q-61 -207 -131 -289q-123 -141 -379 -141q-141 0 -233 53q-61 37 -89 86q-14 25 -20 64t-6 69v39zM328 324q0 -203 180 -203q106 0 201 78q57 47 82 104q16 39 53 184l94 361q-41 57 -109 80q-43 14 -88 14q-197 0 -317 -240q-96 -190 -96 -378z" />
<glyph unicode="h" d="M86 0l375 1448h174l-139 -541q76 55 135 84q111 53 225 53q100 0 162 -47q74 -55 74 -170q0 -51 -21 -139q-11 -45 -27 -104l-151 -584h-174l149 578q18 72 30.5 126t12.5 91q0 80 -57 112q-39 23 -92 23q-61 0 -128 -28t-111 -71t-64 -88q-12 -29 -41 -137l-156 -606 h-176z" />
<glyph unicode="i" horiz-adv-x="425" d="M82 0l266 1024h174l-266 -1024h-174zM406 1251l45 172h174l-45 -172h-174z" />
<glyph unicode="j" horiz-adv-x="425" d="M-250 -410l35 119q16 -2 30.5 -5t39.5 -3q102 0 153 86q37 63 94 281l246 956h174l-250 -971q-68 -250 -127 -338q-94 -141 -280 -141q-35 0 -52.5 2t-62.5 14zM408 1253l45 170h174l-45 -170h-174z" />
<glyph unicode="k" horiz-adv-x="980" d="M86 0l375 1446h170l-230 -883l541 461h205l-461 -391l307 -633h-194l-248 526l-203 -176l-90 -350h-172z" />
<glyph unicode="l" horiz-adv-x="425" d="M84 0l371 1446h174l-371 -1446h-174z" />
<glyph unicode="m" horiz-adv-x="1622" d="M86 0l264 1024h176l-30 -119q68 61 153.5 99t173.5 38q86 0 145.5 -35.5t80.5 -123.5q29 29 58.5 50t70.5 44q117 65 233 65h4q98 0 160 -47q72 -55 72 -166q0 -59 -35 -192l-164 -637h-174l162 627q8 29 19 86t11 84q0 59 -36.5 94t-106.5 35q-53 0 -110.5 -24.5 t-97.5 -65.5t-59.5 -87.5t-51.5 -166.5l-150 -582h-174l158 610q8 37 21 89.5t13 93.5q0 55 -28 90q-37 45 -111 45q-111 0 -205 -88q-47 -41 -67 -88q-12 -31 -41 -138l-158 -614h-176z" />
<glyph unicode="n" horiz-adv-x="1024" d="M86 0l264 1024h176l-30 -119q74 59 129 88q96 49 196 49q123 0 185 -69q49 -57 49 -142q0 -57 -19 -139q-16 -59 -22 -86l-158 -606h-174l158 606q10 39 23.5 95.5t13.5 93.5q0 51 -27 84q-39 49 -119 49q-113 0 -207 -88q-39 -35 -57 -77t-47 -145l-160 -618h-174z" />
<glyph unicode="o" d="M150 338q0 131 46 281.5t136 254.5q66 76 153 119q106 51 246 51q131 0 221 -57q57 -37 95 -94q27 -41 38 -92t11 -113q0 -41 -6.5 -89t-16.5 -91q-55 -268 -184 -397t-346 -129q-180 0 -286.5 92t-106.5 264zM328 326q0 -63 14 -105q23 -63 84 -100q23 -14 53.5 -22.5 t69.5 -8.5q133 0 217 103q49 57 84 159q10 29 26.5 83t26.5 95q12 63 17.5 101.5t5.5 87.5q0 127 -82 182q-53 37 -129 37q-55 0 -101 -16q-82 -31 -143 -109q-70 -88 -111 -254q-32 -127 -32 -227v-6z" />
<glyph unicode="p" d="M-23 -422l375 1446h176l-30 -117q78 61 161.5 98t171.5 37q111 0 181 -59q92 -78 92 -246q0 -145 -52.5 -317t-133.5 -273q-72 -90 -166 -131q-80 -34 -177 -34h-6q-115 0 -194 45q-43 24 -86 73l-135 -522h-177zM332 240q0 -70 61.5 -115t141.5 -45q98 0 174 67 q39 35 79 105q63 111 103 260q33 129 33 221q0 121 -68 172q-43 33 -102 33q-84 0 -168 -64q-119 -90 -137 -153l-97 -377q-2 -12 -11 -52t-9 -52z" />
<glyph unicode="q" d="M145 303q0 129 45 279q57 195 168 311q138 149 337 149h3q74 0 138 -20q45 -12 77 -35q25 -16 50 -39l20 76h174l-373 -1446h-176l133 516q-68 -57 -143.5 -84.5t-151.5 -27.5q-119 0 -194 59q-106 84 -107 262zM324 303q0 -104 48 -160.5t132 -56.5q63 0 125 29 q88 43 135 123q31 51 47 127l127 487q-68 88 -190 88q-90 0 -164 -49q-49 -33 -97 -96q-76 -100 -119.5 -246t-43.5 -246z" />
<glyph unicode="r" horiz-adv-x="641" d="M86 0l264 1024h176l-47 -160q59 72 109 109q84 63 170 63q29 0 40 -2t46 -18l-49 -154q-25 16 -53.5 28.5t-61.5 12.5q-45 0 -84 -20q-63 -33 -115 -121q-25 -43 -42 -91.5t-31 -105.5l-148 -565h-174z" />
<glyph unicode="s" horiz-adv-x="854" d="M84 268l6 62l166 -11l-2 -36q0 -96 61.5 -147.5t153.5 -51.5q98 0 152 55q45 47 45 115q0 72 -54 125q-35 35 -125 88l-63 43q-78 51 -113 92q-59 70 -59 162q0 113 76 188q90 90 264 90q47 0 68.5 -3t62.5 -13q109 -27 158 -98q41 -59 41 -135l-4 -56l-150 8l4 46 q0 78 -56.5 113.5t-127.5 35.5q-74 0 -122 -38t-48 -101q0 -57 45 -105q29 -29 115 -86l73 -47q88 -59 123 -102q57 -70 57 -166q0 -63 -23.5 -120.5t-66.5 -100.5q-59 -57 -153 -80q-53 -12 -123 -12q-184 0 -282.5 78.5t-98.5 207.5z" />
<glyph unicode="t" horiz-adv-x="598" d="M197 164q0 53 30 168l154 594h-168l25 98h168l57 219l180 23l-63 -242h194l-24 -98h-195l-156 -598q-6 -23 -15 -64t-9 -63q0 -102 112 -103q37 0 61.5 7.5t53.5 21.5l-31 -119q-37 -12 -66.5 -19t-84.5 -7q-92 0 -150 36q-31 20 -46 43t-21 50.5t-6 52.5z" />
<glyph unicode="u" d="M147 197q0 41 9.5 88t23.5 102l164 637h174l-172 -664q-12 -49 -16 -69.5t-4 -52.5q0 -72 43 -106t112 -34q74 0 143.5 34t110.5 83q27 31 47 84q14 39 33 104l162 621h174l-264 -1024h-176l30 117q-80 -66 -168 -100.5t-184 -34.5q-115 0 -174 51q-68 57 -68 164z" />
<glyph unicode="v" horiz-adv-x="854" d="M199 1024h174l39 -711v-143l67 129l414 725h162l-604 -1024h-179z" />
<glyph unicode="w" horiz-adv-x="1409" d="M203 1024h174l12 -762v-94l35 74l414 782h163l5 -737l-2 -119l59 119l383 737h158l-557 -1024h-189l-8 662v135l-70 -142l-354 -655h-188z" />
<glyph unicode="x" horiz-adv-x="894" d="M-47 0l491 530l-194 494h184l146 -365l321 365h164l-438 -494l215 -530h-189l-159 403l-363 -403h-178z" />
<glyph unicode="y" horiz-adv-x="854" d="M-96 -391l41 131q39 -16 66.5 -24.5t58.5 -8.5q49 0 89 24.5t79 88.5q53 86 53 174q0 18 -2 46t-8 99l-84 887h176l53 -727q0 -82 2 -113.5t4 -60.5q14 43 34.5 85t39.5 79l377 737h168l-586 -1092q-33 -55 -68 -115.5t-55 -86.5q-45 -63 -90 -97q-82 -59 -184 -59 q-31 0 -73 7t-91 26z" />
<glyph unicode="z" horiz-adv-x="894" d="M0 0l35 109l756 798h-539l29 117h745l-29 -117l-749 -786h598l-33 -121h-813z" />
<glyph unicode="{" horiz-adv-x="724" d="M254 539v82q47 18 65 32q31 25 54 78q14 35 18 88t4 156q0 152 7.5 221.5t37.5 118.5q47 82 111.5 107.5t187.5 25.5v-74q-125 -35 -159 -114q-27 -61 -27 -234q0 -246 -27.5 -327t-136.5 -119q104 -37 134 -121t30 -326q0 -174 25 -231q35 -82 161 -117v-74 q-121 0 -185.5 24.5t-113.5 108.5q-31 49 -38 118t-7 222q0 186 -21.5 239.5t-54.5 80.5q-22 19 -65 35z" />
<glyph unicode="|" horiz-adv-x="468" d="M270 -512v2048h123v-2048h-123z" />
<glyph unicode="}" horiz-adv-x="724" d="M262 -215q125 35 160 115q27 61 27 233q0 246 27.5 327t135.5 120q-104 37 -133.5 120.5t-29.5 325.5q0 174 -25 231q-35 82 -162 117v74q121 0 185.5 -24.5t113.5 -108.5q31 -49 38 -118t7 -222q0 -186 21.5 -239.5t54.5 -80.5q23 -18 66 -34v-82q-47 -18 -66 -33 q-31 -25 -53 -78q-14 -35 -18.5 -88t-4.5 -156q0 -152 -7 -221t-38 -119q-47 -82 -119 -110q-57 -23 -180 -23v74z" />
<glyph unicode="~" horiz-adv-x="1492" d="M371 580q51 82 115.5 122.5t136.5 40.5q55 0 118 -22q33 -12 113 -49l66 -31q51 -23 79.5 -32t53.5 -9q59 0 112 41q35 27 86 88l64 -113q-59 -74 -113 -110q-72 -47 -149 -47q-63 0 -199 63l-57 29q-55 25 -100.5 38t-71.5 13q-66 0 -113 -47q-20 -20 -74 -86z" />
<glyph unicode="&#xa1;" horiz-adv-x="512" d="M66 0l280 993h150l-230 -993h-200zM360 1141l50 186h200l-49 -186h-201z" />
<glyph unicode="&#xa2;" horiz-adv-x="980" d="M154 326q0 119 45 270.5t114 249.5q86 123 205 168q76 29 184 28l41 164h113l-45 -174q53 -12 61 -14q37 -12 74 -37q55 -39 83 -99.5t28 -129.5l-6 -76h-166q8 35 8 72q0 63 -18.5 103t-62.5 62.5t-99 22.5q-154 0 -240 -133q-55 -80 -97 -233.5t-42 -256.5 q0 -119 65 -180q55 -51 146 -51q115 0 184 78q37 43 82 149h172q-12 -53 -14 -57q-18 -53 -68 -115q-84 -102 -203 -137q-63 -18 -157 -18l-54 -207h-112l55 211q-74 16 -113 34q-164 84 -163 306z" />
<glyph unicode="&#xa3;" horiz-adv-x="1110" d="M68 0l28 115q109 25 178 104q78 88 146 283h-223l26 102h223l66 234q61 215 143 321q141 184 385 184q63 0 117 -12q29 -6 84 -28l-33 -125q-47 23 -73 30q-45 14 -101 15q-143 0 -227 -107q-72 -90 -131 -303l-43 -162l-15 -47h363l-27 -102h-362 q-49 -147 -112.5 -227.5t-180.5 -141.5h793l-35 -133h-989z" />
<glyph unicode="&#xa4;" horiz-adv-x="1366" d="M244 223l153 150q-49 66 -71 114q-41 94 -41 207q0 111 41 205q25 59 69 117l-147 149l92 92l147 -149q63 45 117 70q98 43 207 43q111 0 205 -41q53 -23 117 -70l149 150l94 -95l-151 -149q49 -68 69 -113q41 -92 41 -207q0 -117 -41 -209q-20 -49 -71 -114l151 -152 l-94 -94l-150 154q-66 -47 -114 -70q-92 -41 -205 -41q-115 0 -207 41q-55 25 -115 70l-153 -150zM408 696q0 -172 116.5 -288.5t288.5 -116.5q166 0 281.5 115.5t115.5 289.5t-116.5 289t-282.5 115q-170 0 -286.5 -115t-116.5 -289z" />
<glyph unicode="&#xa5;" horiz-adv-x="1024" d="M129 383l27 104h362l-41 144h-284l26 104h230l-166 590h188l139 -539l37 -135l101 135l399 539h192l-450 -590h209l-27 -104h-264l-113 -144h340l-26 -104h-340l-99 -383h-178l98 383h-360z" />
<glyph unicode="&#xa6;" horiz-adv-x="468" d="M270 389h123v-780h-123v780zM270 631v780h123v-780h-123z" />
<glyph unicode="&#xa7;" horiz-adv-x="811" d="M76 59l33 129q70 -49 128 -70.5t113 -21.5q88 0 135 45t47 111q0 55 -38 113q-8 14 -56 71l-65 86q-53 70 -76 111q-41 74 -41 141q0 55 27.5 111.5t81.5 101.5q18 18 29.5 25.5t74.5 44.5q-18 27 -31 57q-18 43 -18 88q0 72 40 136.5t116.5 95t168.5 30.5q84 0 150 -20 q37 -12 78 -35l-31 -115q-51 31 -99 46.5t-104 15.5q-76 0 -118.5 -37t-42.5 -96q0 -57 40 -119l62 -78l59 -74q70 -90 95 -133q39 -70 38 -139q0 -106 -86 -201q-47 -51 -120 -98q12 -25 18 -51.5t6 -55.5q0 -100 -65 -180q-92 -113 -277 -112q-82 0 -146.5 17t-125.5 60z M406 811q0 -43 22 -84q12 -23 78 -111l47 -59l72 -92q43 35 63 63q37 49 37 103q0 49 -31 106q-18 33 -63 92l-47 62l-68 92q-66 -49 -88 -88t-22 -84z" />
<glyph unicode="&#xa8;" horiz-adv-x="555" d="M0 1182l43 170h176l-45 -170h-174zM336 1182l43 170h176l-43 -170h-176z" />
<glyph unicode="&#xa9;" horiz-adv-x="1705" d="M221 723q0 309 214 519t513 210q313 0 522 -215t209 -518q0 -305 -209.5 -515t-521.5 -210q-293 0 -506 203q-221 211 -221 526zM287 723q0 -279 194.5 -471.5t468.5 -192.5q281 0 472.5 192t191.5 468q0 279 -188.5 473t-473.5 194q-279 0 -472 -193.5t-193 -469.5z M492 723q0 203 135 340t338 137q119 0 210 -46t171 -142l-86 -80q-55 63 -101 94q-88 59 -194 59q-145 0 -250 -102t-105 -258q0 -154 104.5 -256t252.5 -102q109 0 194 57q48 31 99 94l86 -74q-80 -104 -195 -153q-92 -39 -188 -39q-197 0 -334 133t-137 338z" />
<glyph unicode="&#xaa;" horiz-adv-x="681" d="M258 905q0 78 41 133q20 29 53 52q57 39 178 57q51 8 195 24l10 41q8 37 10.5 46.5t2.5 25.5q0 47 -30 70.5t-83 23.5q-86 0 -129 -55q-25 -31 -41 -90h-127q16 70 38.5 106.5t67.5 65.5q76 51 199 51q98 0 166 -38t68 -126q0 -18 -3.5 -37.5t-9.5 -44.5l-86 -333 q-12 -55 -12 -68q0 -35 31 -39l-9 -27h-83q-70 0 -70 64q-25 -25 -66 -45q-63 -31 -127 -31q-74 0 -120 33q-63 45 -64 141zM389 911q0 -41 22.5 -67.5t71.5 -26.5q39 0 79 18.5t61.5 39t31 42t23.5 72.5l29 107q-164 0 -241 -44t-77 -141z" />
<glyph unicode="&#xab;" horiz-adv-x="768" d="M145 528l304 383h147l-320 -383l160 -376h-125zM442 528l306 383h147l-320 -383l158 -376h-125z" />
<glyph unicode="&#xac;" horiz-adv-x="1366" d="M96 537v120h1243h123v-657h-123v537h-1243z" />
<glyph unicode="&#xad;" horiz-adv-x="1366" d="M96 537v120h1366v-120h-1366z" />
<glyph unicode="&#xae;" horiz-adv-x="1705" d="M219 723q0 309 214 519t515 210q313 0 522 -215t209 -518t-211 -514t-522 -211q-293 0 -506 203q-221 211 -221 526zM285 723q0 -279 194.5 -471.5t468.5 -192.5q279 0 472.5 191.5t193.5 470.5q0 276 -190.5 470.5t-471.5 194.5t-474 -193.5t-193 -469.5zM655 270v912 h281q49 0 106.5 -1t106.5 -20q68 -27 103.5 -82t35.5 -125q0 -90 -57 -147t-148 -72q72 -27 103 -72t46 -142t27.5 -146t38.5 -105h-153q-14 31 -27 76q-4 14 -10 49l-23 146q-18 94 -70 123.5t-161 29.5h-66v-424h-133zM791 801h153q82 0 125 16q84 33 84 127q0 63 -43 100 q-27 25 -61.5 30t-133.5 5h-124v-278z" />
<glyph unicode="&#xaf;" horiz-adv-x="555" d="M-8 1186l31 133h542l-28 -133h-545z" />
<glyph unicode="&#xb0;" horiz-adv-x="724" d="M266 1231q0 125 88 213t213 88t213 -88t88 -213t-88 -213t-213 -88t-213 88t-88 213zM389 1231q0 -74 52.5 -126t125.5 -52q74 0 126 52t52 126t-52 126t-126 52t-126 -52t-52 -126z" />
<glyph unicode="&#xb1;" horiz-adv-x="1366" d="M178 0v121h1200v-121h-1200zM178 776v121h543v524h121v-524h536v-121h-536v-524h-121v524h-543z" />
<glyph unicode="&#xb2;" horiz-adv-x="681" d="M115 422l26 104q37 35 111 99q94 80 158 133l77 63q233 195 234 307q0 66 -40 94.5t-93 28.5q-96 0 -142 -69q-27 -41 -51 -154h-129q18 135 70 203q80 106 256 106q96 0 164 -37q100 -55 100 -178q0 -96 -70 -184q-45 -55 -165 -156l-60 -47l-162 -129l-98 -80h442 l-26 -104h-602z" />
<glyph unicode="&#xb3;" horiz-adv-x="681" d="M162 641l2 39h129q0 -94 36 -136t117 -42q25 0 44.5 3t35.5 11q53 20 81 71.5t28 112.5q0 74 -46 110t-192 36h-30l22 90h31h47q51 0 88 6q70 14 104 53q43 47 43 133q0 123 -122 123q-63 0 -103.5 -33.5t-60.5 -115.5h-129q16 63 35 98q31 57 84 90q76 47 178 47 q106 0 172 -43q80 -53 80 -161q0 -94 -56.5 -161t-152.5 -87q76 -27 109.5 -73t33.5 -118q0 -109 -74 -186q-90 -96 -256 -96q-66 0 -116 13t-85.5 43t-56 72t-20.5 101z" />
<glyph unicode="&#xb4;" horiz-adv-x="555" d="M59 1145l224 276h213l-293 -276h-144z" />
<glyph unicode="&#xb5;" d="M-31 -422l195 739l16 70l164 639h174l-172 -666q-12 -49 -16 -69.5t-4 -52.5q0 -72 43 -106t114 -34q72 0 141.5 34t110.5 83q27 31 45.5 80t34.5 108l162 623h174l-264 -1026h-176l28 106q-66 -63 -131 -90.5t-145 -27.5q-68 0 -101 12q-51 18 -90 76l-129 -498h-174z " />
<glyph unicode="&#xb6;" horiz-adv-x="1366" d="M281 1049q0 98 38 180q33 68 87 114q74 66 172 89q61 14 153 14h455v-90h-70v-1698h-94v1698h-322v-1698h-94v1018q-78 12 -113.5 26.5t-74.5 45.5q-66 49 -101.5 131t-35.5 170z" />
<glyph unicode="&#xb7;" horiz-adv-x="425" d="M184 432l49 191h197l-49 -191h-197z" />
<glyph unicode="&#xb8;" horiz-adv-x="555" d="M80 -449l26 101q55 -8 95 -8q37 0 67 8q80 27 80 98q0 55 -50 70.5t-122 15.5l68 199h82l-43 -119q25 0 49 -1t51 -11q37 -23 49 -35q43 -45 43 -113q0 -47 -19.5 -88t-52 -67.5t-84 -41t-131.5 -14.5z" />
<glyph unicode="&#xb9;" horiz-adv-x="681" d="M362 422l193 776h-176l22 86q162 14 322 55l-229 -917h-132z" />
<glyph unicode="&#xba;" horiz-adv-x="724" d="M279 975q0 94 31.5 194.5t92.5 171.5q49 59 118 88t155 29q90 0 151 -39q100 -63 101 -207q0 -27 -3.5 -56t-11.5 -66q-39 -186 -128 -272.5t-236 -86.5q-121 0 -193 60q-78 66 -77 184zM410 969q0 -72 34.5 -113t108.5 -41q80 0 131 53q65 68 102 240q8 31 12.5 65.5 t4.5 59.5q0 84 -53 119q-35 23 -84 22q-119 0 -187.5 -126t-68.5 -279z" />
<glyph unicode="&#xbb;" horiz-adv-x="768" d="M49 152l320 383l-158 376h123l168 -376l-305 -383h-148zM348 152l320 383l-160 376h125l166 -376l-303 -383h-148z" />
<glyph unicode="&#xbc;" horiz-adv-x="1622" d="M362 422l193 776h-176l22 86q162 14 322 55l-229 -917h-132zM406 0l843 1325h107l-840 -1325h-110zM987 201l19 75q74 102 214 316.5t197 310.5h150l-209 -317q-41 -61 -111 -160q-57 -80 -88 -123h238l84 324l129 10l-86 -334h100l-27 -102h-100l-51 -201h-127l51 201 h-383z" />
<glyph unicode="&#xbd;" horiz-adv-x="1622" d="M362 422l193 778h-176l22 86q162 14 322 55l-229 -919h-132zM377 0l842 1327h108l-840 -1327h-110zM940 0l27 104q39 39 75 70q57 51 193 162l78 63q233 195 233 308q0 66 -40 94t-93 28q-96 0 -141 -69q-27 -41 -51 -154h-129q18 135 69 203q80 106 256 106 q96 0 164 -36q100 -55 100 -179q0 -96 -69 -184q-45 -55 -166 -156l-60 -47l-161 -129l-99 -80h443l-27 -104h-602z" />
<glyph unicode="&#xbe;" horiz-adv-x="1622" d="M162 641l2 39h129q0 -94 36 -136t117 -42q25 0 44.5 3t35.5 11q53 20 81 71.5t28 112.5q0 74 -46 110t-192 36h-30l22 90h31h47q51 0 88 6q70 14 104 53q43 47 43 133q0 123 -122 123q-63 0 -103.5 -33.5t-60.5 -115.5h-129q16 63 35 98q31 57 84 90q76 47 178 47 q106 0 172 -43q80 -53 80 -161q0 -94 -56.5 -161t-152.5 -87q76 -27 109.5 -73t33.5 -118q0 -109 -74 -186q-90 -96 -256 -96q-66 0 -116 13t-85.5 43t-56 72t-20.5 101zM494 0l843 1327h107l-840 -1327h-110zM987 201l19 75q82 115 211 312q139 213 200 317h150l-209 -319 q-41 -61 -111 -160q-57 -80 -88 -123h238l84 326l129 8l-86 -334h100l-27 -102h-100l-51 -201h-127l51 201h-383z" />
<glyph unicode="&#xbf;" horiz-adv-x="980" d="M135 319q0 129 63.5 237t184.5 179q68 39 160 68q55 17 133 33l41 155h149l-69 -268q-109 0 -187 -21q-111 -29 -186 -104q-47 -49 -76 -123t-29 -149q0 -109 56.5 -169.5t148.5 -60.5q88 0 143.5 50.5t102.5 224.5h170q-39 -174 -96 -250q-102 -135 -316 -135 q-180 0 -282 82q-111 88 -111 251zM719 1139l49 188h199l-47 -188h-201z" />
<glyph unicode="&#xc0;" horiz-adv-x="1323" d="M-43 0l926 1448h233l162 -1448h-188l-60 555h-530l-346 -555h-197zM586 690h430l-47 451l-13 143l-69 -117zM791 1833h184l133 -277h-129z" />
<glyph unicode="&#xc1;" horiz-adv-x="1323" d="M-43 0l926 1448h233l162 -1448h-188l-60 555h-530l-346 -555h-197zM586 690h430l-47 451l-13 143l-69 -117zM915 1554l224 279h213l-291 -279h-146z" />
<glyph unicode="&#xc2;" horiz-adv-x="1323" d="M-43 0l926 1448h233l162 -1448h-188l-60 555h-530l-346 -555h-197zM586 690h430l-47 451l-13 143l-69 -117zM768 1556l227 277h179l83 -277h-122l-60 201l-162 -201h-145z" />
<glyph unicode="&#xc3;" horiz-adv-x="1323" d="M-43 0l926 1448h233l162 -1448h-188l-60 555h-530l-346 -555h-197zM586 690h430l-47 451l-13 143l-69 -117zM727 1559l23 81q27 92 47 125q35 53 104 54q43 0 88 -25q18 -10 62 -39l63 -47q57 -41 74 -41q18 0 26.5 16.5t24.5 73.5l12 58h127l-28 -107 q-27 -96 -57.5 -125t-82.5 -29q-39 0 -77 19q-23 10 -74 47l-53 41q-66 43 -84 43q-20 0 -29.5 -16.5t-24.5 -75.5l-14 -53h-127z" />
<glyph unicode="&#xc4;" horiz-adv-x="1323" d="M-43 0l926 1448h233l162 -1448h-188l-60 555h-530l-346 -555h-197zM586 690h430l-47 451l-13 143l-69 -117zM764 1591l45 170h174l-43 -170h-176zM1100 1591l45 170h176l-45 -170h-176z" />
<glyph unicode="&#xc5;" horiz-adv-x="1323" d="M-43 0l926 1448h233l162 -1448h-188l-60 555h-530l-346 -555h-197zM586 690h430l-47 451l-13 143l-69 -117zM868 1702q0 82 54.5 134t130.5 52t129 -49t53 -125q0 -82 -53.5 -137t-130.5 -55q-72 0 -123 45q-59 51 -60 135zM961 1704q0 -37 26.5 -63.5t63.5 -26.5 q43 0 67.5 28.5t24.5 69.5q-4 35 -28.5 60.5t-61.5 25.5t-64.5 -25.5t-27.5 -68.5z" />
<glyph unicode="&#xc6;" horiz-adv-x="1878" d="M-43 0l1073 1446h1049l-37 -137h-598l-125 -486h586l-35 -137h-586l-141 -545h710l-36 -141h-899l176 686h-432l-500 -686h-205zM766 823h364l125 486h-135z" />
<glyph unicode="&#xc7;" horiz-adv-x="1280" d="M203 432q0 186 73 430q90 301 236 443q100 98 231 137q92 27 211 26q238 0 359 -108.5t121 -300.5l-4 -66h-187l4 72q0 80 -24 139q-16 41 -45 70q-72 76 -217 76q-137 0 -230 -64q-76 -51 -139 -162q-72 -121 -132.5 -346t-60.5 -358q0 -68 11 -109q18 -76 71 -127 q35 -35 95.5 -59.5t136.5 -24.5q176 0 291 121q65 70 126 209h199q-20 -59 -31 -86q-20 -51 -51 -98q-80 -123 -205 -191q-139 -76 -315 -75l-78 2l-22 -66q35 0 56.5 -3t43.5 -11q39 -16 65.5 -55.5t26.5 -90.5q0 -47 -19.5 -88t-52 -67.5t-84 -41t-131.5 -14.5 q-59 0 -108 6l25 101q55 -8 94 -8q41 0 74.5 10t54 37.5t20.5 58.5q0 53 -61 74q-39 12 -111 12l53 158q-76 16 -110 29q-68 25 -123 73q-78 66 -107.5 152t-29.5 184z" />
<glyph unicode="&#xc8;" d="M111 0l374 1446h797l-37 -139h-598l-125 -484h586l-37 -139h-586l-139 -545h696l-36 -139h-895zM662 1833h184l133 -277h-129z" />
<glyph unicode="&#xc9;" d="M111 0l374 1446h797l-37 -139h-598l-125 -484h586l-37 -139h-586l-139 -545h696l-36 -139h-895zM786 1554l224 279h213l-291 -279h-146z" />
<glyph unicode="&#xca;" d="M111 0l374 1446h797l-37 -139h-598l-125 -484h586l-37 -139h-586l-139 -545h696l-36 -139h-895zM639 1556l227 277h178l84 -277h-122l-60 201l-162 -201h-145z" />
<glyph unicode="&#xcb;" d="M111 0l374 1446h797l-37 -139h-598l-125 -484h586l-37 -139h-586l-139 -545h696l-36 -139h-895zM645 1591l45 170h174l-43 -170h-176zM981 1591l45 170h176l-45 -170h-176z" />
<glyph unicode="&#xcc;" horiz-adv-x="512" d="M111 0l374 1446h203l-383 -1446h-194zM385 1833h184l133 -277h-129z" />
<glyph unicode="&#xcd;" horiz-adv-x="512" d="M111 0l374 1446h203l-383 -1446h-194zM510 1554l223 279h213l-291 -279h-145z" />
<glyph unicode="&#xce;" horiz-adv-x="512" d="M111 0l374 1446h203l-383 -1446h-194zM362 1556l228 277h178l84 -277h-123l-59 201l-162 -201h-146z" />
<glyph unicode="&#xcf;" horiz-adv-x="512" d="M111 0l374 1446h203l-383 -1446h-194zM367 1591l45 170h174l-43 -170h-176zM702 1591l46 170h176l-45 -170h-177z" />
<glyph unicode="&#xd0;" horiz-adv-x="1409" d="M111 0l184 707h-152l33 122h150l159 617h402q127 0 210 -11.5t158 -50.5q135 -74 187 -223q29 -86 28 -207q0 -150 -43 -317.5t-120 -302.5q-121 -213 -314 -285q-128 -49 -366 -49h-516zM340 129h229q244 0 346 47q129 59 224 248q63 121 99 274.5t36 276.5 q0 88 -19 143q-37 109 -141 160q-47 23 -106.5 30t-159.5 7h-201l-125 -486h369l-33 -122h-369z" />
<glyph unicode="&#xd1;" horiz-adv-x="1366" d="M111 0l383 1446h200l299 -979q23 -76 44.5 -160t27.5 -114q23 113 37 174q6 29 37 153l237 926h166l-375 -1446h-202l-297 948q-29 96 -42.5 150.5t-31.5 134.5l-53 -234l-258 -999h-172zM748 1559l22 81q27 92 47 125q35 53 105 54q43 0 88 -25q18 -10 61 -39l64 -47 q57 -41 73 -41q18 0 26.5 16.5t25.5 73.5l12 58h127l-29 -107q-27 -96 -57.5 -125t-81.5 -29q-39 0 -78 19q-23 10 -74 47l-53 41q-66 43 -84 43q-20 0 -29.5 -16.5t-23.5 -75.5l-15 -53h-126z" />
<glyph unicode="&#xd2;" horiz-adv-x="1409" d="M209 440q0 131 47 324q41 166 90 283q88 207 229 309q156 113 402 112q121 0 212 -27.5t159 -82.5q88 -70 120 -174q23 -70 23 -168q0 -59 -9 -131t-40 -197q-47 -193 -101 -315q-63 -147 -149 -231.5t-203 -123t-250 -38.5q-233 0 -368 98q-162 117 -162 362zM410 420 q0 -131 55 -205q41 -59 113.5 -87t156.5 -28q213 0 332 164q92 127 174 451q23 84 37 165t14 160q0 51 -7 89t-25 75q-27 47 -68 80q-86 68 -217 68q-96 0 -176 -35t-146 -113q-109 -129 -182 -407q-61 -231 -61 -377zM834 1833h184l133 -277h-129z" />
<glyph unicode="&#xd3;" horiz-adv-x="1409" d="M209 440q0 131 47 324q41 166 90 283q88 207 229 309q156 113 402 112q121 0 212 -27.5t159 -82.5q88 -70 120 -174q23 -70 23 -168q0 -59 -9 -131t-40 -197q-47 -193 -101 -315q-63 -147 -149 -231.5t-203 -123t-250 -38.5q-233 0 -368 98q-162 117 -162 362zM410 420 q0 -131 55 -205q41 -59 113.5 -87t156.5 -28q213 0 332 164q92 127 174 451q23 84 37 165t14 160q0 51 -7 89t-25 75q-27 47 -68 80q-86 68 -217 68q-96 0 -176 -35t-146 -113q-109 -129 -182 -407q-61 -231 -61 -377zM958 1554l224 279h213l-291 -279h-146z" />
<glyph unicode="&#xd4;" horiz-adv-x="1409" d="M209 440q0 131 47 324q41 166 90 283q88 207 229 309q156 113 402 112q121 0 212 -27.5t159 -82.5q88 -70 120 -174q23 -70 23 -168q0 -59 -9 -131t-40 -197q-47 -193 -101 -315q-63 -147 -149 -231.5t-203 -123t-250 -38.5q-233 0 -368 98q-162 117 -162 362zM410 420 q0 -131 55 -205q41 -59 113.5 -87t156.5 -28q213 0 332 164q92 127 174 451q23 84 37 165t14 160q0 51 -7 89t-25 75q-27 47 -68 80q-86 68 -217 68q-96 0 -176 -35t-146 -113q-109 -129 -182 -407q-61 -231 -61 -377zM811 1556l227 277h179l83 -277h-122l-60 201l-162 -201 h-145z" />
<glyph unicode="&#xd5;" horiz-adv-x="1409" d="M209 440q0 131 47 324q41 166 90 283q88 207 229 309q156 113 402 112q121 0 212 -27.5t159 -82.5q88 -70 120 -174q23 -70 23 -168q0 -59 -9 -131t-40 -197q-47 -193 -101 -315q-63 -147 -149 -231.5t-203 -123t-250 -38.5q-233 0 -368 98q-162 117 -162 362zM410 420 q0 -131 55 -205q41 -59 113.5 -87t156.5 -28q213 0 332 164q92 127 174 451q23 84 37 165t14 160q0 51 -7 89t-25 75q-27 47 -68 80q-86 68 -217 68q-96 0 -176 -35t-146 -113q-109 -129 -182 -407q-61 -231 -61 -377zM770 1559l23 81q27 92 47 125q35 53 104 54 q43 0 88 -25q18 -10 62 -39l63 -47q57 -41 74 -41q18 0 26.5 16.5t24.5 73.5l12 58h127l-28 -107q-27 -96 -57.5 -125t-82.5 -29q-39 0 -77 19q-23 10 -74 47l-53 41q-66 43 -84 43q-20 0 -29.5 -16.5t-24.5 -75.5l-14 -53h-127z" />
<glyph unicode="&#xd6;" horiz-adv-x="1409" d="M209 440q0 131 47 324q41 166 90 283q88 207 229 309q156 113 402 112q121 0 212 -27.5t159 -82.5q88 -70 120 -174q23 -70 23 -168q0 -59 -9 -131t-40 -197q-47 -193 -101 -315q-63 -147 -149 -231.5t-203 -123t-250 -38.5q-233 0 -368 98q-162 117 -162 362zM410 420 q0 -131 55 -205q41 -59 113.5 -87t156.5 -28q213 0 332 164q92 127 174 451q23 84 37 165t14 160q0 51 -7 89t-25 75q-27 47 -68 80q-86 68 -217 68q-96 0 -176 -35t-146 -113q-109 -129 -182 -407q-61 -231 -61 -377zM813 1591l45 170h174l-43 -170h-176zM1149 1591l45 170 h176l-45 -170h-176z" />
<glyph unicode="&#xd7;" horiz-adv-x="1366" d="M268 170l424 426l-424 422l86 86l424 -424l426 424l86 -86l-426 -422l426 -426l-86 -84l-426 424l-424 -424z" />
<glyph unicode="&#xd8;" horiz-adv-x="1409" d="M137 29l135 143q-23 33 -32 53q-18 37 -27.5 80t-11.5 69.5t-2 57.5q0 166 83 427t191.5 392t259.5 183q102 35 242 34q141 0 250 -45q66 -27 143 -84l127 134l66 -60l-134 -141q16 -27 29 -55q35 -82 35 -197q0 -172 -76 -420t-162 -369q-109 -152 -270 -211 q-111 -41 -266 -40q-145 0 -258 47q-59 25 -129 75l-129 -137zM387 422q0 -29 3 -62t5 -53l865 916q-51 66 -117 96.5t-150 30.5q-131 0 -227 -56q-78 -45 -148 -137q-96 -133 -163.5 -353t-67.5 -382zM438 219q41 -47 88 -74q84 -49 191 -49q170 0 280 99 q66 57 126.5 174.5t111.5 292.5q68 225 68 380l-5 91z" />
<glyph unicode="&#xd9;" horiz-adv-x="1366" d="M213 315q0 57 10 113q0 4 29 127l229 891h201l-221 -850q-23 -90 -35 -153.5t-12 -106.5q0 -37 7 -70t28 -59q29 -43 99 -70.5t161 -27.5q57 0 103 8t91 33q98 53 154 165q37 76 90 279l221 852h176l-256 -985q-45 -154 -80 -221q-63 -121 -174 -185q-133 -76 -352 -75 q-104 0 -179 15t-138 50q-88 51 -125 133q-27 59 -27 137zM811 1833h184l133 -277h-129z" />
<glyph unicode="&#xda;" horiz-adv-x="1366" d="M213 315q0 57 10 113q0 4 29 127l229 891h201l-221 -850q-23 -90 -35 -153.5t-12 -106.5q0 -37 7 -70t28 -59q29 -43 99 -70.5t161 -27.5q57 0 103 8t91 33q98 53 154 165q37 76 90 279l221 852h176l-256 -985q-45 -154 -80 -221q-63 -121 -174 -185q-133 -76 -352 -75 q-104 0 -179 15t-138 50q-88 51 -125 133q-27 59 -27 137zM936 1554l223 279h213l-291 -279h-145z" />
<glyph unicode="&#xdb;" horiz-adv-x="1366" d="M213 315q0 57 10 113q0 4 29 127l229 891h201l-221 -850q-23 -90 -35 -153.5t-12 -106.5q0 -37 7 -70t28 -59q29 -43 99 -70.5t161 -27.5q57 0 103 8t91 33q98 53 154 165q37 76 90 279l221 852h176l-256 -985q-45 -154 -80 -221q-63 -121 -174 -185q-133 -76 -352 -75 q-104 0 -179 15t-138 50q-88 51 -125 133q-27 59 -27 137zM788 1556l228 277h178l84 -277h-123l-59 201l-162 -201h-146z" />
<glyph unicode="&#xdc;" horiz-adv-x="1366" d="M213 315q0 57 10 113q0 4 29 127l229 891h201l-221 -850q-23 -90 -35 -153.5t-12 -106.5q0 -37 7 -70t28 -59q29 -43 99 -70.5t161 -27.5q57 0 103 8t91 33q98 53 154 165q37 76 90 279l221 852h176l-256 -985q-45 -154 -80 -221q-63 -121 -174 -185q-133 -76 -352 -75 q-104 0 -179 15t-138 50q-88 51 -125 133q-27 59 -27 137zM786 1591l45 170h175l-43 -170h-177zM1122 1591l45 170h176l-45 -170h-176z" />
<glyph unicode="&#xdd;" d="M285 1446h202l152 -588l41 -151l113 151l438 588h203l-703 -916l-137 -530h-191l140 530zM786 1554l224 279h213l-291 -279h-146z" />
<glyph unicode="&#xde;" horiz-adv-x="1110" d="M111 0l374 1446h199l-68 -258h121q168 0 247 -15.5t149 -76.5q61 -55 86 -138q16 -55 16 -131q0 -139 -57.5 -257.5t-144.5 -180t-206 -82.5q-72 -12 -200 -12h-240l-78 -295h-198zM420 428h162h34q39 0 89.5 1t99.5 20q135 45 196 184q41 94 41 192q0 76 -27.5 127.5 t-85 78t-231.5 26.5h-116z" />
<glyph unicode="&#xdf;" horiz-adv-x="1150" d="M106 0l230 971q29 121 47 174q33 94 86 158q86 104 225 141q76 20 168 20q147 0 240 -53q123 -72 123 -233q0 -80 -29 -152q-14 -37 -47 -84q-16 2 -39 5t-51 3l-47 -2q-92 -12 -133 -69q-29 -39 -29 -82q0 -59 61 -131q20 -25 66 -68l35 -33q74 -70 106 -119 q51 -78 51 -163q0 -113 -73 -197q-92 -104 -269 -104q-111 0 -198 36q-156 66 -156 226q0 31 6 61l168 -8l-4 -47q0 -43 15.5 -77t68.5 -60q25 -12 51.5 -17.5t48.5 -5.5q82 0 125 47t43 109q0 80 -137 211l-41 41q-68 72 -92 110q-45 72 -45 150q0 88 49 153q39 51 105 86 q39 20 89 31.5t113 11.5q18 51 25.5 82t7.5 62q0 88 -57.5 135t-151.5 47q-43 0 -73.5 -5t-67.5 -24q-92 -43 -141 -145q-35 -72 -78 -252l-219 -940h-175z" />
<glyph unicode="&#xe0;" horiz-adv-x="980" d="M111 229q0 174 137 269q100 70 553 120l18 66q10 47 14.5 65.5t4.5 45.5q0 74 -45 110.5t-131 36.5q-47 0 -92.5 -13.5t-90.5 -56.5q-31 -31 -49 -71q-8 -18 -24 -74h-173q14 66 39 113q41 80 113 129q109 74 289 73q139 0 225 -47q113 -61 113 -190q0 -37 -3 -51.5 t-16 -67.5l-127 -496q-8 -31 -13 -55t-5 -45q0 -35 16 -51q9 -10 27 -14l-8 -25h-119q-55 0 -74.5 21.5t-19.5 84.5q-115 -125 -295 -124q-61 0 -109.5 15t-87.5 53t-53 83t-14 96zM291 240q0 -63 35.5 -105.5t111.5 -42.5q59 0 119.5 27.5t92.5 59.5t48 67q10 24 35 106 l45 170q-90 0 -198.5 -20.5t-167.5 -52.5q-121 -66 -121 -209zM510 1421h186l133 -276h-131z" />
<glyph unicode="&#xe1;" horiz-adv-x="980" d="M111 229q0 174 137 269q100 70 553 120l18 66q10 47 14.5 65.5t4.5 45.5q0 74 -45 110.5t-131 36.5q-47 0 -92.5 -13.5t-90.5 -56.5q-31 -31 -49 -71q-8 -18 -24 -74h-173q14 66 39 113q41 80 113 129q109 74 289 73q139 0 225 -47q113 -61 113 -190q0 -37 -3 -51.5 t-16 -67.5l-127 -496q-8 -31 -13 -55t-5 -45q0 -35 16 -51q9 -10 27 -14l-8 -25h-119q-55 0 -74.5 21.5t-19.5 84.5q-115 -125 -295 -124q-61 0 -109.5 15t-87.5 53t-53 83t-14 96zM291 240q0 -63 35.5 -105.5t111.5 -42.5q59 0 119.5 27.5t92.5 59.5t48 67q10 24 35 106 l45 170q-90 0 -198.5 -20.5t-167.5 -52.5q-121 -66 -121 -209zM637 1145l224 276h213l-293 -276h-144z" />
<glyph unicode="&#xe2;" horiz-adv-x="980" d="M111 229q0 174 137 269q100 70 553 120l18 66q10 47 14.5 65.5t4.5 45.5q0 74 -45 110.5t-131 36.5q-47 0 -92.5 -13.5t-90.5 -56.5q-31 -31 -49 -71q-8 -18 -24 -74h-173q14 66 39 113q41 80 113 129q109 74 289 73q139 0 225 -47q113 -61 113 -190q0 -37 -3 -51.5 t-16 -67.5l-127 -496q-8 -31 -13 -55t-5 -45q0 -35 16 -51q9 -10 27 -14l-8 -25h-119q-55 0 -74.5 21.5t-19.5 84.5q-115 -125 -295 -124q-61 0 -109.5 15t-87.5 53t-53 83t-14 96zM291 240q0 -63 35.5 -105.5t111.5 -42.5q59 0 119.5 27.5t92.5 59.5t48 67q10 24 35 106 l45 170q-90 0 -198.5 -20.5t-167.5 -52.5q-121 -66 -121 -209zM486 1145l227 276h182l84 -276h-123l-61 203l-162 -203h-147z" />
<glyph unicode="&#xe3;" horiz-adv-x="980" d="M111 229q0 174 137 269q100 70 553 120l18 66q10 47 14.5 65.5t4.5 45.5q0 74 -45 110.5t-131 36.5q-47 0 -92.5 -13.5t-90.5 -56.5q-31 -31 -49 -71q-8 -18 -24 -74h-173q14 66 39 113q41 80 113 129q109 74 289 73q139 0 225 -47q113 -61 113 -190q0 -37 -3 -51.5 t-16 -67.5l-127 -496q-8 -31 -13 -55t-5 -45q0 -35 16 -51q9 -10 27 -14l-8 -25h-119q-55 0 -74.5 21.5t-19.5 84.5q-115 -125 -295 -124q-61 0 -109.5 15t-87.5 53t-53 83t-14 96zM291 240q0 -63 35.5 -105.5t111.5 -42.5q59 0 119.5 27.5t92.5 59.5t48 67q10 24 35 106 l45 170q-90 0 -198.5 -20.5t-167.5 -52.5q-121 -66 -121 -209zM449 1147l20 84q29 94 50 125q35 51 104 51q59 0 147 -64l64 -45q27 -18 46 -30.5t28 -12.5q23 0 31 24t22 69l12 57h127l-29 -107q-27 -96 -57.5 -124.5t-81.5 -28.5q-41 0 -71.5 15.5t-79.5 49.5l-56 39 q-59 45 -82 45t-30.5 -15t-24.5 -77l-12 -55h-127z" />
<glyph unicode="&#xe4;" horiz-adv-x="980" d="M111 229q0 174 137 269q100 70 553 120l18 66q10 47 14.5 65.5t4.5 45.5q0 74 -45 110.5t-131 36.5q-47 0 -92.5 -13.5t-90.5 -56.5q-31 -31 -49 -71q-8 -18 -24 -74h-173q14 66 39 113q41 80 113 129q109 74 289 73q139 0 225 -47q113 -61 113 -190q0 -37 -3 -51.5 t-16 -67.5l-127 -496q-8 -31 -13 -55t-5 -45q0 -35 16 -51q9 -10 27 -14l-8 -25h-119q-55 0 -74.5 21.5t-19.5 84.5q-115 -125 -295 -124q-61 0 -109.5 15t-87.5 53t-53 83t-14 96zM291 240q0 -63 35.5 -105.5t111.5 -42.5q59 0 119.5 27.5t92.5 59.5t48 67q10 24 35 106 l45 170q-90 0 -198.5 -20.5t-167.5 -52.5q-121 -66 -121 -209zM479 1182l43 170h176l-45 -170h-174zM815 1182l43 170h176l-43 -170h-176z" />
<glyph unicode="&#xe5;" horiz-adv-x="980" d="M111 229q0 174 137 269q100 70 553 120l18 66q10 47 14.5 65.5t4.5 45.5q0 74 -45 110.5t-131 36.5q-47 0 -92.5 -13.5t-90.5 -56.5q-31 -31 -49 -71q-8 -18 -24 -74h-173q14 66 39 113q41 80 113 129q109 74 289 73q139 0 225 -47q113 -61 113 -190q0 -37 -3 -51.5 t-16 -67.5l-127 -496q-8 -31 -13 -55t-5 -45q0 -35 16 -51q9 -10 27 -14l-8 -25h-119q-55 0 -74.5 21.5t-19.5 84.5q-115 -125 -295 -124q-61 0 -109.5 15t-87.5 53t-53 83t-14 96zM291 240q0 -63 35.5 -105.5t111.5 -42.5q59 0 119.5 27.5t92.5 59.5t48 67q10 24 35 106 l45 170q-90 0 -198.5 -20.5t-167.5 -52.5q-121 -66 -121 -209zM583 1292q0 82 54.5 134.5t130.5 52.5t129 -49t53 -125q0 -82 -53.5 -137.5t-131.5 -55.5q-72 0 -122 45q-59 51 -60 135zM675 1294q0 -37 27 -63.5t63 -26.5q43 0 68 29t25 70q-4 35 -29 60.5t-61 25.5 q-37 0 -65 -26t-28 -69z" />
<glyph unicode="&#xe6;" horiz-adv-x="1622" d="M94 231q0 100 53 183q43 68 111 106q78 47 197.5 68.5t259.5 21.5l96 2l20 80q4 20 9.5 49t5.5 52q0 61 -37 100q-47 49 -145 49q-51 0 -93 -12q-72 -20 -118 -78q-18 -20 -34 -53t-26 -76h-174q33 123 98 192q119 127 353 127q47 0 89 -4t91 -19t82 -44q20 -16 45 -53 q53 53 117 82q88 39 211 38q166 0 259 -78.5t93 -238.5q0 -43 -5 -95t-28 -128h-682l-6 -25q-10 -49 -15.5 -83t-5.5 -79q0 -115 68 -174q61 -53 160 -53q63 0 118.5 24.5t96.5 80.5q26 36 59 108h172q-10 -39 -24 -70q-23 -51 -60 -94q-76 -90 -188 -127q-86 -29 -193 -28 q-59 0 -103 7t-89 25q-63 29 -107 72q-20 20 -47 64q-74 -72 -135 -105q-117 -63 -264 -63q-78 0 -127 16q-96 33 -137 127q-12 27 -16.5 53.5t-4.5 52.5zM279 246q0 -76 45 -117t125 -41q63 0 124 29q82 39 123 110q27 46 56 152l28 129l-170 -8q-84 0 -151 -23 q-98 -33 -148 -108q-33 -53 -32 -123zM971 612h508q2 14 9 61.5t7 71.5q0 111 -70 160q-49 35 -118 35q-145 0 -240 -127q-49 -68 -96 -201z" />
<glyph unicode="&#xe7;" horiz-adv-x="980" d="M152 328q0 96 30 223q49 205 152 326q141 166 366 165q184 0 279 -92q80 -80 80 -202l-6 -72h-166l6 67q0 96 -52.5 144.5t-133.5 48.5q-86 0 -150 -43q-47 -33 -86 -92q-53 -80 -96 -219.5t-43 -255.5q0 -129 74 -191q55 -47 141 -47q102 0 168 64q53 50 96 161h174 q-18 -70 -36.5 -104.5t-57.5 -79.5q-72 -84 -180 -121q-76 -27 -160 -26l-80 4l-22 -70q35 0 56 -3t44 -11q39 -16 65.5 -55.5t26.5 -90.5q0 -47 -19.5 -88t-52 -67.5t-84 -41t-131.5 -14.5q-59 0 -108 6l24 101q55 -8 95 -8q41 0 74.5 10t54 37.5t20.5 58.5q0 53 -61 74 q-39 12 -111 12l55 162q-102 31 -153 78q-92 86 -92 252z" />
<glyph unicode="&#xe8;" horiz-adv-x="1024" d="M147 328q0 131 56.5 303t144.5 268q76 84 187 119q76 25 167 24q156 0 248 -67q113 -84 113 -258q0 -43 -7 -98.5t-26 -116.5h-684q-12 -41 -19.5 -89t-7.5 -89q0 -129 76 -189q57 -45 150 -45q131 0 207 84q40 45 69 127h176q-18 -47 -36 -82q-31 -55 -68 -96 q-76 -82 -186 -117q-80 -25 -175 -24q-86 0 -141 14q-80 20 -142.5 73.5t-86.5 139.5q-14 49 -15 119zM379 616h504q18 66 18 123q0 96 -55 149.5t-139 53.5q-137 0 -228 -119q-55 -72 -100 -207zM535 1421h186l133 -276h-131z" />
<glyph unicode="&#xe9;" horiz-adv-x="1024" d="M147 328q0 131 56.5 303t144.5 268q76 84 187 119q76 25 167 24q156 0 248 -67q113 -84 113 -258q0 -43 -7 -98.5t-26 -116.5h-684q-12 -41 -19.5 -89t-7.5 -89q0 -129 76 -189q57 -45 150 -45q131 0 207 84q40 45 69 127h176q-18 -47 -36 -82q-31 -55 -68 -96 q-76 -82 -186 -117q-80 -25 -175 -24q-86 0 -141 14q-80 20 -142.5 73.5t-86.5 139.5q-14 49 -15 119zM379 616h504q18 66 18 123q0 96 -55 149.5t-139 53.5q-137 0 -228 -119q-55 -72 -100 -207zM661 1145l224 276h213l-293 -276h-144z" />
<glyph unicode="&#xea;" horiz-adv-x="1024" d="M147 328q0 131 56.5 303t144.5 268q76 84 187 119q76 25 167 24q156 0 248 -67q113 -84 113 -258q0 -43 -7 -98.5t-26 -116.5h-684q-12 -41 -19.5 -89t-7.5 -89q0 -129 76 -189q57 -45 150 -45q131 0 207 84q40 45 69 127h176q-18 -47 -36 -82q-31 -55 -68 -96 q-76 -82 -186 -117q-80 -25 -175 -24q-86 0 -141 14q-80 20 -142.5 73.5t-86.5 139.5q-14 49 -15 119zM379 616h504q18 66 18 123q0 96 -55 149.5t-139 53.5q-137 0 -228 -119q-55 -72 -100 -207zM510 1145l227 276h182l84 -276h-123l-61 203l-162 -203h-147z" />
<glyph unicode="&#xeb;" horiz-adv-x="1024" d="M147 328q0 131 56.5 303t144.5 268q76 84 187 119q76 25 167 24q156 0 248 -67q113 -84 113 -258q0 -43 -7 -98.5t-26 -116.5h-684q-12 -41 -19.5 -89t-7.5 -89q0 -129 76 -189q57 -45 150 -45q131 0 207 84q40 45 69 127h176q-18 -47 -36 -82q-31 -55 -68 -96 q-76 -82 -186 -117q-80 -25 -175 -24q-86 0 -141 14q-80 20 -142.5 73.5t-86.5 139.5q-14 49 -15 119zM379 616h504q18 66 18 123q0 96 -55 149.5t-139 53.5q-137 0 -228 -119q-55 -72 -100 -207zM518 1182l43 170h176l-45 -170h-174zM854 1182l43 170h176l-43 -170h-176z " />
<glyph unicode="&#xec;" horiz-adv-x="425" d="M82 0l266 1024h174l-266 -1024h-174zM234 1421h186l133 -276h-131z" />
<glyph unicode="&#xed;" horiz-adv-x="425" d="M82 0l266 1024h174l-266 -1024h-174zM360 1145l224 276h213l-293 -276h-144z" />
<glyph unicode="&#xee;" horiz-adv-x="425" d="M82 0l266 1024h174l-266 -1024h-174zM209 1145l227 276h182l84 -276h-123l-61 203l-162 -203h-147z" />
<glyph unicode="&#xef;" horiz-adv-x="425" d="M82 0l266 1024h174l-266 -1024h-174zM217 1182l43 170h176l-45 -170h-174zM553 1182l43 170h176l-43 -170h-176z" />
<glyph unicode="&#xf0;" d="M150 336q0 238 114 438q152 266 432 266q66 0 115 -12q20 -6 74 -24q-23 111 -76 190h-291l-22 92h262q-25 51 -52.5 88t-60.5 72h184q29 -37 45 -60q31 -43 62 -100h162l22 -92h-139q51 -117 78 -213q35 -129 35 -262q0 -98 -20.5 -210t-65.5 -216q-57 -129 -138 -199 q-129 -113 -327 -112q-178 0 -283 88q-111 94 -110 266zM328 324q0 -39 5 -67t19 -58q25 -49 76 -79t121 -30q123 0 201 84q98 104 153 356q10 47 16.5 101.5t6.5 85.5q0 127 -82 182q-53 37 -129 37q-180 0 -283.5 -188.5t-103.5 -423.5z" />
<glyph unicode="&#xf1;" horiz-adv-x="1024" d="M86 0l264 1024h176l-30 -119q74 59 129 88q96 49 196 49q123 0 185 -69q49 -57 49 -142q0 -57 -19 -139q-16 -59 -22 -86l-158 -606h-174l158 606q10 39 23.5 95.5t13.5 93.5q0 51 -27 84q-39 49 -119 49q-113 0 -207 -88q-39 -35 -57 -77t-47 -145l-160 -618h-174z M473 1147l20 84q29 94 50 125q35 51 104 51q59 0 147 -64l64 -45q27 -18 46 -30.5t28 -12.5q23 0 31 24t22 69l12 57h127l-29 -107q-27 -96 -57.5 -124.5t-81.5 -28.5q-41 0 -71.5 15.5t-79.5 49.5l-56 39q-59 45 -82 45t-30.5 -15t-24.5 -77l-12 -55h-127z" />
<glyph unicode="&#xf2;" d="M150 338q0 131 46 281.5t136 254.5q66 76 153 119q106 51 246 51q131 0 221 -57q57 -37 95 -94q27 -41 38 -92t11 -113q0 -41 -6.5 -89t-16.5 -91q-55 -268 -184 -397t-346 -129q-180 0 -286.5 92t-106.5 264zM328 326q0 -63 14 -105q23 -63 84 -100q23 -14 53.5 -22.5 t69.5 -8.5q133 0 217 103q49 57 84 159q10 29 26.5 83t26.5 95q12 63 17.5 101.5t5.5 87.5q0 127 -82 182q-53 37 -129 37q-55 0 -101 -16q-82 -31 -143 -109q-70 -88 -111 -254q-33 -131 -32 -233zM553 1421h186l133 -276h-131z" />
<glyph unicode="&#xf3;" d="M150 338q0 131 46 281.5t136 254.5q66 76 153 119q106 51 246 51q131 0 221 -57q57 -37 95 -94q27 -41 38 -92t11 -113q0 -41 -6.5 -89t-16.5 -91q-55 -268 -184 -397t-346 -129q-180 0 -286.5 92t-106.5 264zM328 326q0 -63 14 -105q23 -63 84 -100q23 -14 53.5 -22.5 t69.5 -8.5q133 0 217 103q49 57 84 159q10 29 26.5 83t26.5 95q12 63 17.5 101.5t5.5 87.5q0 127 -82 182q-53 37 -129 37q-55 0 -101 -16q-82 -31 -143 -109q-70 -88 -111 -254q-33 -131 -32 -233zM680 1145l224 276h213l-293 -276h-144z" />
<glyph unicode="&#xf4;" d="M150 338q0 131 46 281.5t136 254.5q66 76 153 119q106 51 246 51q131 0 221 -57q57 -37 95 -94q27 -41 38 -92t11 -113q0 -41 -6.5 -89t-16.5 -91q-55 -268 -184 -397t-346 -129q-180 0 -286.5 92t-106.5 264zM328 326q0 -63 14 -105q23 -63 84 -100q23 -14 53.5 -22.5 t69.5 -8.5q133 0 217 103q49 57 84 159q10 29 26.5 83t26.5 95q12 63 17.5 101.5t5.5 87.5q0 127 -82 182q-53 37 -129 37q-55 0 -101 -16q-82 -31 -143 -109q-70 -88 -111 -254q-33 -131 -32 -233zM529 1145l227 276h182l84 -276h-123l-61 203l-162 -203h-147z" />
<glyph unicode="&#xf5;" d="M150 338q0 131 46 281.5t136 254.5q66 76 153 119q106 51 246 51q131 0 221 -57q57 -37 95 -94q27 -41 38 -92t11 -113q0 -41 -6.5 -89t-16.5 -91q-55 -268 -184 -397t-346 -129q-180 0 -286.5 92t-106.5 264zM328 326q0 -63 14 -105q23 -63 84 -100q23 -14 53.5 -22.5 t69.5 -8.5q133 0 217 103q49 57 84 159q10 29 26.5 83t26.5 95q12 63 17.5 101.5t5.5 87.5q0 127 -82 182q-53 37 -129 37q-55 0 -101 -16q-82 -31 -143 -109q-70 -88 -111 -254q-33 -131 -32 -233zM492 1147l20 84q29 94 50 125q35 51 104 51q59 0 147 -64l64 -45 q27 -18 46 -30.5t28 -12.5q23 0 31 24t22 69l12 57h127l-29 -107q-27 -96 -57.5 -124.5t-81.5 -28.5q-41 0 -71.5 15.5t-79.5 49.5l-56 39q-59 45 -82 45t-30.5 -15t-24.5 -77l-12 -55h-127z" />
<glyph unicode="&#xf6;" d="M150 338q0 131 46 281.5t136 254.5q66 76 153 119q106 51 246 51q131 0 221 -57q57 -37 95 -94q27 -41 38 -92t11 -113q0 -41 -6.5 -89t-16.5 -91q-55 -268 -184 -397t-346 -129q-180 0 -286.5 92t-106.5 264zM328 326q0 -63 14 -105q23 -63 84 -100q23 -14 53.5 -22.5 t69.5 -8.5q133 0 217 103q49 57 84 159q10 29 26.5 83t26.5 95q12 63 17.5 101.5t5.5 87.5q0 127 -82 182q-53 37 -129 37q-55 0 -101 -16q-82 -31 -143 -109q-70 -88 -111 -254q-33 -131 -32 -233zM535 1182l43 170h176l-45 -170h-174zM871 1182l43 170h176l-43 -170h-176z " />
<glyph unicode="&#xf7;" horiz-adv-x="1366" d="M96 535v120h1364v-120h-1364zM688 328q0 39 25.5 66.5t68.5 27.5q41 0 68 -28.5t27 -65.5t-26 -64.5t-69 -27.5q-41 0 -67.5 26.5t-26.5 65.5zM688 860q0 39 25.5 66.5t68.5 27.5q41 0 68 -28.5t27 -65.5t-26 -64.5t-69 -27.5q-41 0 -67.5 26.5t-26.5 65.5z" />
<glyph unicode="&#xf8;" d="M66 10l133 131q-25 41 -35 72q-16 49 -17 123q0 84 31 201q25 94 62 176q68 147 168 227q127 102 307 102q78 0 143.5 -20.5t140.5 -77.5l125 125l54 -57l-125 -125q18 -35 33.5 -81t15.5 -112q0 -80 -23.5 -176t-64.5 -190q-63 -150 -148 -228q-127 -119 -321 -118 q-111 0 -193 34q-45 20 -104 66l-127 -125zM311 330l4 -70l592 590q-27 33 -57 51q-53 33 -125 33q-51 0 -101.5 -18.5t-91.5 -51.5q-94 -74 -157.5 -235.5t-63.5 -298.5zM344 178q37 -45 89 -66.5t104 -21.5q47 0 92 15.5t84 46.5q88 68 157.5 241.5t69.5 304.5l-4 74z" />
<glyph unicode="&#xf9;" d="M147 197q0 41 9.5 88t23.5 102l164 637h174l-172 -664q-12 -49 -16 -69.5t-4 -52.5q0 -72 43 -106t112 -34q74 0 143.5 34t110.5 83q27 31 47 84q14 39 33 104l162 621h174l-264 -1024h-176l30 117q-80 -66 -168 -100.5t-184 -34.5q-115 0 -174 51q-68 57 -68 164z M553 1421h186l133 -276h-131z" />
<glyph unicode="&#xfa;" d="M147 197q0 41 9.5 88t23.5 102l164 637h174l-172 -664q-12 -49 -16 -69.5t-4 -52.5q0 -72 43 -106t112 -34q74 0 143.5 34t110.5 83q27 31 47 84q14 39 33 104l162 621h174l-264 -1024h-176l30 117q-80 -66 -168 -100.5t-184 -34.5q-115 0 -174 51q-68 57 -68 164z M680 1145l224 276h213l-293 -276h-144z" />
<glyph unicode="&#xfb;" d="M147 197q0 41 9.5 88t23.5 102l164 637h174l-172 -664q-12 -49 -16 -69.5t-4 -52.5q0 -72 43 -106t112 -34q74 0 143.5 34t110.5 83q27 31 47 84q14 39 33 104l162 621h174l-264 -1024h-176l30 117q-80 -66 -168 -100.5t-184 -34.5q-115 0 -174 51q-68 57 -68 164z M529 1145l227 276h182l84 -276h-123l-61 203l-162 -203h-147z" />
<glyph unicode="&#xfc;" d="M147 197q0 41 9.5 88t23.5 102l164 637h174l-172 -664q-12 -49 -16 -69.5t-4 -52.5q0 -72 43 -106t112 -34q74 0 143.5 34t110.5 83q27 31 47 84q14 39 33 104l162 621h174l-264 -1024h-176l30 117q-80 -66 -168 -100.5t-184 -34.5q-115 0 -174 51q-68 57 -68 164z M528 1182l43 170h176l-45 -170h-174zM864 1182l43 170h176l-43 -170h-176z" />
<glyph unicode="&#xfd;" horiz-adv-x="854" d="M-96 -391l41 131q39 -16 66.5 -24.5t58.5 -8.5q49 0 89 24.5t79 88.5q53 86 53 174q0 18 -2 46t-8 99l-84 887h176l53 -727q0 -82 2 -113.5t4 -60.5q14 43 34.5 85t39.5 79l377 737h168l-586 -1092q-33 -55 -68 -115.5t-55 -86.5q-45 -63 -90 -97q-82 -59 -184 -59 q-31 0 -73 7t-91 26zM573 1145l224 276h213l-293 -276h-144z" />
<glyph unicode="&#xfe;" d="M-23 -422l484 1868h176l-139 -539q47 37 75.5 55.5t65.5 34.5q49 23 101.5 34t90.5 11q111 0 181 -59q92 -78 92 -246q0 -145 -52.5 -317t-133.5 -273q-72 -90 -166 -131q-82 -35 -183 -34q-115 0 -194 45q-43 24 -86 73l-135 -522h-177zM332 240q0 -70 61.5 -115 t141.5 -45q98 0 174 67q39 35 79 105q63 111 103 260q33 129 33 221q0 121 -68 172q-43 33 -102 33q-84 0 -168 -64q-119 -90 -137 -153l-97 -377q-2 -12 -11 -52t-9 -52z" />
<glyph unicode="&#xff;" horiz-adv-x="854" d="M-96 -391l41 131q39 -16 66.5 -24.5t58.5 -8.5q49 0 89 24.5t79 88.5q53 86 53 174q0 18 -2 46t-8 99l-84 887h176l53 -727q0 -82 2 -113.5t4 -60.5q14 43 34.5 85t39.5 79l377 737h168l-586 -1092q-33 -55 -68 -115.5t-55 -86.5q-45 -63 -90 -97q-82 -59 -184 -59 q-31 0 -73 7t-91 26zM430 1182l43 170h176l-45 -170h-174zM766 1182l43 170h176l-43 -170h-176z" />
<glyph unicode="&#x152;" horiz-adv-x="2048" d="M205 438q0 182 80 430q92 285 227 422q109 109 258 152q94 27 213 26q80 0 153.5 -12t147.5 -55q51 -29 86 -66q18 -20 51 -67l45 178h783l-37 -141h-606l-125 -484h594l-37 -139h-594l-139 -541h720l-36 -141h-897l36 141q-80 -74 -153 -108q-113 -53 -270 -53 q-96 0 -185.5 23.5t-159.5 76.5q-88 66 -121.5 158t-33.5 200zM406 418q0 -70 10 -111q18 -78 76 -129q84 -78 241 -78q158 0 268 84q78 57 132 156q61 109 124.5 360.5t63.5 372.5q0 57 -12 96q-23 68 -82 117q-84 68 -232 68q-137 0 -235 -66q-78 -51 -142 -153 q-82 -123 -147 -345.5t-65 -371.5z" />
<glyph unicode="&#x153;" horiz-adv-x="1748" d="M156 346q0 115 34 242q53 190 162 303q147 152 377 151q139 0 234 -61q51 -35 102 -102q51 63 113 100q106 63 249 63q86 0 154 -20.5t115 -60t71.5 -103t24.5 -141.5q0 -55 -8 -105.5t-23 -109.5h-688q-12 -53 -16 -80q-10 -57 -10 -103q0 -129 83 -188q61 -43 146 -43 q121 0 194 76q45 45 82 137h174q-45 -137 -133 -215q-121 -104 -327 -104q-147 0 -238 55q-57 35 -104 106q-68 -76 -133 -110q-98 -51 -244 -51q-96 0 -169 22.5t-124 71.5q-61 57 -84 143q-14 55 -14 127zM332 330q0 -129 69 -191q57 -51 152 -51q98 0 170 53 q53 39 97 118t80 221.5t36 236.5q0 104 -55.5 161.5t-153.5 57.5q-70 0 -131 -31q-78 -39 -137.5 -124t-93 -220t-33.5 -231zM1108 614h506q10 41 14 76t4 55q0 111 -73 160q-53 35 -121 35q-106 0 -187 -68q-98 -82 -143 -258z" />
<glyph unicode="&#x178;" d="M285 1446h202l152 -588l41 -151l113 151l438 588h203l-703 -916l-137 -530h-191l140 530zM643 1591l45 170h174l-43 -170h-176zM979 1591l45 170h176l-45 -170h-176z" />
<glyph unicode="&#x2c6;" horiz-adv-x="555" d="M31 1145l227 276h182l84 -276h-123l-61 203l-162 -203h-147z" />
<glyph unicode="&#x2dc;" horiz-adv-x="555" d="M-47 1147l20 84q29 94 50 125q35 51 104 51q59 0 147 -64l64 -45q27 -18 46 -30.5t28 -12.5q23 0 31 24t22 69l12 57h127l-29 -107q-27 -96 -57.5 -124.5t-81.5 -28.5q-41 0 -71.5 15.5t-79.5 49.5l-56 39q-59 45 -82 45t-30.5 -15t-24.5 -77l-12 -55h-127z" />
<glyph unicode="&#x2000;" horiz-adv-x="944" />
<glyph unicode="&#x2001;" horiz-adv-x="1888" />
<glyph unicode="&#x2002;" horiz-adv-x="944" />
<glyph unicode="&#x2003;" horiz-adv-x="1888" />
<glyph unicode="&#x2004;" horiz-adv-x="629" />
<glyph unicode="&#x2005;" horiz-adv-x="472" />
<glyph unicode="&#x2006;" horiz-adv-x="314" />
<glyph unicode="&#x2007;" horiz-adv-x="314" />
<glyph unicode="&#x2008;" horiz-adv-x="236" />
<glyph unicode="&#x2009;" horiz-adv-x="377" />
<glyph unicode="&#x200a;" horiz-adv-x="104" />
<glyph unicode="&#x2010;" horiz-adv-x="811" d="M180 461l35 135h600l-35 -135h-600z" />
<glyph unicode="&#x2011;" horiz-adv-x="811" d="M180 461l35 135h600l-35 -135h-600z" />
<glyph unicode="&#x2012;" horiz-adv-x="811" d="M180 461l35 135h600l-35 -135h-600z" />
<glyph unicode="&#x2013;" horiz-adv-x="1024" d="M180 461l35 135h813l-35 -135h-813z" />
<glyph unicode="&#x2014;" horiz-adv-x="1409" d="M180 461l35 135h1198l-35 -135h-1198z" />
<glyph unicode="&#x2018;" horiz-adv-x="425" d="M332 993l47 181l182 272h117l-189 -272h103l-47 -181h-213z" />
<glyph unicode="&#x2019;" horiz-adv-x="425" d="M305 993l187 275h-101l45 178h215l-47 -178l-182 -275h-117z" />
<glyph unicode="&#x201a;" horiz-adv-x="425" d="M-25 -270l185 270h-99l48 180h210l-47 -180l-182 -270h-115z" />
<glyph unicode="&#x201c;" horiz-adv-x="768" d="M332 993l47 181l182 272h117l-189 -272h103l-47 -181h-213zM676 993l47 181l182 272h117l-188 -272h102l-47 -181h-213z" />
<glyph unicode="&#x201d;" horiz-adv-x="768" d="M307 995l185 271h-99l47 180h209l-45 -180l-184 -271h-113zM649 995l182 271h-98l47 180h211l-47 -180l-182 -271h-113z" />
<glyph unicode="&#x201e;" horiz-adv-x="768" d="M-25 -270l185 270h-99l48 180h210l-47 -180l-182 -270h-115zM317 -270l185 270h-99l48 180h208l-47 -180l-182 -270h-113z" />
<glyph unicode="&#x2022;" horiz-adv-x="681" d="M233 723q0 96 70 170t178 74q104 0 173 -71t69 -173t-66.5 -173t-173.5 -71q-109 0 -179.5 71t-70.5 173z" />
<glyph unicode="&#x2026;" horiz-adv-x="2048" d="M244 82q0 39 26.5 67.5t69.5 28.5q41 0 67.5 -26.5t26.5 -67.5t-26.5 -68.5t-67.5 -27.5q-39 0 -67.5 26.5t-28.5 67.5zM928 82q0 39 26.5 67.5t69.5 28.5q41 0 67.5 -26.5t26.5 -67.5t-26.5 -68.5t-67.5 -27.5q-39 0 -67.5 26.5t-28.5 67.5zM1612 82q0 39 26.5 67.5 t69.5 28.5q41 0 67.5 -26.5t26.5 -67.5t-26.5 -68.5t-67.5 -27.5q-39 0 -67.5 26.5t-28.5 67.5z" />
<glyph unicode="&#x202f;" horiz-adv-x="377" />
<glyph unicode="&#x2039;" horiz-adv-x="468" d="M145 528l304 383h147l-320 -383l160 -376h-125z" />
<glyph unicode="&#x203a;" horiz-adv-x="468" d="M49 152l320 383l-158 376h123l168 -376l-305 -383h-148z" />
<glyph unicode="&#x205f;" horiz-adv-x="472" />
<glyph unicode="&#x2122;" horiz-adv-x="1406" d="M145 1362v86h537v-86h-217v-594h-96v594h-224zM739 768v680h138l176 -559l176 559h137v-680h-94v444l4 140l-35 -119l-147 -465h-86l-148 465l-35 117l4 -138l5 -444h-95z" />
<glyph unicode="&#xe000;" horiz-adv-x="1024" d="M0 0v1024h1024v-1024h-1024z" />
</font>
</defs>
</svg>
